<svg width="141" height="79" viewBox="0 0 141 79" fill="none" xmlns="http://www.w3.org/2000/svg">
<path d="M131.922 78.9455H108.02C104.884 78.9455 102.115 77.2576 100.483 74.6976C98.7186 77.1687 95.8945 78.7731 92.7173 78.7731H9.67004C4.33825 78.7731 0 74.2535 0 68.699V47.1016L1.66097 47.0409C5.75583 46.8913 8.96332 43.5673 8.96332 39.4731C8.96332 35.3796 5.75584 32.0556 1.66029 31.9053L0 31.8439V10.2465C0 4.69126 4.33825 0.172372 9.67004 0.172372H92.7173C95.8938 0.172372 98.7186 1.7768 100.483 4.24792C102.114 1.68786 104.884 0 108.02 0H131.922C136.928 0 141 4.30101 141 9.58799V17.2372H139.276C137.66 17.2372 136.346 18.552 136.346 20.1675C136.346 21.7829 137.66 23.0978 139.276 23.0978H141V36.5428H139.276C137.66 36.5428 136.346 37.8576 136.346 39.4731C136.346 41.0886 137.66 42.4034 139.276 42.4034H141V55.8484H139.276C137.66 55.8484 136.346 57.1632 136.346 58.7787C136.346 60.3942 137.66 61.709 139.276 61.709H141V69.3582C141 74.6445 136.928 78.9455 131.922 78.9455ZM102.389 68.699V69.3575C102.389 72.7436 104.915 75.4981 108.02 75.4981H131.922C135.026 75.4981 137.553 72.7436 137.553 69.3575V64.9193C134.87 64.1657 132.899 61.698 132.899 58.778C132.899 55.858 134.87 53.3911 137.553 52.6368V45.613C134.87 44.8594 132.899 42.3917 132.899 39.4717C132.899 36.5517 134.87 34.0848 137.553 33.3305V26.3067C134.87 25.553 132.899 23.0854 132.899 20.1654C132.899 17.2454 134.87 14.7784 137.553 14.0242V9.58593C137.553 6.19986 135.026 3.44536 131.922 3.44536H108.02C104.915 3.44536 102.389 6.19986 102.389 9.58593V10.2444H98.9413C98.9413 6.59011 96.1496 3.61773 92.718 3.61773H9.67004C6.23847 3.61773 3.44743 6.5908 3.44743 10.2444V28.6426C8.58893 29.6065 12.4108 34.0806 12.4108 39.471C12.4108 44.8628 8.58962 49.3369 3.44743 50.3001V68.6977C3.44743 72.3519 6.23916 75.3243 9.67004 75.3243H92.7173C96.1496 75.3243 98.9406 72.3512 98.9406 68.6977H102.389V68.699Z" fill="white"/>
<path d="M100.435 62.6033C99.4825 62.6033 98.7109 61.8318 98.7109 60.8796V55.9884C98.7109 55.0362 99.4825 54.2646 100.435 54.2646C101.387 54.2646 102.158 55.0362 102.158 55.9884V60.8796C102.158 61.8318 101.387 62.6033 100.435 62.6033Z" fill="white"/>
<path d="M100.435 49.9627C99.4825 49.9627 98.7109 49.1911 98.7109 48.2389V43.3477C98.7109 42.3956 99.4825 41.624 100.435 41.624C101.387 41.624 102.158 42.3956 102.158 43.3477V48.2389C102.158 49.1911 101.387 49.9627 100.435 49.9627Z" fill="white"/>
<path d="M100.435 37.3211C99.4825 37.3211 98.7109 36.5495 98.7109 35.5974V30.7061C98.7109 29.754 99.4825 28.9824 100.435 28.9824C101.387 28.9824 102.158 29.754 102.158 30.7061V35.5974C102.158 36.5495 101.387 37.3211 100.435 37.3211Z" fill="white"/>
<path d="M100.435 24.6804C99.4825 24.6804 98.7109 23.9089 98.7109 22.9567V18.0655C98.7109 17.1133 99.4825 16.3418 100.435 16.3418C101.387 16.3418 102.158 17.1133 102.158 18.0655V22.9567C102.158 23.9089 101.387 24.6804 100.435 24.6804Z" fill="white"/>
<path d="M49.8394 61.8604L46.8217 56.2881L40.5847 57.3984L40.285 51.0713L34.1799 49.3749L36.6562 43.5425L31.9 39.3604L36.6562 35.1782L34.1809 29.3453L40.2855 27.6489L40.5852 21.3218L46.8217 22.4326L49.8394 16.8604L54.9725 20.5763L60.1056 16.8604L63.1233 22.4326L69.3598 21.3223L69.66 27.6494L75.7641 29.3458L73.2888 35.1782L78.0445 39.3604L73.2888 43.5425L75.7641 49.3754L69.6595 51.0718L69.3593 57.3989L63.1228 56.2886L60.1051 61.8604L54.972 58.1444L49.8394 61.8604ZM54.9725 55.669L59.4304 58.8963L62.0496 54.0609L67.4649 55.0249L67.7251 49.5288L73.0256 48.0561L70.8771 42.9936L75.0082 39.3609L70.8771 35.7281L73.0256 30.6661L67.7256 29.1934L67.4654 23.6973L62.0491 24.6613L59.4304 19.8254L54.9725 23.0527L50.5146 19.8254L47.8954 24.6613L42.4801 23.6968L42.2194 29.1929L36.9189 30.6656L39.0673 35.7281L34.9363 39.3609L39.0673 42.9936L36.9184 48.0551L42.2184 49.5278L42.4791 55.0239L47.8949 54.0599L50.5136 58.8958L54.9725 55.669Z" fill="white"/>
<path d="M46.5044 46.8624C46.134 46.4915 46.133 45.8904 46.5044 45.519L61.9579 30.0655C62.3288 29.6941 62.9294 29.6946 63.3013 30.0655C63.6718 30.436 63.6723 31.037 63.3013 31.4089L47.8478 46.8624C47.4759 47.2334 46.8749 47.2329 46.5044 46.8624Z" fill="white"/>
<path d="M46.4818 36.145C44.7649 34.4281 44.7654 31.6355 46.4818 29.9191C48.1982 28.2027 50.9909 28.2027 52.7077 29.9191C54.4246 31.6355 54.4241 34.4286 52.7077 36.145C50.9909 37.8614 48.1977 37.8619 46.4818 36.145ZM51.462 31.1648C50.4319 30.1347 48.7571 30.1347 47.727 31.1648C46.6964 32.1944 46.6964 33.8697 47.727 34.9004C48.7571 35.93 50.4319 35.93 51.462 34.9004C52.4922 33.8697 52.4922 32.1944 51.462 31.1648Z" fill="white"/>
<path d="M57.2208 46.8848C55.5044 45.1679 55.5044 42.3748 57.2208 40.6584C58.9371 38.942 61.7303 38.942 63.4472 40.6584C65.1631 42.3753 65.1631 45.1679 63.4472 46.8848C61.7308 48.6007 58.9371 48.6007 57.2208 46.8848ZM62.2015 41.9041C61.1719 40.8739 59.4966 40.8739 58.4664 41.9041C57.4358 42.9342 57.4358 44.6095 58.4664 45.6391C59.4966 46.6697 61.1719 46.6697 62.2015 45.6391C63.2321 44.6095 63.2321 42.9337 62.2015 41.9041Z" fill="white"/>
</svg>
