<svg width="141" height="79" viewBox="0 0 141 79" fill="none" xmlns="http://www.w3.org/2000/svg">
<path d="M131.922 78.9455H108.02C104.884 78.9455 102.115 77.2576 100.483 74.6976C98.7186 77.1687 95.8945 78.7731 92.7173 78.7731H9.67004C4.33825 78.7731 0 74.2535 0 68.699V47.1016L1.66097 47.0409C5.75583 46.8913 8.96332 43.5673 8.96332 39.4731C8.96332 35.3796 5.75584 32.0556 1.66029 31.9053L0 31.8439V10.2465C0 4.69126 4.33825 0.172372 9.67004 0.172372H92.7173C95.8938 0.172372 98.7186 1.7768 100.483 4.24792C102.114 1.68786 104.884 0 108.02 0H131.922C136.928 0 141 4.30101 141 9.58799V17.2372H139.276C137.66 17.2372 136.346 18.552 136.346 20.1675C136.346 21.7829 137.66 23.0978 139.276 23.0978H141V36.5428H139.276C137.66 36.5428 136.346 37.8576 136.346 39.4731C136.346 41.0886 137.66 42.4034 139.276 42.4034H141V55.8484H139.276C137.66 55.8484 136.346 57.1632 136.346 58.7787C136.346 60.3942 137.66 61.709 139.276 61.709H141V69.3582C141 74.6445 136.928 78.9455 131.922 78.9455ZM102.389 68.699V69.3575C102.389 72.7436 104.915 75.4981 108.02 75.4981H131.922C135.026 75.4981 137.553 72.7436 137.553 69.3575V64.9193C134.87 64.1657 132.899 61.698 132.899 58.778C132.899 55.858 134.87 53.3911 137.553 52.6368V45.613C134.87 44.8594 132.899 42.3917 132.899 39.4717C132.899 36.5517 134.87 34.0848 137.553 33.3305V26.3067C134.87 25.553 132.899 23.0854 132.899 20.1654C132.899 17.2454 134.87 14.7784 137.553 14.0242V9.58593C137.553 6.19986 135.026 3.44536 131.922 3.44536H108.02C104.915 3.44536 102.389 6.19986 102.389 9.58593V10.2444H98.9413C98.9413 6.59011 96.1496 3.61773 92.718 3.61773H9.67004C6.23847 3.61773 3.44743 6.5908 3.44743 10.2444V28.6426C8.58893 29.6065 12.4108 34.0806 12.4108 39.471C12.4108 44.8628 8.58962 49.3369 3.44743 50.3001V68.6977C3.44743 72.3519 6.23916 75.3243 9.67004 75.3243H92.7173C96.1496 75.3243 98.9406 72.3512 98.9406 68.6977H102.389V68.699Z" fill="#957757"/>
<path d="M100.435 62.6033C99.4825 62.6033 98.7109 61.8318 98.7109 60.8796V55.9884C98.7109 55.0362 99.4825 54.2646 100.435 54.2646C101.387 54.2646 102.158 55.0362 102.158 55.9884V60.8796C102.158 61.8318 101.387 62.6033 100.435 62.6033Z" fill="#957757"/>
<path d="M100.435 49.9627C99.4825 49.9627 98.7109 49.1911 98.7109 48.2389V43.3477C98.7109 42.3956 99.4825 41.624 100.435 41.624C101.387 41.624 102.158 42.3956 102.158 43.3477V48.2389C102.158 49.1911 101.387 49.9627 100.435 49.9627Z" fill="#957757"/>
<path d="M100.435 37.3211C99.4825 37.3211 98.7109 36.5495 98.7109 35.5974V30.7061C98.7109 29.754 99.4825 28.9824 100.435 28.9824C101.387 28.9824 102.158 29.754 102.158 30.7061V35.5974C102.158 36.5495 101.387 37.3211 100.435 37.3211Z" fill="#957757"/>
<path d="M100.435 24.6804C99.4825 24.6804 98.7109 23.9089 98.7109 22.9567V18.0655C98.7109 17.1133 99.4825 16.3418 100.435 16.3418C101.387 16.3418 102.158 17.1133 102.158 18.0655V22.9567C102.158 23.9089 101.387 24.6804 100.435 24.6804Z" fill="#957757"/>
<path d="M34.6062 24.5201C34.5141 25.1484 34.4165 25.8999 34.3203 26.7119C35.7324 26.915 38.4267 27.1108 42.6258 26.6607C42.5619 26.027 42.5054 25.3785 42.4657 24.7098C42.459 24.623 42.4469 24.5551 42.4415 24.4717C40.7422 24.7307 37.9335 24.9702 34.6062 24.5201Z" fill="#C30606"/>
<path d="M65.8223 51.0097C55.9412 49.3676 45.1567 45.7826 42.8115 28.1934C41.1042 28.484 37.9322 28.8096 34.1569 28.2351C33.6012 33.8799 33.3604 42.3927 35.6255 49.8862C39.2178 61.768 53.5577 60.9304 65.9575 60.6889C65.6084 58.9573 65.1126 55.3434 65.8223 51.0097Z" fill="#C30606"/>
<path d="M42.2727 22.913C41.0874 15.25 35.7432 17.2863 35.0435 21.9456C35.0435 21.9456 34.9635 22.3432 34.8491 22.9971C36.3116 23.1633 38.7449 23.2669 42.2727 22.913Z" fill="#C30606"/>
<path d="M70.6538 51.8073C70.1224 51.6876 69.5667 51.5772 68.9498 51.4878C68.417 51.4118 67.8788 51.333 67.3346 51.251C67.1321 52.3879 66.7903 55.4037 67.4954 60.6625C67.64 60.6611 67.7894 60.6564 67.9313 60.6551C68.9808 60.6046 69.9421 60.4553 70.8207 60.2427C70.5078 58.5057 70.1701 55.4461 70.6538 51.8073Z" fill="#C30606"/>
<path d="M72.1473 52.2207C71.9932 53.6469 71.9038 56.1266 72.333 59.7862C76.919 58.021 77.8238 54.1017 72.1473 52.2207Z" fill="#C30606"/>
</svg>
