<svg width="141" height="79" viewBox="0 0 141 79" fill="none" xmlns="http://www.w3.org/2000/svg">
<path d="M131.922 78.9455H108.02C104.884 78.9455 102.115 77.2576 100.483 74.6976C98.7186 77.1687 95.8945 78.7731 92.7173 78.7731H9.67004C4.33825 78.7731 0 74.2535 0 68.699V47.1016L1.66097 47.0409C5.75583 46.8913 8.96332 43.5673 8.96332 39.4731C8.96332 35.3796 5.75584 32.0556 1.66029 31.9053L0 31.8439V10.2465C0 4.69126 4.33825 0.172372 9.67004 0.172372H92.7173C95.8938 0.172372 98.7186 1.7768 100.483 4.24792C102.114 1.68786 104.884 0 108.02 0H131.922C136.928 0 141 4.30101 141 9.58799V17.2372H139.276C137.66 17.2372 136.346 18.552 136.346 20.1675C136.346 21.7829 137.66 23.0978 139.276 23.0978H141V36.5428H139.276C137.66 36.5428 136.346 37.8576 136.346 39.4731C136.346 41.0886 137.66 42.4034 139.276 42.4034H141V55.8484H139.276C137.66 55.8484 136.346 57.1632 136.346 58.7787C136.346 60.3942 137.66 61.709 139.276 61.709H141V69.3582C141 74.6445 136.928 78.9455 131.922 78.9455ZM102.389 68.699V69.3575C102.389 72.7436 104.915 75.4981 108.02 75.4981H131.922C135.026 75.4981 137.553 72.7436 137.553 69.3575V64.9193C134.87 64.1657 132.899 61.698 132.899 58.778C132.899 55.858 134.87 53.3911 137.553 52.6368V45.613C134.87 44.8594 132.899 42.3917 132.899 39.4717C132.899 36.5517 134.87 34.0848 137.553 33.3305V26.3067C134.87 25.553 132.899 23.0854 132.899 20.1654C132.899 17.2454 134.87 14.7784 137.553 14.0242V9.58593C137.553 6.19986 135.026 3.44536 131.922 3.44536H108.02C104.915 3.44536 102.389 6.19986 102.389 9.58593V10.2444H98.9413C98.9413 6.59011 96.1496 3.61773 92.718 3.61773H9.67004C6.23847 3.61773 3.44743 6.5908 3.44743 10.2444V28.6426C8.58893 29.6065 12.4108 34.0806 12.4108 39.471C12.4108 44.8628 8.58962 49.3369 3.44743 50.3001V68.6977C3.44743 72.3519 6.23916 75.3243 9.67004 75.3243H92.7173C96.1496 75.3243 98.9406 72.3512 98.9406 68.6977H102.389V68.699Z" fill="white"/>
<path d="M100.435 62.6033C99.4825 62.6033 98.7109 61.8317 98.7109 60.8796V55.9884C98.7109 55.0362 99.4825 54.2646 100.435 54.2646C101.387 54.2646 102.158 55.0362 102.158 55.9884V60.8796C102.158 61.8317 101.387 62.6033 100.435 62.6033Z" fill="white"/>
<path d="M100.435 49.9627C99.4825 49.9627 98.7109 49.1911 98.7109 48.2389V43.3477C98.7109 42.3956 99.4825 41.624 100.435 41.624C101.387 41.624 102.158 42.3956 102.158 43.3477V48.2389C102.158 49.1911 101.387 49.9627 100.435 49.9627Z" fill="white"/>
<path d="M100.435 37.322C99.4825 37.322 98.7109 36.5505 98.7109 35.5983V30.7071C98.7109 29.7549 99.4825 28.9834 100.435 28.9834C101.387 28.9834 102.158 29.7549 102.158 30.7071V35.5983C102.158 36.5505 101.387 37.322 100.435 37.322Z" fill="white"/>
<path d="M100.435 24.6804C99.4825 24.6804 98.7109 23.9089 98.7109 22.9567V18.0655C98.7109 17.1133 99.4825 16.3418 100.435 16.3418C101.387 16.3418 102.158 17.1133 102.158 18.0655V22.9567C102.158 23.9089 101.387 24.6804 100.435 24.6804Z" fill="white"/>
<path d="M73.1677 27.6501C71.5781 25.7348 69.7146 24.7201 67.6268 24.6348C63.9332 24.4806 60.9774 27.4364 60.8595 27.5591L54.4161 34.0906V12H50.5836V34.0992L44.145 27.5629C44.0224 27.4374 41.0818 24.4806 37.3729 24.6339C35.2852 24.7201 33.4207 25.7338 31.8321 27.6491C29.8593 30.0262 29.4645 32.8096 30.7216 35.4847C32.2057 38.6436 35.7048 41.0227 37.2493 41.0227C38.1002 41.0227 43.389 41.0658 47.5004 41.1012L43.5308 45.1244L42.2536 46.324C41.6749 46.8663 41.6462 47.7765 42.1895 48.3543C42.4721 48.6551 42.8544 48.8094 43.2376 48.8094C43.5902 48.8094 43.9428 48.68 44.2207 48.4204L45.5381 47.1834L50.5836 42.067V65.9752H54.4161V42.068L59.4482 47.1691L60.4063 48.1684C60.689 48.4625 61.0655 48.6101 61.443 48.6101C61.8004 48.6101 62.1597 48.4769 62.4385 48.2096C63.0115 47.6596 63.0297 46.7504 62.4797 46.1774L57.4812 41.1022C61.5944 41.0667 66.8977 41.0236 67.7504 41.0236C69.2949 41.0236 72.795 38.6456 74.2781 35.4856C75.5352 32.8105 75.1414 30.0281 73.1677 27.6501ZM37.327 38.1492C36.5624 37.9404 33.915 36.0864 33.1064 33.7284C32.5976 32.2472 32.9052 30.8598 34.0444 29.4858C35.1031 28.2106 36.2261 27.5629 37.4774 27.5073C39.9062 27.4278 42.0726 29.5548 42.0946 29.5778L50.4811 38.0793L50.3125 38.2508C46.4311 38.2182 38.6712 38.1521 37.327 38.1492ZM71.8943 33.7284C71.0847 36.0864 68.4383 37.9404 67.6737 38.1492C66.3276 38.1521 58.5504 38.2173 54.6729 38.2499L54.5119 38.086L62.909 29.5721C62.9301 29.552 65.0034 27.5025 67.348 27.5025C67.4016 27.5025 67.4553 27.5035 67.5099 27.5063C68.7679 27.5581 69.8947 28.2048 70.9573 29.4849C72.0965 30.8598 72.4031 32.2472 71.8943 33.7284Z" fill="white"/>
</svg>
