<svg width="142" height="80" viewBox="0 0 142 80" fill="none" xmlns="http://www.w3.org/2000/svg">
<path d="M132.086 79.045H108.154C105.015 79.045 102.242 77.3557 100.608 74.7918C98.8415 77.266 96.0138 78.8724 92.8327 78.8724H9.68216C4.34369 78.8724 0 74.3472 0 68.7858V47.1612L1.66306 47.1005C5.76305 46.9507 8.97454 43.6225 8.97454 39.5225C8.97454 35.4239 5.76304 32.0957 1.66237 31.9445L0 31.8838V10.2593C0 4.69715 4.34369 0.172587 9.68216 0.172587H92.8334C96.0138 0.172587 98.8422 1.77904 100.609 4.25325C102.242 1.68929 105.015 0 108.155 0H132.087C137.099 0 141.176 4.3064 141.176 9.6V17.2587H139.451C137.832 17.2587 136.517 18.5745 136.517 20.1927C136.517 21.8109 137.832 23.1267 139.451 23.1267H141.176V36.5885H139.451C137.832 36.5885 136.517 37.9043 136.517 39.5225C136.517 41.1407 137.832 42.4565 139.451 42.4565H141.176V55.9183H139.451C137.832 55.9183 136.517 57.2341 136.517 58.8523C136.517 60.4705 137.832 61.7863 139.451 61.7863H141.176V69.445C141.176 74.7386 137.099 79.045 132.086 79.045ZM102.516 68.7858V69.445C102.516 72.8353 105.046 75.5933 108.154 75.5933H132.086C135.195 75.5933 137.724 72.8353 137.724 69.445V65.0012C135.039 64.246 133.064 61.7752 133.064 58.8523C133.064 55.9294 135.039 53.4586 137.724 52.7034V45.6715C135.039 44.9162 133.064 42.4454 133.064 39.5225C133.064 36.5996 135.039 34.1288 137.724 33.3736V26.3417C135.039 25.5864 133.064 23.1157 133.064 20.1927C133.064 17.2698 135.039 14.799 137.724 14.0438V9.6C137.724 6.2097 135.195 3.45175 132.086 3.45175H108.154C105.046 3.45175 102.516 6.2097 102.516 9.6V10.2593H99.0645C99.0645 6.60045 96.2692 3.62433 92.8334 3.62433H9.68216C6.24629 3.62433 3.45175 6.60114 3.45175 10.2593V28.6806C8.59968 29.6457 12.4263 34.1254 12.4263 39.5225C12.4263 44.921 8.60038 49.4014 3.45175 50.3651V68.7858C3.45175 72.4446 6.24698 75.4207 9.68216 75.4207H92.8334C96.2699 75.4207 99.0645 72.4439 99.0645 68.7858H102.516V68.7858Z" fill="#957757"/>
<path d="M100.56 62.6831C99.6065 62.6831 98.834 61.9106 98.834 60.9572V56.0599C98.834 55.1065 99.6065 54.334 100.56 54.334C101.513 54.334 102.286 55.1065 102.286 56.0599V60.9572C102.286 61.9106 101.513 62.6831 100.56 62.6831Z" fill="#957757"/>
<path d="M100.56 50.0268C99.6065 50.0268 98.834 49.2543 98.834 48.3009V43.4036C98.834 42.4502 99.6065 41.6777 100.56 41.6777C101.513 41.6777 102.286 42.4502 102.286 43.4036V48.3009C102.286 49.2543 101.513 50.0268 100.56 50.0268Z" fill="#957757"/>
<path d="M100.56 37.3696C99.6065 37.3696 98.834 36.5971 98.834 35.6437V30.7464C98.834 29.793 99.6065 29.0205 100.56 29.0205C101.513 29.0205 102.286 29.793 102.286 30.7464V35.6437C102.286 36.5971 101.513 37.3696 100.56 37.3696Z" fill="#957757"/>
<path d="M100.56 24.7124C99.6065 24.7124 98.834 23.9399 98.834 22.9865V18.0892C98.834 17.1358 99.6065 16.3633 100.56 16.3633C101.513 16.3633 102.286 17.1358 102.286 18.0892V22.9865C102.286 23.9399 101.513 24.7124 100.56 24.7124Z" fill="#957757"/>
<path d="M57.8472 36.2291L62.1821 31.8942L63.0424 32.0386L64.4554 30.6262L61.0324 27.2021L59.6189 28.6157L59.7884 29.5452L55.4764 33.8583C53.1659 32.578 50.2008 32.9143 48.2404 34.8742L36.3076 46.8065L34.8226 48.292L31.4706 51.644L31.9924 52.1658C32.1587 53.4557 33.1938 55.2535 34.8226 56.8829C36.4515 58.5112 38.2493 59.5468 39.5397 59.7126L40.0615 60.2349L43.4135 56.8829L44.8985 55.3974L56.8313 43.4651C58.7912 41.5047 59.127 38.5391 57.8472 36.2291ZM54.4627 34.6359C54.8811 34.7766 55.1076 35.2281 54.9685 35.6476C54.8288 36.0638 54.38 36.2898 53.9638 36.1545C53.8193 36.1108 50.8399 35.2633 47.7554 39.4495C47.4931 39.8045 46.9927 39.8807 46.6371 39.619C46.6041 39.5939 46.5737 39.5678 46.5455 39.5401C46.2704 39.2651 46.2299 38.8227 46.4676 38.5013C50.2871 33.3183 54.2942 34.58 54.4627 34.6359ZM45.0067 53.8149L37.8906 46.6994L44.6506 39.9388L51.7667 47.0543L45.0067 53.8149Z" fill="#C30606"/>
<path d="M63.1762 27.0574C63.1762 27.0574 68.1384 18.3263 64.6835 17.8871C64.6835 17.8871 62.9641 17.6281 63.5061 21.1374C64.0477 24.6477 63.1842 26.8463 63.0504 27.1837" fill="#C30606"/>
<path d="M66.097 28.3458C66.097 28.3458 74.3692 28.2706 73.8837 32.3369C73.6816 33.4807 73.1023 32.9291 70.5886 30.2609C69.4416 29.2407 66.097 28.3458 66.097 28.3458Z" fill="#C30606"/>
<path d="M66.8672 26.5382C66.8672 26.5382 74.1528 24.5288 74.6709 26.8372C74.7657 27.5909 74.3244 27.6522 71.5144 26.8841C70.2422 26.5547 67.308 26.6629 66.8672 26.5382Z" fill="#C30606"/>
<path d="M70.7138 18.5459L73.3053 21.1368L69.8184 23.5876L68.2327 22.0008L70.7138 18.5459Z" fill="#C30606"/>
<path d="M75.6196 25.5345C76.0932 25.5345 76.4772 25.1506 76.4772 24.6769C76.4772 24.2033 76.0932 23.8193 75.6196 23.8193C75.1459 23.8193 74.762 24.2033 74.762 24.6769C74.762 25.1506 75.1459 25.5345 75.6196 25.5345Z" fill="#C30606"/>
<path d="M68.632 35.0874C69.1768 35.0874 69.6185 34.6457 69.6185 34.1008C69.6185 33.556 69.1768 33.1143 68.632 33.1143C68.0871 33.1143 67.6454 33.556 67.6454 34.1008C67.6454 34.6457 68.0871 35.0874 68.632 35.0874Z" fill="#C30606"/>
<path d="M61.2078 21.7567C61.6926 21.7567 62.0857 21.3637 62.0857 20.8788C62.0857 20.394 61.6926 20.001 61.2078 20.001C60.723 20.001 60.33 20.394 60.33 20.8788C60.33 21.3637 60.723 21.7567 61.2078 21.7567Z" fill="#C30606"/>
</svg>
