<svg width="142" height="80" viewBox="0 0 142 80" fill="none" xmlns="http://www.w3.org/2000/svg">
<path d="M132.086 79.045H108.154C105.015 79.045 102.242 77.355 100.608 74.7918C98.8415 77.266 96.0138 78.8724 92.8327 78.8724H9.68216C4.34369 78.8724 0 74.3472 0 68.7857V47.1605L1.66305 47.0998C5.76304 46.95 8.97454 43.6218 8.97454 39.5225C8.97454 35.4239 5.76304 32.0957 1.66237 31.9452L0 31.8838V10.2593C0 4.69714 4.34369 0.172587 9.68216 0.172587H92.8334C96.0138 0.172587 98.8422 1.77903 100.609 4.25324C102.242 1.68998 105.015 0 108.155 0H132.087C137.099 0 141.176 4.3064 141.176 9.6V17.2587H139.451C137.832 17.2587 136.517 18.5752 136.517 20.1927C136.517 21.8102 137.832 23.1267 139.451 23.1267H141.176V36.5885H139.451C137.832 36.5885 136.517 37.905 136.517 39.5225C136.517 41.14 137.832 42.4565 139.451 42.4565H141.176V55.9183H139.451C137.832 55.9183 136.517 57.2348 136.517 58.8523C136.517 60.4698 137.832 61.7863 139.451 61.7863H141.176V69.445C141.176 74.7379 137.099 79.045 132.086 79.045ZM102.516 68.785V69.4443C102.516 72.8346 105.046 75.5926 108.154 75.5926H132.086C135.195 75.5926 137.724 72.8346 137.724 69.4443V65.0005C135.039 64.246 133.064 61.7752 133.064 58.8516C133.064 55.928 135.039 53.4579 137.724 52.7027V45.6708C135.039 44.9162 133.064 42.4455 133.064 39.5218C133.064 36.5982 135.039 34.1281 137.724 33.3729V26.341C135.039 25.5864 133.064 23.1157 133.064 20.192C133.064 17.2684 135.039 14.7983 137.724 14.0431V9.59931C137.724 6.209 135.195 3.45106 132.086 3.45106H108.154C105.046 3.45106 102.516 6.209 102.516 9.59931V10.2586H99.0645C99.0645 6.59974 96.2692 3.62365 92.8334 3.62365H9.68216C6.24629 3.62365 3.45175 6.60043 3.45175 10.2586V28.6799C8.59968 29.645 12.4263 34.1247 12.4263 39.5218C12.4263 44.9204 8.60038 49.4 3.45175 50.3645V68.785C3.45175 72.4439 6.24698 75.42 9.68216 75.42H92.8334C96.2699 75.42 99.0645 72.4432 99.0645 68.785H102.516Z" fill="white"/>
<path d="M100.56 62.6821C99.6065 62.6821 98.834 61.9096 98.834 60.9562V56.0589C98.834 55.1055 99.6065 54.333 100.56 54.333C101.513 54.333 102.286 55.1055 102.286 56.0589V60.9562C102.286 61.9089 101.513 62.6821 100.56 62.6821Z" fill="white"/>
<path d="M100.56 50.0249C99.6065 50.0249 98.834 49.2524 98.834 48.299V43.4017C98.834 42.4483 99.6065 41.6758 100.56 41.6758C101.513 41.6758 102.286 42.4483 102.286 43.4017V48.299C102.286 49.2517 101.513 50.0249 100.56 50.0249Z" fill="white"/>
<path d="M100.56 37.3677C99.6065 37.3677 98.834 36.5952 98.834 35.6418V30.7444C98.834 29.7911 99.6065 29.0186 100.56 29.0186C101.513 29.0186 102.286 29.7911 102.286 30.7444V35.6418C102.286 36.5945 101.513 37.3677 100.56 37.3677Z" fill="white"/>
<path d="M100.56 24.7114C99.6064 24.7114 98.8339 23.9389 98.8339 22.9855V18.0882C98.8339 17.1348 99.6064 16.3623 100.56 16.3623C101.513 16.3623 102.286 17.1348 102.286 18.0882V22.9855C102.286 23.9382 101.513 24.7114 100.56 24.7114Z" fill="white"/>
<path d="M27.2437 41.7644L28.6241 32.7617H30.7298L28.455 45.4141H26.3281L24.659 36.9502L22.9899 45.4141H20.863L18.5883 32.7617H20.694L22.0814 41.747L23.7717 32.7617H25.5605L27.2437 41.7644Z" fill="white"/>
<path d="M38.7683 39.9308H34.7117V43.3198H39.4726V45.4141H32.5989V32.7617H39.4585V34.8733H34.7117V37.8887H38.7683V39.9308Z" fill="white"/>
<path d="M43.5461 43.3198H48.0322V45.4141H41.4333V32.7617H43.5461V43.3198Z" fill="white"/>
<path d="M57.5708 41.1995C57.491 42.5609 57.0825 43.6327 56.3454 44.4148C55.613 45.1968 54.6458 45.5879 53.4438 45.5879C52.1292 45.5879 51.0939 45.0433 50.338 43.9542C49.5868 42.8593 49.2112 41.3588 49.2112 39.4529V38.6795C49.2112 37.4629 49.3849 36.3911 49.7323 35.4642C50.0798 34.5373 50.5751 33.8276 51.2183 33.3352C51.8663 32.837 52.6175 32.5879 53.472 32.5879C54.6552 32.5879 55.6083 32.9789 56.3313 33.761C57.0544 34.5431 57.4722 35.6409 57.5849 37.0545H55.4721C55.4205 36.2376 55.235 35.6467 54.9157 35.2817C54.6012 34.911 54.1199 34.7256 53.472 34.7256C52.7677 34.7256 52.2395 35.0384 51.8874 35.6641C51.54 36.284 51.3615 37.2485 51.3522 38.5578V39.5137C51.3522 40.8809 51.5188 41.8802 51.8522 42.5117C52.1902 43.1431 52.7208 43.4589 53.4438 43.4589C54.0964 43.4589 54.5824 43.2764 54.9017 42.9114C55.2256 42.5407 55.4111 41.97 55.458 41.1995H57.5708Z" fill="white"/>
<path d="M68.1024 39.3747C68.1024 40.6202 67.924 41.7122 67.5672 42.6507C67.2104 43.5892 66.6986 44.3134 66.0319 44.8232C65.3699 45.333 64.6093 45.5879 63.7501 45.5879C62.9002 45.5879 62.142 45.3359 61.4753 44.8319C60.8086 44.3279 60.2921 43.6095 59.9259 42.6768C59.5597 41.7383 59.3742 40.6608 59.3695 39.4442V38.8185C59.3695 37.573 59.5503 36.478 59.9118 35.5337C60.278 34.5837 60.7921 33.8566 61.4542 33.3526C62.1209 32.8428 62.8815 32.5879 63.736 32.5879C64.5905 32.5879 65.3487 32.8428 66.0108 33.3526C66.6775 33.8566 67.1916 34.5837 67.5531 35.5337C67.9193 36.478 68.1024 37.5701 68.1024 38.8098V39.3747ZM65.9615 38.8011C65.9615 37.4745 65.769 36.4665 65.384 35.7771C64.999 35.0877 64.4496 34.743 63.736 34.743C63.027 34.743 62.48 35.0848 62.095 35.7684C61.71 36.4462 61.5152 37.4426 61.5105 38.7577V39.3747C61.5105 40.6665 61.703 41.6688 62.088 42.3813C62.473 43.0939 63.027 43.4502 63.7501 43.4502C64.459 43.4502 65.0037 43.1084 65.384 42.4248C65.7643 41.7354 65.9568 40.7332 65.9615 39.4181V38.8011Z" fill="white"/>
<path d="M73.1196 32.7617L75.7536 41.9382L78.3735 32.7617H81.1483V45.4141H79.0284V41.9555L79.2397 35.9856L76.4719 45.4141H75.0211L72.2604 35.9943L72.4717 41.9555V45.4141H70.3589V32.7617H73.1196Z" fill="white"/>
<path d="M89.884 39.9308H85.8274V43.3198H90.5883V45.4141H83.7146V32.7617H90.5742V34.8733H85.8274V37.8887H89.884V39.9308Z" fill="white"/>
</svg>
