<svg width="142" height="80" viewBox="0 0 142 80" fill="none" xmlns="http://www.w3.org/2000/svg">
<path d="M132.086 79.045H108.154C105.015 79.045 102.242 77.3557 100.608 74.7917C98.8415 77.266 96.0138 78.8724 92.8327 78.8724H9.68216C4.34369 78.8724 0 74.3471 0 68.7857V47.1612L1.66306 47.1005C5.76305 46.9506 8.97454 43.6225 8.97454 39.5225C8.97454 35.4239 5.76304 32.0957 1.66236 31.9445L0 31.8838V10.2593C0 4.69713 4.34369 0.172587 9.68216 0.172587H92.8334C96.0138 0.172587 98.8422 1.77902 100.609 4.25323C102.242 1.68927 105.015 0 108.155 0H132.087C137.099 0 141.176 4.30638 141.176 9.59998V17.2587H139.451C137.832 17.2587 136.517 18.5745 136.517 20.1927C136.517 21.8109 137.832 23.1267 139.451 23.1267H141.176V36.5885H139.451C137.832 36.5885 136.517 37.9043 136.517 39.5225C136.517 41.1407 137.832 42.4565 139.451 42.4565H141.176V55.9183H139.451C137.832 55.9183 136.517 57.2341 136.517 58.8523C136.517 60.4705 137.832 61.7863 139.451 61.7863H141.176V69.445C141.176 74.7386 137.099 79.045 132.086 79.045ZM102.516 68.7857V69.445C102.516 72.8353 105.046 75.5932 108.154 75.5932H132.086C135.195 75.5932 137.724 72.8353 137.724 69.445V65.0012C135.039 64.246 133.064 61.7752 133.064 58.8523C133.064 55.9293 135.039 53.4586 137.724 52.7033V45.6714C135.039 44.9162 133.064 42.4454 133.064 39.5225C133.064 36.5996 135.039 34.1288 137.724 33.3735V26.3416C135.039 25.5864 133.064 23.1157 133.064 20.1927C133.064 17.2698 135.039 14.799 137.724 14.0438V9.59998C137.724 6.20967 135.195 3.45175 132.086 3.45175H108.154C105.046 3.45175 102.516 6.20967 102.516 9.59998V10.2593H99.0645C99.0645 6.60042 96.2692 3.62433 92.8334 3.62433H9.68216C6.24629 3.62433 3.45175 6.60111 3.45175 10.2593V28.6805C8.59968 29.6457 12.4263 34.1253 12.4263 39.5225C12.4263 44.921 8.60037 49.4014 3.45175 50.3651V68.7857C3.45175 72.4445 6.24698 75.4207 9.68216 75.4207H92.8334C96.2699 75.4207 99.0645 72.4439 99.0645 68.7857H102.516V68.7857Z" fill="white"/>
<path d="M100.56 62.6821C99.6064 62.6821 98.8339 61.9096 98.8339 60.9562V56.0589C98.8339 55.1055 99.6064 54.333 100.56 54.333C101.513 54.333 102.286 55.1055 102.286 56.0589V60.9562C102.286 61.9096 101.513 62.6821 100.56 62.6821Z" fill="white"/>
<path d="M100.56 50.0249C99.6064 50.0249 98.8339 49.2524 98.8339 48.299V43.4017C98.8339 42.4483 99.6064 41.6758 100.56 41.6758C101.513 41.6758 102.286 42.4483 102.286 43.4017V48.299C102.286 49.2524 101.513 50.0249 100.56 50.0249Z" fill="white"/>
<path d="M100.56 37.3686C99.6064 37.3686 98.8339 36.5961 98.8339 35.6427V30.7454C98.8339 29.792 99.6064 29.0195 100.56 29.0195C101.513 29.0195 102.286 29.792 102.286 30.7454V35.6427C102.286 36.5961 101.513 37.3686 100.56 37.3686Z" fill="white"/>
<path d="M100.56 24.7114C99.6064 24.7114 98.8339 23.9389 98.8339 22.9856V18.0882C98.8339 17.1348 99.6064 16.3623 100.56 16.3623C101.513 16.3623 102.286 17.1348 102.286 18.0882V22.9856C102.286 23.9389 101.513 24.7114 100.56 24.7114Z" fill="white"/>
<path d="M35.8261 47.9755C36.8164 49.1614 37.4379 49.8327 38.6974 49.8327C39.9568 49.8327 40.5784 49.1621 41.5686 47.9755C42.6236 46.712 43.9363 45.1404 46.5322 45.1404C49.1295 45.1404 50.4428 46.7127 51.4978 47.9755C52.488 49.1614 53.1103 49.8327 54.3711 49.8327C55.6305 49.8327 56.2521 49.1621 57.2423 47.9755C58.2973 46.712 59.61 45.1404 62.2059 45.1404C64.8046 45.1404 66.1178 46.7127 67.1728 47.9755C68.1638 49.1614 68.7853 49.8327 70.0475 49.8327C71.3097 49.8327 71.9313 49.1621 72.9222 47.9755C72.9999 47.8822 73.0824 47.7854 73.1635 47.6893V38.6141C73.1635 37.5721 72.1834 36.7256 70.9751 36.7256H37.7773C36.569 36.7256 35.5883 37.5721 35.5883 38.6141V47.6947C35.668 47.7895 35.7498 47.8835 35.8261 47.9755Z" fill="white"/>
<path d="M70.0475 52.5585C67.4495 52.5585 66.1369 50.9862 65.0812 49.7234C64.0903 48.5375 63.4681 47.8662 62.2059 47.8662C60.9464 47.8662 60.3249 48.5368 59.3346 49.7234C58.2796 50.9869 56.967 52.5585 54.3711 52.5585C51.7738 52.5585 50.4605 50.9862 49.4055 49.7234C48.4152 48.5375 47.793 47.8662 46.5322 47.8662C45.2727 47.8662 44.6512 48.5368 43.6609 49.7234C42.6059 50.9869 41.2933 52.5585 38.6974 52.5585C37.3705 52.5585 36.3816 52.1462 35.5883 51.5751V59.5244C35.5883 60.5664 36.5683 61.4122 37.7773 61.4122H70.9751C72.1834 61.4122 73.1635 60.5671 73.1635 59.5244V51.571C72.3688 52.1428 71.3785 52.5585 70.0475 52.5585Z" fill="white"/>
<path d="M46.982 24.6465H42.9501V34.4502H46.982V24.6465Z" fill="white"/>
<path d="M47.3227 21.1803C47.3227 22.7055 46.2677 23.9439 44.966 23.9439C43.6649 23.9439 42.6093 22.7062 42.6093 21.1803C42.6093 19.6536 44.966 17.4121 44.966 17.4121C44.966 17.4121 47.3227 19.6536 47.3227 21.1803Z" fill="white"/>
<path d="M56.3925 24.6465H52.3599V34.4502H56.3925V24.6465Z" fill="white"/>
<path d="M56.7332 21.1803C56.7332 22.7055 55.6782 23.9439 54.3764 23.9439C53.0747 23.9439 52.019 22.7062 52.019 21.1803C52.019 19.6536 54.3764 17.4121 54.3764 17.4121C54.3764 17.4121 56.7332 19.6536 56.7332 21.1803Z" fill="white"/>
<path d="M65.8022 24.6465H61.7697V34.4502H65.8022V24.6465Z" fill="white"/>
<path d="M66.1431 21.1803C66.1431 22.7055 65.0874 23.9439 63.7857 23.9439C62.484 23.9439 61.429 22.7062 61.429 21.1803C61.429 19.6536 63.7857 17.4121 63.7857 17.4121C63.7857 17.4121 66.1431 19.6536 66.1431 21.1803Z" fill="white"/>
</svg>
