<svg width="112" height="42" viewBox="0 0 112 42" fill="none" xmlns="http://www.w3.org/2000/svg">
<path d="M24.0552 40.5061C24.7378 40.932 25.5606 41.0713 26.3451 40.8938C26.6996 40.7122 26.9761 40.4079 27.1234 40.0376C27.175 39.8253 27.1521 39.6017 27.0587 39.4043C26.9652 39.2069 26.8068 39.0476 26.61 38.9532C25.8149 38.5979 24.7064 38.5178 24.3665 37.5152C24.3601 37.1388 24.4458 36.7665 24.6162 36.4309C24.9921 36.1774 25.4243 36.0199 25.8751 35.9723C26.3258 35.9248 26.7813 35.9885 27.2018 36.158C27.4352 36.3345 27.326 36.6752 27.279 36.9005C26.6721 36.706 25.9079 36.3675 25.301 36.7884C25.1675 36.8608 25.068 36.9831 25.0244 37.1287C24.9808 37.2742 24.9965 37.4311 25.0681 37.5651C26.0199 38.3082 28.1205 38.2757 27.7622 40.1676C27.6657 40.5204 27.4709 40.8385 27.2005 41.0847C26.9302 41.3309 26.5954 41.495 26.2354 41.5579C25.4714 41.7085 24.6788 41.5577 24.0233 41.137C23.9859 41.0353 23.9694 40.9271 23.9749 40.8188C23.9804 40.7106 24.0077 40.6046 24.0552 40.5072" fill="#BEBCBC"/>
<path d="M30.0359 36.0094C31.1876 35.8648 32.1691 36.1214 33.2592 36.0901C33.3116 36.1676 33.3459 36.256 33.3595 36.3487C33.373 36.4413 33.3655 36.5359 33.3376 36.6252C32.8085 36.8029 32.0913 36.3977 31.8427 36.9805L31.7643 41.5231C31.5924 41.5881 31.2817 41.5881 31.2346 41.36V36.7379L31.1227 36.6258H29.7834C29.6586 36.4297 29.6278 35.8653 30.0331 36.0094" fill="#BEBCBC"/>
<path d="M35.7177 36.1253C36.8078 36.0132 37.7266 36.1886 38.8167 36.1253C38.9421 36.2542 38.895 36.4615 38.9421 36.6268L38.8167 36.7064L36.3879 36.74C36.2731 36.9853 36.22 37.255 36.2334 37.5255C36.2468 37.796 36.3261 38.0591 36.4646 38.2918C37.2457 38.2079 38.033 38.1972 38.8161 38.2598C38.9566 38.3719 38.8782 38.5961 38.8945 38.7603L38.7859 38.8415C37.913 39.0024 37.1337 38.6796 36.3224 38.9536C36.1365 39.5527 36.3537 40.1349 36.2754 40.813C36.5721 41.1038 37.0861 40.9099 37.3951 41.0063L37.5821 40.9419L38.8139 40.9744C39.016 41.1038 38.9258 41.3784 38.8922 41.5572C37.8236 41.6134 36.7528 41.6134 35.6841 41.5572C35.809 39.6485 35.5901 38.0827 35.7149 36.1258" fill="#BEBCBC"/>
<path d="M44.0992 38.5647C43.7833 38.5918 43.4652 38.5536 43.1647 38.4526C43.2641 37.9635 43.466 37.5011 43.7571 37.0959C43.9797 37.5236 44.1417 37.9802 44.2386 38.4526L44.0992 38.5647ZM46.0772 41.2804C45.3914 39.5179 44.7693 37.7241 43.9905 36.0127C43.7879 35.9802 43.4603 35.8832 43.3052 36.0934C42.6507 37.8866 41.9968 39.6989 41.3737 41.5258C41.4672 41.7348 41.6536 41.5734 41.8563 41.6379C42.3395 40.8786 42.3702 39.9085 42.976 39.2282L44.579 39.2607C45.047 39.9724 45.1562 40.8298 45.5442 41.5583L45.8874 41.5908C46.0587 41.6059 46.0907 41.4457 46.075 41.2832L46.0772 41.2804Z" fill="#BEBCBC"/>
<path d="M48.9113 36.1576C49.067 36.2058 49.4247 35.8982 49.441 36.2849C49.5031 36.9646 49.3016 37.6769 49.4723 38.2591H49.6599C50.4224 37.5149 51.0596 36.885 51.793 36.1576L52.5097 36.2058V36.3504C51.6957 37.064 50.9307 37.8316 50.2198 38.648C50.8272 39.6988 51.8552 40.587 52.4033 41.6377C52.2922 41.6938 52.1694 41.723 52.045 41.723C51.9205 41.723 51.7978 41.6938 51.6866 41.6377C51.0635 40.7002 50.2869 39.8277 49.5994 38.9221C49.3973 38.8576 49.4135 39.0846 49.3659 39.1983L49.2887 41.5907C49.1325 41.6377 48.8525 41.687 48.7741 41.5257C48.7282 39.6988 48.852 37.9845 48.9141 36.1593" fill="#BEBCBC"/>
<path d="M55.234 36.1247C55.3264 35.9779 55.514 36.076 55.6383 36.0435C56.0134 36.6599 55.5459 37.5633 55.9042 38.2251C56.7284 38.3372 57.5239 38.1606 58.3806 38.2251L58.5676 37.9824C58.614 37.3201 58.5827 36.8521 58.5967 36.2054C58.7383 36.1247 58.9248 36.0267 59.081 36.1247C59.2534 38.0474 59.081 39.6154 59.081 41.5236C58.935 41.5709 58.782 41.5929 58.6286 41.5886L58.5211 41.4434C58.5961 40.6039 58.5855 39.759 58.4892 38.9217C57.6309 38.8256 56.7655 38.8093 55.9042 38.8729L55.7631 39.0668L55.6853 41.5247C55.5767 41.6541 55.3902 41.5723 55.234 41.5897L55.1568 41.4445C55.1254 39.4551 55.2027 37.8065 55.234 36.1264" fill="#BEBCBC"/>
<path d="M65.8868 39.4534C65.766 39.8243 65.5502 40.1569 65.2609 40.4183C64.9715 40.6796 64.6189 40.8605 64.2379 40.9429C63.9151 40.9844 63.5871 40.9457 63.2827 40.8303C62.9784 40.7149 62.7071 40.5263 62.4928 40.2811C62.2602 39.9675 62.1051 39.6032 62.0401 39.2181C61.9751 38.833 62.0021 38.438 62.1188 38.0653C62.2567 37.5581 62.5715 37.1172 63.0062 36.8223C63.3471 36.6566 63.7244 36.58 64.1028 36.5996C64.4813 36.6192 64.8487 36.7343 65.1707 36.9344C65.5023 37.2538 65.7433 37.6555 65.8691 38.0985C65.9949 38.5415 66.001 39.01 65.8868 39.4562V39.4534ZM65.7014 36.5147C65.2903 36.1835 64.7922 35.9783 64.2673 35.9238C63.7423 35.8693 63.2128 35.9679 62.7425 36.2076C62.3897 36.4199 62.087 36.7061 61.8551 37.0465C61.6232 37.3868 61.4675 37.7734 61.3988 38.1796C61.2786 38.7607 61.3312 39.3643 61.5501 39.9158C61.7691 40.4672 62.1447 40.9424 62.6305 41.2825C63.4558 41.6227 64.5929 41.8323 65.3566 41.25C65.693 40.9998 65.9763 40.6852 66.1902 40.3244C66.404 39.9637 66.5441 39.564 66.6023 39.1485C66.6571 38.6699 66.6044 38.1851 66.4482 37.7294C66.292 37.2738 66.0361 36.8588 65.6992 36.5147H65.7014Z" fill="#BEBCBC"/>
<path d="M69.2204 36.0433C69.3323 35.8656 69.4701 36.0757 69.6257 36.0102L69.7343 36.157L69.7814 39.9234C69.8288 40.1086 69.9161 40.2811 70.037 40.429C70.158 40.5769 70.3098 40.6966 70.4818 40.7797C70.7152 41.0039 70.9957 40.7472 71.2281 40.973C71.5184 40.9234 71.7901 40.7968 72.015 40.6065C72.2398 40.4162 72.4097 40.1691 72.5069 39.8909L72.5365 36.0433C72.6485 35.9132 72.8641 35.9625 72.9889 36.0102L73.1009 36.2052L73.0695 40.0366C73.0208 40.3439 72.8954 40.6339 72.705 40.8797C72.5145 41.1256 72.2652 41.3194 71.98 41.4432C71.5682 41.5926 71.1229 41.6245 70.694 41.5355C70.265 41.4464 69.8692 41.2399 69.5507 40.9388C69.3216 40.6146 69.1817 40.2359 69.1448 39.8405L69.2232 36.0416" fill="#BEBCBC"/>
<path d="M75.7615 40.4715C76.4943 40.8274 77.398 41.1188 78.193 40.666C78.3925 40.5411 78.5488 40.3578 78.6405 40.1409C78.7323 39.924 78.7551 39.6841 78.7059 39.4538C78.02 38.2737 75.4356 38.8066 76.1355 36.7079C76.29 36.4627 76.5036 36.2602 76.7567 36.1191C77.0098 35.978 77.2942 35.9028 77.5839 35.9004C78.0357 35.9805 78.5821 35.9486 78.8929 36.2871L78.8615 36.8222C78.3168 36.6765 77.5374 36.4182 76.9462 36.7415C76.5878 36.9024 76.7133 37.3389 76.8342 37.5978C77.6908 38.2451 79.4046 38.2143 79.31 39.7806C79.3134 40.1101 79.2231 40.4339 79.0496 40.714C78.8761 40.9941 78.6266 41.219 78.3302 41.3626C77.9195 41.5413 77.4723 41.6199 77.0254 41.5919C76.5784 41.564 76.1445 41.4302 75.7592 41.2017C75.7592 40.9607 75.5913 40.7007 75.7592 40.4732" fill="#BEBCBC"/>
<path d="M82.177 36.0113C83.331 35.8992 84.0459 36.0601 85.2144 36.0113C85.2938 36.1784 85.3052 36.3699 85.2463 36.5454L82.7392 36.7067C82.6297 37.1525 82.6297 37.6182 82.7392 38.064C83.5612 38.1506 84.3884 38.1783 85.2144 38.147C85.2624 38.2353 85.2902 38.3332 85.2957 38.4336C85.3012 38.5341 85.2843 38.6345 85.2463 38.7275L82.7067 38.8082C82.5208 39.4073 82.7392 40.1179 82.6759 40.6676L82.9239 40.8609L85.2463 40.9422C85.2754 41.1042 85.37 41.3972 85.1674 41.525H82.2241L82.1166 41.4415V36.1234L82.177 36.0113Z" fill="#BEBCBC"/>
<path d="M89.3697 37.4913C89.6497 37.4913 90.0617 37.539 90.0617 37.1215C90.0617 36.8032 89.8098 36.7639 89.5662 36.7639H89.0002V37.4925H89.3697V37.4913ZM90.3002 38.6351H90.0091L89.4442 37.6903H89.0002V38.6351H88.7572V36.5841H89.6222C90.1463 36.5841 90.3238 36.7886 90.3238 37.1271C90.3238 37.5294 90.0522 37.6802 89.7012 37.6875L90.2997 38.6323L90.3002 38.6351ZM90.9032 37.609C90.883 37.3181 90.7783 37.0395 90.602 36.8073C90.4256 36.5752 90.1853 36.3998 89.9107 36.3026C89.636 36.2054 89.3389 36.1906 89.056 36.2602C88.7731 36.3298 88.5166 36.4806 88.3182 36.6942C88.1198 36.9077 87.9881 37.1746 87.9393 37.4621C87.8905 37.7496 87.9267 38.0451 88.0435 38.3123C88.1603 38.5794 88.3526 38.8066 88.5966 38.9658C88.8407 39.125 89.126 39.2093 89.4173 39.2084C89.6213 39.2057 89.8226 39.1617 90.009 39.0789C90.1955 38.9961 90.3632 38.8764 90.5021 38.7269C90.641 38.5774 90.7482 38.4012 90.8171 38.2091C90.8861 38.017 90.9154 37.8128 90.9032 37.609V37.609ZM87.6419 37.609C87.6554 37.2616 87.7706 36.9259 87.9732 36.6435C88.1758 36.3611 88.4569 36.1445 88.7814 36.0206C89.106 35.8968 89.4597 35.8712 89.7987 35.9469C90.1377 36.0227 90.447 36.1965 90.6881 36.4467C90.9292 36.697 91.0915 37.0126 91.1549 37.3544C91.2183 37.6963 91.1799 38.0492 91.0445 38.3693C90.9091 38.6895 90.6826 38.9628 90.3934 39.1552C90.1041 39.3476 89.7646 39.4507 89.4173 39.4516C89.1798 39.4475 88.9454 39.3966 88.7276 39.3017C88.5098 39.2069 88.3128 39.07 88.1479 38.8988C87.9829 38.7277 87.8534 38.5257 87.7666 38.3043C87.6798 38.083 87.6374 37.8467 87.6419 37.609Z" fill="#BEBCBC"/>
<path d="M71.9363 22.4062C72.3226 22.4421 73.0975 22.2594 73.2727 22.8433C73.4934 23.5139 73.5883 24.2195 73.5526 24.9246C72.9547 25.2894 72.4273 26.0566 71.761 25.3617C71.0237 25.0692 71.41 24.3031 71.4453 23.7186C72.079 23.5001 71.8327 22.8439 71.9374 22.4062H71.9363ZM55.3358 18.8808C56.0553 18.7799 56.8733 18.8124 57.1997 19.6283C57.2249 20.1188 57.1051 20.6057 56.8552 21.0284C56.6054 21.451 56.2365 21.7905 55.7949 22.0044C55.4685 21.9013 55.076 21.8329 54.9433 21.4266C54.8135 20.5788 54.356 19.4238 55.3353 18.8808H55.3358ZM55.1264 24.5144C55.6829 24.7694 56.2395 24.2903 56.7031 24.7386C57.2881 25.411 57.1342 26.4371 56.857 27.2043C56.7031 27.5579 56.3621 28.0062 55.9612 28.0393C55.5917 27.9109 55.0027 27.911 54.912 27.3668C54.5402 26.4046 54.9417 25.4105 55.127 24.5133L55.1264 24.5144ZM6.70966 21.6172C7.21691 20.9895 7.70457 20.3008 8.50575 20.0979C9.44187 20.2201 10.0275 20.9279 10.6131 21.6172C10.8901 22.9453 10.7752 24.3254 10.2823 25.5892C9.91106 26.0751 9.38645 26.6411 8.74035 26.6209C7.80367 26.8641 7.29586 26.0958 6.86699 25.4441C6.74941 24.4718 6.47507 23.5388 6.71078 22.5861V21.6127L6.70966 21.6172ZM93.9659 28.0129C93.969 27.7926 93.9877 27.5727 94.0219 27.355C94.0468 27.2023 94.0617 27.048 94.0667 26.8933C94.0694 26.8328 94.0599 26.7723 94.0387 26.7156C93.9564 26.7055 93.8578 26.6966 93.8578 26.6966C93.7493 26.6723 93.6382 26.661 93.5269 26.663L93.5365 26.6596L93.331 26.742L92.0992 26.826C91.2659 26.9448 90.4192 26.9352 89.5887 26.7974L89.4913 26.7778L87.8749 25.9159L87.7798 25.7574C87.3996 25.134 87.1906 24.4213 87.174 23.6912C87.1692 23.2529 87.2751 22.8206 87.4819 22.4342C87.4748 22.4449 87.4683 22.4559 87.4623 22.4673L87.4948 22.4006C87.4897 22.4115 87.4853 22.4227 87.4819 22.4342C87.8031 21.8458 88.3126 21.3825 88.9287 21.119L89.3698 20.8629C89.6592 20.5988 90.0078 20.4085 90.3862 20.3079C90.7647 20.2073 91.1618 20.1995 91.5438 20.2851C91.859 20.3428 92.1825 20.3376 92.4956 20.27C92.9003 20.1144 93.3437 20.0904 93.7627 20.2016C93.8561 20.2206 93.9508 20.2332 94.0459 20.2392C94.0566 20.1883 94.0644 20.1368 94.0695 20.0851C94.0638 19.8898 94.047 19.695 94.0191 19.5017C93.9837 19.2585 93.9641 19.0133 93.9603 18.7676C93.9626 18.5572 93.9908 18.3479 94.0443 18.1444C93.9916 17.9226 93.9645 17.6955 93.9636 17.4675C93.9636 17.3122 93.972 17.1553 93.9788 17.0023C93.9855 16.8494 93.9894 16.7098 93.9894 16.5854C94.0044 16.3744 93.9575 16.1637 93.8545 15.9791C93.8394 15.9791 93.794 15.9723 93.794 15.9723C93.5141 15.9387 93.3735 15.9281 93.3097 15.9835L93.0902 16.1791L92.7963 16.15C92.4303 16.1265 92.0629 16.1413 91.7 16.1942C91.128 16.2738 90.5468 16.2604 89.979 16.1545L88.7327 16.3041C87.3481 16.4352 86.0391 16.5596 85.2323 17.5627L85.1075 17.7157L84.9227 17.7779C84.168 18.0346 83.6417 18.8275 83.1311 19.5942L82.9978 19.7948L82.9077 19.8648C81.9122 20.6208 81.8618 21.7786 81.8042 23.1207C81.8042 23.1207 81.7213 24.1569 81.6995 24.4444C81.9819 25.0929 82.1566 25.7832 82.2168 26.4881C82.4569 27.3978 82.9803 28.2073 83.7111 28.7992L83.8981 28.9415L83.9541 29.1657C84.042 29.5182 84.407 29.7373 84.9916 30.0567C85.3272 30.2256 85.6447 30.4282 85.9394 30.6614L86.0139 30.7219L86.0699 30.8031C86.1774 30.9662 86.4321 30.992 86.945 31.0094C87.2791 31.0186 87.6108 31.0679 87.9332 31.1562C88.4215 30.99 88.951 30.99 89.4393 31.1562C89.6479 31.2295 89.8692 31.26 90.0898 31.2459L90.1962 31.2234L90.302 31.2346C90.5226 31.2361 90.742 31.2024 90.952 31.1349C91.5003 30.9486 92.0989 30.9788 92.6255 31.2195C92.8232 31.2016 93.0628 31.182 93.0628 31.182C93.3639 31.1857 93.6628 31.1299 93.9424 31.0178C93.9996 30.8016 94.0262 30.5784 94.0213 30.3548C94.0213 30.2652 94.0213 30.1738 94.0213 30.0808C94.0213 29.9878 94.0174 29.8802 94.0174 29.7776C94.0176 29.4394 94.0576 29.1023 94.1367 28.7734C94.0302 28.5332 93.9731 28.274 93.9687 28.0113L93.9659 28.0129ZM61.7873 24.3827C61.6781 23.9955 61.6255 23.8632 61.4262 23.7663L60.8663 23.4984L61.0836 22.9184C61.2361 22.5587 61.4397 22.2229 61.6882 21.9215C62.0023 21.5051 62.1591 21.2697 62.1591 21.0248C62.1587 20.9681 62.1512 20.9116 62.1367 20.8567L62.0494 20.5261L62.2649 20.2593C62.429 20.0272 62.5081 19.7456 62.4889 19.4619C62.4794 19.1826 62.4419 18.9049 62.3769 18.6331C62.2548 18.442 62.0186 18.0632 62.0186 18.0632C61.5471 17.2556 61.2907 16.8992 60.7919 16.883L60.5119 16.874L60.3199 16.6627C59.8305 16.1276 58.8547 16.1741 58.0703 16.2111H58.0143C57.1137 16.3355 56.2004 16.337 55.2994 16.2155C54.6 16.3649 53.8796 16.3886 53.1719 16.2856C52.703 16.2258 52.2294 16.211 51.7576 16.2413C51.516 16.3842 51.2423 16.4635 50.9618 16.4719C50.6813 16.4803 50.4033 16.4176 50.1536 16.2895C50.0482 16.2429 49.9399 16.2032 49.8294 16.1707C49.8294 16.1707 49.7801 16.2189 49.7661 16.2352C49.7555 16.2443 49.7472 16.2558 49.7417 16.2687C49.7363 16.2817 49.7339 16.2957 49.7348 16.3097C49.7487 16.4245 49.7757 16.5373 49.8154 16.6459C49.8963 16.8807 49.9416 17.1262 49.9498 17.3744C49.9394 17.6343 49.8553 17.8858 49.7073 18.0996C49.6673 18.228 49.6473 18.3618 49.648 18.4963C49.6747 18.9139 49.7596 19.3257 49.9005 19.7197L49.9772 19.9769L49.8971 20.1899C49.7233 20.685 49.639 21.2073 49.648 21.732C49.6501 22.1678 49.6919 22.6024 49.7729 23.0305L49.8014 23.184L49.7594 23.3348C49.6467 23.7761 49.5933 24.2305 49.6004 24.6859C49.6139 25.4243 49.6916 26.16 49.8328 26.8849L49.8832 27.1701L49.7101 27.4044C49.5767 27.6337 49.5145 27.8977 49.5315 28.1626C49.5324 28.5026 49.5905 28.84 49.7034 29.1606L49.8283 29.5002L49.6144 29.7939C49.4461 30.0858 49.3652 30.42 49.3815 30.7566C49.3807 30.9772 49.4175 31.1962 49.4901 31.4044C50.2955 31.4761 51.107 31.3838 51.8758 31.1332L52.1098 31.0441L52.3449 31.1304C53.0751 31.3822 53.8683 31.3822 54.5985 31.1304L54.921 31.0133L55.2048 31.2033C55.3521 31.2547 55.5068 31.2816 55.6628 31.2828L56.0172 31.3316C56.7165 31.2146 57.4284 31.1926 58.1335 31.266C58.5511 31.3061 58.9709 31.3162 59.3899 31.2963L61.1983 30.7096C61.5527 30.57 61.7022 30.2164 61.9144 29.651C62.0276 29.3119 62.1778 28.9864 62.3623 28.6804L62.4922 28.4803L62.6467 28.4304C62.6607 28.389 62.7027 28.2802 62.715 28.2349C62.7044 28.1149 62.691 27.995 62.691 27.8785C62.691 27.591 62.7173 27.3119 62.7419 27.0547C62.7666 26.7975 62.7856 26.5766 62.7856 26.3822C62.7989 26.1267 62.7358 25.873 62.6042 25.6537C62.1861 25.3428 61.8962 24.8895 61.789 24.3793L61.7873 24.3827ZM110.87 28.872C110.863 28.6516 110.836 28.4322 110.791 28.2164C110.731 27.921 110.698 27.621 110.691 27.3197C110.695 27.1555 110.714 26.9919 110.747 26.8311L110.088 26.3306C109.466 25.7846 108.746 25.3622 107.966 25.086L107.569 24.965L107.401 24.2505C107.301 23.8989 107.244 23.5362 107.233 23.1706C107.234 22.9177 107.279 22.6669 107.367 22.4297C107.358 22.4479 107.351 22.4666 107.345 22.4858L107.374 22.386C107.371 22.4006 107.368 22.4154 107.367 22.4303C107.538 21.9363 107.89 21.5257 108.352 21.2809C108.352 21.2809 108.393 21.2546 108.429 21.2288C108.791 20.5794 109.33 20.0458 109.982 19.6894C110.361 19.4806 110.689 19.1886 110.94 18.8354C110.838 18.6172 110.681 18.4296 110.484 18.2912L110.288 18.1287L110.245 17.8782C110.127 17.1637 109.317 16.6672 108.604 16.2301L108.462 16.1421L108.317 16.1645C107.722 16.2391 107.657 16.2934 107.624 16.4296L107.54 16.7709L107.213 16.897C106.544 17.2203 105.992 17.745 105.635 18.3977L105.485 18.6476L105.2 18.7104C105.127 18.7272 105.003 18.8937 104.895 19.0394C104.65 19.4526 104.256 19.7557 103.794 19.8856L103.45 19.9607L103.192 19.7219C103.063 19.5994 102.96 19.4516 102.89 19.2877C102.821 19.1239 102.785 18.9474 102.786 18.7693C102.613 18.4986 102.516 18.186 102.506 17.8648C102.517 17.5491 102.569 17.2363 102.661 16.934C102.728 16.7199 102.768 16.4984 102.781 16.2744C102.779 16.246 102.776 16.2178 102.772 16.1898C102.647 16.0323 102.432 16.0216 101.652 16.2161C101.299 16.3201 100.936 16.3809 100.569 16.3971H100.132L100.017 16.1427C100.008 16.1427 99.9896 16.1365 99.9734 16.1337C99.4884 16.3001 98.9651 16.3196 98.469 16.1898C98.3184 16.1606 98.1823 16.1466 98.0468 16.1337C98.0368 16.2088 98.0245 16.2828 98.0245 16.2828C98.0245 16.2828 98.0133 16.3697 98.0043 16.4391C98.0702 16.6874 98.1078 16.9423 98.1163 17.199C98.1092 17.5475 98.0793 17.8951 98.0267 18.2397C97.9828 18.5277 97.9568 18.8182 97.9489 19.1094C97.9422 19.3553 97.9878 19.5998 98.0827 19.8267L98.1823 20.0604L98.1079 20.3036C97.9762 20.7207 97.9079 21.1551 97.9052 21.5925C97.9016 21.8635 97.937 22.1336 98.0105 22.3944L98.0435 22.4914L98.0021 24.1832L97.9629 27.4531L98.0004 27.865C98.0296 28.0636 98.0461 28.2639 98.0497 28.4646C98.0511 28.6845 98.0157 28.9031 97.945 29.1113C97.888 29.4158 97.8597 29.725 97.8604 30.0348C97.8664 30.4417 97.9038 30.8476 97.9724 31.2487C98.0284 31.2307 98.0877 31.2145 98.0877 31.2145C98.3769 31.0904 98.6914 31.0364 99.0054 31.057L99.1801 31.0772L99.3228 31.1786C99.4311 31.2342 99.5543 31.2539 99.6744 31.2346L100.122 31.0962C100.122 31.0962 100.203 31.1876 100.283 31.2767C100.317 31.2767 100.339 31.2767 100.385 31.2733C100.63 31.0901 100.923 30.9829 101.228 30.9652C101.533 30.9475 101.837 31.0199 102.102 31.1736C102.464 31.3417 102.493 31.3232 102.565 31.2716L102.691 31.2005C102.674 31.1254 102.643 31.0172 102.617 30.932C102.516 30.6604 102.459 30.3743 102.449 30.0847C102.448 29.8335 102.508 29.5858 102.625 29.3635L102.67 29.2811L102.736 29.2111C102.788 29.1027 102.808 28.9817 102.792 28.8625C102.792 28.7891 102.792 28.7123 102.787 28.6428C102.787 28.5526 102.782 28.4624 102.782 28.3682C102.772 28.074 102.823 27.7809 102.932 27.5075L103.191 26.9112L103.797 27.1471C104.268 27.3704 104.662 27.7285 104.929 28.176L105.113 28.4265L105.029 28.3385L105.793 29.1404C106.057 29.4663 106.357 29.7607 106.689 30.018C106.987 30.0468 107.277 30.1394 107.537 30.2896C107.797 30.4399 108.021 30.6442 108.196 30.8889C108.433 31.1596 108.578 31.3153 108.766 31.3434L108.967 31.4089L109.079 31.4756C109.208 31.4884 109.339 31.4832 109.466 31.4599C109.8 31.3939 110.145 31.4173 110.466 31.5277L110.51 31.5457C110.51 31.5457 110.554 31.5703 110.557 31.5726C110.579 31.2921 110.63 31.0148 110.71 30.7449C110.771 30.5618 110.808 30.3719 110.822 30.1794C110.822 30.0875 110.803 29.9965 110.766 29.9127L110.64 29.6252L110.777 29.345C110.849 29.1989 110.884 29.0379 110.88 28.8754L110.87 28.872ZM80.4493 30.4069C80.0517 29.7026 79.755 28.9457 79.568 28.1586C79.4201 27.5021 79.1869 26.8677 78.8743 26.2718L78.7965 26.1384L78.7859 25.9826C78.7252 25.3639 78.4811 24.7774 78.0849 24.2987L78.1588 24.3799C77.9657 24.1772 77.8213 23.9331 77.7365 23.6662C77.6517 23.3993 77.6288 23.1165 77.6694 22.8394C77.679 22.567 77.679 22.3961 77.6135 22.3171C77.3 22.016 77.0532 21.6524 76.8893 21.2497C76.7253 20.847 76.6478 20.4143 76.6617 19.9797C76.6658 19.5537 76.5737 19.1323 76.3924 18.7468C76.1177 18.3183 75.9496 17.8303 75.9019 17.3234C75.876 17.0534 75.8046 16.7896 75.6908 16.5434L75.669 16.5008L75.65 16.4554C75.538 16.1724 75.5195 16.1276 74.7788 16.2564C74.317 16.3522 73.8404 16.351 73.3791 16.2531C73.2915 16.2615 73.2032 16.2554 73.1176 16.2352L72.9939 16.271C72.5974 16.4208 72.1592 16.4168 71.7655 16.2598C71.5472 16.2699 70.8221 16.3002 70.8221 16.3002C70.0076 16.3906 69.1844 16.3648 68.3771 16.2234C68.3452 16.2402 68.3027 16.2587 68.3027 16.2587C68.1175 16.3821 67.8986 16.4449 67.6762 16.4384C67.4539 16.4319 67.239 16.3563 67.0614 16.2223C66.9567 16.1942 66.8811 16.1758 66.8526 16.1662C66.7778 16.3303 66.7377 16.5082 66.735 16.6885C66.7349 16.7901 66.7458 16.8913 66.7675 16.9906C66.8893 17.2656 66.9537 17.5628 66.9567 17.8637C66.9479 18.1913 66.9061 18.5172 66.8319 18.8365C66.7792 19.0608 66.7468 19.2895 66.735 19.5196C66.7321 19.6639 66.7781 19.8049 66.8654 19.9197C66.9396 19.9311 67.0144 19.9371 67.0894 19.9377C67.3264 19.9198 67.5644 19.957 67.7847 20.0465C68.005 20.1359 68.2016 20.2751 68.3592 20.4532L68.5182 20.7032L68.5037 21.4877C68.5037 21.5611 68.5037 21.6357 68.5037 21.7119C68.5547 22.414 68.3398 23.1096 67.9018 23.6604C67.8481 24.17 67.6846 24.662 67.4225 25.1023C67.2506 25.3581 67.142 25.6512 67.1056 25.9574C67.1056 25.977 67.1056 25.9961 67.109 26.0135L67.1353 26.3318L66.9069 26.5559C66.4968 27.0766 66.2408 27.702 66.1678 28.3609L66.0508 28.8849C66.0508 28.8849 65.9153 28.8984 65.7838 28.9096C65.714 29.4639 65.5108 29.993 65.1914 30.4512C65.0172 30.7126 64.8897 31.0024 64.8146 31.3075C64.9297 31.2981 65.0442 31.283 65.1578 31.2621C65.4546 31.2045 65.7582 31.1896 66.0592 31.2178C66.4157 31.1 66.7967 31.0778 67.1644 31.1534C67.1644 31.1534 67.2971 31.1663 67.399 31.178C67.8486 31.0011 68.3468 30.9928 68.8021 31.1545C69.1066 31.2403 69.185 31.2335 69.2466 31.1988C69.2864 31.1309 69.3164 31.0577 69.3356 30.9813L69.4017 30.6815L69.5949 30.5017L69.68 30.3038C69.7684 29.9976 69.9399 29.722 70.1754 29.5075L70.2001 29.4862L70.2258 29.4683C71.2627 28.7398 72.5544 28.8743 73.5924 28.9819L73.7805 28.9998C75.0246 28.951 75.5833 30.0998 75.9187 30.7931C75.9187 30.7931 75.9685 30.89 76.0167 30.9864C76.1932 31.0328 76.3772 31.0433 76.5578 31.0172C76.7384 30.9912 76.912 30.929 77.0681 30.8345L77.4304 30.6244L77.7786 30.8553C78.1067 31.0727 78.521 31.0127 79.1638 30.8889L80.0881 30.7208C80.0881 30.7208 80.1704 30.9062 80.2359 31.0486L80.3429 31.0677C80.4116 31.0368 80.4741 30.9935 80.5271 30.9399C80.5178 30.781 80.4952 30.6231 80.4593 30.468L80.447 30.4041L80.4493 30.4069ZM46.1168 15.9847L46.2031 15.9527C46.1661 15.969 46.1308 15.9723 46.0944 15.9869H46.1168V15.9847ZM32.4558 28.9415L32.3684 28.8188L32.3656 27.8168C32.3656 27.6795 32.3684 27.5416 32.3684 27.4044C32.4027 26.8368 32.3121 26.2687 32.103 25.74L31.9278 25.3769L32.1629 25.0507C32.357 24.7577 32.4514 24.4098 32.4322 24.0588C32.422 23.702 32.3877 23.3463 32.3298 22.9941L32.2178 22.0268C32.2178 22.0268 32.3858 21.5594 32.4317 21.4283C32.4378 21.3269 32.4423 21.226 32.4423 21.1246C32.4328 20.6649 32.3954 20.2062 32.3303 19.7511C32.265 19.2858 32.2276 18.817 32.2184 18.3473C32.2183 17.955 32.268 17.5642 32.3662 17.1845C32.3511 16.9553 32.3219 16.4935 32.3219 16.4924C32.3348 16.2557 32.3052 16.0187 32.2346 15.7924C32.1083 15.7774 31.9807 15.8082 31.8752 15.8793L31.5224 16.2923L31.0437 16.0362C30.7431 15.909 30.4181 15.8499 30.0919 15.863C30.0919 15.863 29.8999 15.8485 29.7107 15.8306L29.4867 16.0127L29.4167 16.0474C29.2146 16.1396 28.992 16.1773 28.7709 16.157C28.5498 16.1367 28.3378 16.0589 28.1559 15.9314C27.9924 15.9645 27.8252 15.9758 27.6587 15.965C27.6148 16.1641 27.588 16.3666 27.5786 16.5703C27.5786 16.767 27.5904 16.9665 27.6016 17.1777C27.6128 17.389 27.6273 17.6199 27.6273 17.8575C27.6232 18.1671 27.5906 18.4757 27.5299 18.7793C27.5981 19.2889 27.6317 19.8024 27.6307 20.3165C27.6307 20.7088 27.6173 21.0848 27.6033 21.4608C27.5893 21.8369 27.5775 22.1893 27.5775 22.5491C27.5688 23.169 27.6266 23.7881 27.75 24.3956L27.7567 24.5889L27.6789 25.3376C27.7012 25.6754 27.6543 26.0141 27.5409 26.333C27.4276 26.6519 27.2503 26.9442 27.0199 27.192C27.0322 27.1791 27.0473 27.174 27.0585 27.16L26.9756 27.2441C26.9941 27.2273 27.0014 27.2082 27.0193 27.192C26.633 27.6151 26.1095 27.6526 25.4517 27.2878L25.3509 27.2318L25.4147 27.2598C24.5234 26.9415 24.3744 26.0269 24.2949 25.5383L24.2518 25.2805L24.286 25.1437C24.2889 25.1291 24.2904 25.1143 24.2905 25.0995C24.2761 24.9753 24.2443 24.8538 24.1958 24.7386C24.1037 24.505 24.0515 24.2576 24.0413 24.0067C24.0475 23.8192 24.0959 23.6355 24.183 23.4693C24.2396 23.1215 24.2688 22.7698 24.2703 22.4174C24.2703 22.0378 24.2392 21.6588 24.1774 21.2843L24.141 21.0601L24.2457 20.8578C24.3046 20.6947 24.3288 20.521 24.3168 20.3479C24.3168 20.2296 24.3123 20.1092 24.3084 19.9971C24.3084 19.9971 24.3084 19.7348 24.3084 19.5532C24.124 19.1918 24.0263 18.7923 24.0228 18.3865C24.0321 18.0387 24.0695 17.6921 24.1348 17.3503C24.1882 17.073 24.2198 16.792 24.2294 16.5097C24.2285 16.3399 24.1967 16.1716 24.1354 16.0132C23.8949 16.013 23.657 16.0626 23.4366 16.1589L23.1567 16.2811L22.8796 16.1477C22.5743 15.9766 22.233 15.8801 21.8835 15.866C21.5339 15.8519 21.1859 15.9206 20.8679 16.0665L20.7655 16.1225L20.6535 16.1427C20.3231 16.19 19.9862 16.1568 19.6714 16.0457C19.6341 16.1893 19.6166 16.3373 19.6194 16.4856C19.6194 16.6723 19.6345 16.8701 19.6463 17.046C19.6463 17.046 19.6575 17.2327 19.6642 17.3537C19.7913 17.6279 19.8594 17.9257 19.864 18.2279C19.8558 18.5388 19.8158 18.8481 19.7448 19.1509C19.6895 19.3774 19.6565 19.6089 19.6463 19.8418C19.6449 19.9734 19.6692 20.104 19.7179 20.2263L19.7739 20.3473L19.7386 21.6004C19.7224 22.0604 19.7062 22.5256 19.7062 22.9845C19.6918 23.6649 19.7531 24.3447 19.8887 25.0115L19.9335 25.2009L19.8691 25.3853C19.8199 25.5295 19.7961 25.6812 19.7985 25.8336C19.8183 26.1947 19.8811 26.5521 19.9855 26.8983C19.9855 26.8983 20.0785 27.3612 20.1384 27.6644C20.5244 28.0526 20.8014 28.5358 20.9413 29.0654C21.1406 29.6689 21.243 29.8908 21.5907 30.0018C22.0148 30.0866 22.4157 30.2614 22.7665 30.5145C23.1707 30.7757 23.3577 30.8765 23.5833 30.8239L23.837 30.7622L24.0654 30.8883C24.4485 31.0272 24.8622 31.0586 25.2619 30.9791L25.6694 30.9539C25.8766 30.8876 26.0752 30.7971 26.2612 30.6843C26.5276 30.4968 26.8286 30.3642 27.1467 30.2943C27.4647 30.2243 27.7935 30.2184 28.1139 30.2769L28.4045 30.347L28.5478 30.6087C28.6782 30.8474 28.9694 30.8889 29.5556 30.9152L29.9201 30.9421L30.0427 30.9186C30.2986 30.8473 30.5654 30.8234 30.8299 30.848L31.1417 30.8816C31.8593 31.0273 32.6031 30.9719 33.2911 30.7213C33.2177 30.2376 33.0253 29.7796 32.7312 29.3887L32.4602 28.9404L32.4558 28.9415ZM46.1683 17.2024C46.1631 16.799 46.1244 16.3967 46.0524 15.9998C45.6684 16.1173 45.2627 16.1457 44.8661 16.0827C44.4254 16.0323 44.3359 16.0452 44.2272 16.1685L43.7172 16.7474L43.2508 16.2122L43.0963 16.2172C42.7915 16.2418 42.4857 16.1837 42.2111 16.0491C42.0622 16.053 41.9105 16.0553 41.9105 16.0553C41.6966 16.0452 41.5969 16.0429 41.5398 16.085L41.3875 16.197L41.2005 16.2127C40.428 16.2425 39.6548 16.1703 38.9011 15.9981C38.6026 16.1315 38.2806 16.2042 37.9537 16.2118C37.6269 16.2194 37.3019 16.1618 36.9975 16.0424C36.7012 15.9788 36.393 16.0003 36.1084 16.1046C36.0944 16.5703 36.0625 17.5711 36.0625 17.5807C36.0867 17.713 36.1011 17.8469 36.1056 17.9813C36.1006 18.2267 36.0819 18.4716 36.0496 18.7149C36.0238 18.9097 36.0087 19.1057 36.0043 19.3022C35.9925 19.4237 36.0251 19.5453 36.0961 19.6446C36.1905 19.6287 36.2866 19.6264 36.3816 19.6379C36.7449 19.548 37.1226 19.533 37.4919 19.5936L38.0014 19.6429L38.129 19.7197C38.3693 19.8689 38.5632 20.0823 38.6889 20.3359C38.8147 20.5894 38.8672 20.873 38.8406 21.1548C38.8406 21.2624 38.8362 21.3622 38.8322 21.4513C38.8272 21.5314 38.8238 21.6239 38.8238 21.7102C38.8163 21.803 38.8291 21.8963 38.8613 21.9837L39.036 22.2555L38.933 22.5637C38.8426 22.8434 38.7991 23.1361 38.8042 23.4301C38.8146 23.8104 38.8494 24.1896 38.9084 24.5654C38.976 24.9957 39.0145 25.43 39.0237 25.8655C39.0216 26.3133 38.9426 26.7575 38.7902 27.1785C38.861 27.4887 38.8974 27.8057 38.8989 28.1239C38.892 28.5149 38.8626 28.9052 38.811 29.2929C38.7644 29.6314 38.7373 29.9723 38.7298 30.3139C38.7323 30.566 38.7663 30.8168 38.8311 31.0604C38.9974 31.0893 39.1663 31.1008 39.335 31.0945C39.3619 31.0861 39.447 31.0548 39.447 31.0548C39.6088 30.9773 39.7847 30.9334 39.9639 30.9256C40.1431 30.9178 40.3221 30.9463 40.49 31.0094C40.7089 31.0273 41.0449 31.0559 41.0449 31.0559C41.4166 31.1119 41.5594 31.1242 41.6876 31.0368C41.9255 30.872 42.2061 30.7799 42.4952 30.7719C42.7844 30.7638 43.0697 30.8401 43.3163 30.9914L43.4053 31.0267C43.423 30.9765 43.4359 30.9247 43.444 30.8721C43.4403 30.6818 43.4012 30.4938 43.3286 30.3178L43.2726 30.1889L43.304 29.3641C43.3225 28.9157 43.3415 28.4641 43.3415 28.0157C43.3495 27.4618 43.3056 26.9083 43.2105 26.3626L43.1646 26.1177L43.2894 25.8997C43.358 25.7664 43.3904 25.6174 43.3835 25.4676C43.3758 25.2505 43.3524 25.0342 43.3135 24.8204C43.2642 24.5474 43.2359 24.2711 43.229 23.9938C43.2289 23.9088 43.2332 23.8239 43.2419 23.7394L43.2491 23.6699L43.2687 23.6032C43.3254 23.4204 43.3526 23.2297 43.3494 23.0383C43.3447 22.8188 43.3277 22.5997 43.2984 22.3821C43.2653 22.1218 43.2466 21.8599 43.2424 21.5976C43.2351 21.1903 43.3199 20.7866 43.4904 20.4168C44.0268 19.194 45.0704 19.4126 45.5715 19.5202C45.7389 19.5708 45.9155 19.583 46.0883 19.556C46.0729 19.3984 46.0415 19.2428 45.9948 19.0915L45.8778 18.6633L45.9618 18.4543C46.1071 18.0547 46.1768 17.6315 46.1672 17.2063L46.1683 17.2024ZM16.4337 21.7365L16.4398 21.5376C16.4398 21.4995 16.4398 21.4631 16.4398 21.4255C16.4515 20.9158 16.3393 20.4109 16.113 19.9542C15.8866 19.4974 15.5528 19.1025 15.1403 18.8034L14.9763 18.6869L14.9029 18.498C14.6641 18.0405 14.3092 17.654 13.8739 17.3772L13.6701 17.2142C13.2777 17.1031 12.9145 16.907 12.6063 16.6398C12.2782 16.3831 12.1142 16.2721 11.9266 16.2884L11.6736 16.313L11.4681 16.1645C10.7615 15.6501 9.63392 15.6602 8.64013 15.6602H8.20342L8.09704 15.6249C7.96827 15.5812 7.85462 15.6249 7.5618 15.7499C7.24738 15.9088 6.90261 15.9986 6.55065 16.0132C6.14394 16.2675 5.70001 16.4566 5.23494 16.5736C4.90021 16.6449 4.58102 16.7759 4.29266 16.9603C4.04318 17.4562 3.64151 17.859 3.14658 18.1097C2.76138 18.3338 2.59958 18.4504 2.54135 18.6639L2.46465 18.9508L2.20095 19.0876C2.11808 19.1313 2.06433 19.2596 1.96971 19.5252C1.85858 19.8384 1.6906 20.1283 1.47422 20.3804C1.42383 20.5558 1.06439 21.8032 1.02128 21.9495C1.02128 22.1176 1.01232 22.7867 1.01232 22.7867C1.00616 23.0579 1 23.3297 1 23.6021C1 24.7189 1.10582 25.8 1.75696 26.5531L1.8443 26.6529L1.88629 26.7806C2.1304 27.5091 2.856 29.2464 4.31281 29.6454L4.51269 29.7014L4.64706 29.8572C5.17046 30.3211 5.82647 30.6083 6.5221 30.6782C6.5221 30.6782 6.86643 30.7555 6.91402 30.7701L7.24995 30.788C7.54863 30.7767 7.84612 30.8316 8.12112 30.9488C9.30359 31.0917 10.9664 31.173 12.0061 30.3229L12.1931 30.1721H12.4333C12.6291 30.1433 12.8151 30.068 12.9758 29.9525L13.58 29.6611L13.4719 29.7087C14.0168 29.3504 14.4811 28.8825 14.8352 28.3346C15.2088 27.7963 15.6543 27.3117 16.1593 26.8944C16.2982 26.7958 16.3273 26.5783 16.3553 26.1384C16.3515 25.6061 16.5157 25.0862 16.8245 24.6528L16.8457 24.1294C16.8597 23.8492 16.8737 23.5914 16.8737 23.3449C16.9023 22.8401 16.7867 22.3377 16.5406 21.8962L16.4376 21.7281L16.4337 21.7365Z" fill="#BEBCBC"/>
<path d="M1.49611 10.9297C1.49611 10.8737 1.70326 10.7341 1.95577 10.6198C2.20828 10.5055 2.60355 10.3189 2.83142 10.2046C3.0593 10.0902 3.4221 9.92436 3.63765 9.83582C3.8532 9.74728 4.19753 9.60269 4.39741 9.51359C4.59729 9.42449 5.05583 9.23844 5.41079 9.09834C5.76575 8.95824 6.315 8.75202 6.63133 8.63714C6.94766 8.52225 7.42468 8.35694 7.69062 8.26839C7.95657 8.17985 8.37144 8.05545 8.61219 7.99157C8.85294 7.92768 9.39154 7.77301 9.80977 7.64636C10.228 7.51971 10.808 7.36617 11.0975 7.29948C11.387 7.23279 11.8763 7.15377 12.1797 7.1151C12.4832 7.07644 12.9709 7.02656 13.262 7.00022C13.5531 6.97388 13.9059 6.93354 14.0458 6.90888C14.1858 6.88422 14.393 6.85285 14.5066 6.8394C14.6203 6.82595 15.132 6.74413 17.0322 6.65559C18.9325 6.56704 20.6524 6.47346 20.8551 6.44824C21.0578 6.42303 21.4105 6.38043 21.6389 6.35577C21.8674 6.33112 22.4681 6.28853 22.9748 6.26331C23.4815 6.2381 24.1024 6.2168 24.3566 6.2168C24.6108 6.2168 25.0139 6.22745 25.2524 6.24034C25.4909 6.25323 25.8683 6.28405 26.0821 6.30927C26.296 6.33448 26.6291 6.38716 26.8189 6.4247C27.0087 6.46225 27.1845 6.57657 27.2109 6.67912C27.2397 6.78974 27.2783 6.89758 27.3262 7.00135C27.3637 7.07644 27.4258 7.19076 27.4639 7.25408C27.5134 7.33394 27.5672 7.41102 27.6252 7.48497C27.7224 7.5886 27.8308 7.68124 27.9482 7.76124C28.0747 7.84922 28.3127 8.00557 28.4779 8.107C28.6034 8.20022 28.76 8.24155 28.9151 8.22244C29.0102 8.1782 29.1108 8.14674 29.2141 8.12886L29.5601 8.08347C29.6856 8.06466 29.809 8.03369 29.9285 7.991C30.0304 7.95346 30.3518 7.81896 30.6424 7.69119C30.9329 7.56342 31.3064 7.39867 31.4715 7.32246C31.6793 7.23284 31.8951 7.16322 32.116 7.11455C32.2505 7.1211 32.3809 7.16291 32.4942 7.23578C32.6075 7.30866 32.6997 7.41005 32.7615 7.5298C32.8134 7.69697 32.9092 7.84715 33.0387 7.96472C33.1683 8.0823 33.327 8.16297 33.4983 8.19834L34.0503 8.35918C34.2659 8.4225 34.6181 8.51665 34.8342 8.56709C35.0503 8.61752 35.309 8.69037 35.4097 8.72792C35.5105 8.76547 35.6555 8.82879 35.7328 8.8669C35.7828 8.88397 35.8361 8.88866 35.8883 8.88055C35.9404 8.87245 35.9899 8.8518 36.0323 8.82038C36.1429 8.74412 36.2583 8.67505 36.3778 8.6136C36.5035 8.55451 36.6348 8.50814 36.7697 8.47518C36.891 8.44938 37.0163 8.44938 37.1375 8.47518C37.226 8.50096 37.2993 8.45949 37.2993 8.38272C37.3031 8.28135 37.3185 8.18075 37.3452 8.08291C37.3704 7.99493 37.4124 7.84866 37.4371 7.76068C37.47 7.65516 37.5164 7.55437 37.5754 7.46087C37.6257 7.38466 37.6991 7.28042 37.7366 7.22999C37.7893 7.16677 37.8517 7.11231 37.9214 7.0686C37.9841 7.03105 38.1498 6.94755 38.2898 6.88423C38.4702 6.80556 38.6547 6.73635 38.8424 6.67688C39.007 6.62644 39.2975 6.54351 39.4868 6.49251C39.676 6.44152 40.1329 6.32832 40.5002 6.23922C40.8199 6.16482 41.1352 6.07258 41.4447 5.96294C41.5964 5.89961 41.8249 5.79482 41.9486 5.73318C42.2248 5.48924 42.4583 5.20076 42.6395 4.8797C42.8925 4.47341 43.2245 4.17248 43.3763 4.21171C43.528 4.25093 43.7682 4.31146 43.9059 4.34901C44.1404 4.42159 44.371 4.50613 44.5968 4.6023C44.8381 4.7043 45.2127 4.8825 45.426 4.99458C45.6393 5.10666 45.9937 5.27478 46.2098 5.36332C46.4349 5.45554 46.6659 5.53267 46.9013 5.5942C47.0659 5.63175 47.3145 5.68442 47.4533 5.70964L47.9572 5.80043C48.1222 5.8334 48.2842 5.87988 48.4415 5.9394C48.5174 5.9633 48.5974 5.97155 48.6766 5.96365C48.7558 5.95576 48.8326 5.93187 48.9023 5.89345C49.0283 5.81724 49.2253 5.70348 49.339 5.63959C49.4744 5.5627 49.6052 5.47814 49.7309 5.3863C49.8323 5.30952 49.9773 5.19688 50.0534 5.133C50.1514 5.0471 50.2436 4.9548 50.3294 4.85672C50.4208 4.74662 50.5054 4.63096 50.5825 4.5104C50.6587 4.38356 50.7279 4.2526 50.7896 4.11812C50.8532 3.96773 50.9072 3.81351 50.9515 3.65636C50.9765 3.58128 51.0186 3.51304 51.0745 3.45703C51.1303 3.40101 51.1984 3.35875 51.2734 3.33357C51.4128 3.29602 51.6513 3.24391 51.8036 3.22149C51.9559 3.19908 52.3495 3.1436 52.6781 3.10605C53.0068 3.06851 53.5667 3.01639 53.9216 2.98949C54.2766 2.96259 54.8773 2.9441 55.2575 2.9441C55.6377 2.9441 56.2698 2.95474 56.6617 2.96763C57.0536 2.98052 57.6767 3.02368 58.0446 3.0601C58.4124 3.09653 58.9913 3.14976 59.3323 3.17554C59.6733 3.20132 60.213 3.26296 60.5305 3.3134C61.0208 3.40773 61.5052 3.53086 61.9811 3.68214C62.4887 3.8518 62.9418 4.1542 63.2935 4.55804C63.5342 4.88811 64.332 4.62808 65.0655 3.98139C65.8883 3.29847 66.9022 2.88736 67.9679 2.80456C69.1268 2.71366 70.2512 2.36728 71.2606 1.79025C72.2145 1.22883 73.3105 0.956308 74.416 1.0057C75.1999 1.13235 76.6208 1.30887 77.571 1.39797C78.4799 1.47718 79.3764 1.66282 80.2422 1.95108C81.0495 2.34166 81.8152 2.81311 82.5276 3.35823C82.9166 3.62697 83.3846 3.75714 83.8564 3.72788C84.3281 3.69861 84.7764 3.5116 85.1294 3.19684C85.5028 2.86878 85.9446 2.62814 86.4227 2.49243C86.9007 2.35672 87.403 2.32934 87.8929 2.41228C88.889 2.72966 89.8016 3.26576 90.5641 3.98139C91.0377 4.50772 91.6079 4.93806 92.2437 5.24899C92.4645 5.29236 92.6875 5.32324 92.9117 5.34146C93.0356 5.34579 93.1589 5.36116 93.2801 5.38742C93.3921 5.41263 93.5494 5.4541 93.625 5.47932C93.6775 5.49837 93.7314 5.51354 93.7862 5.52471C93.7985 5.52471 93.9441 5.55721 94.1093 5.59476C94.3067 5.63773 94.5066 5.66861 94.7078 5.68723C94.898 5.70565 95.0844 5.7523 95.2609 5.82564C95.4219 5.90073 95.5762 5.98921 95.7223 6.09015C95.8663 6.19766 96.0044 6.31289 96.136 6.43535C96.2678 6.55631 96.4106 6.66457 96.5627 6.75869C96.6836 6.82874 97.1281 7.02544 97.5525 7.19636C97.9769 7.36728 98.6034 7.64748 98.9455 7.81952C99.2143 7.95874 99.4912 8.08169 99.7747 8.1877C99.9185 8.22514 100.065 8.2521 100.213 8.26839C100.363 8.27973 100.514 8.26821 100.66 8.23422C100.774 8.20383 100.889 8.18062 101.005 8.16472C101.083 8.15948 101.161 8.16745 101.236 8.18826C101.292 8.20732 101.562 8.33172 101.835 8.46397C102.108 8.59622 102.558 8.79068 102.837 8.89043C103.197 9.01395 103.566 9.10766 103.942 9.17063C104.271 9.2205 104.551 9.26198 104.564 9.26198C104.577 9.26198 104.732 9.30401 104.909 9.355C105.057 9.39156 105.198 9.45397 105.324 9.53937C105.521 9.62045 105.732 9.65958 105.945 9.65425C106.301 9.67595 106.655 9.72239 107.004 9.79323C107.296 9.85655 107.19 9.99161 107.461 10.093C107.718 10.193 107.995 10.2247 108.268 10.1849C108.67 10.0619 109.095 10.0305 109.511 10.093C109.723 10.1258 109.931 10.1799 110.132 10.2544C110.32 10.3355 110.494 10.4441 110.65 10.5767C110.764 10.6744 110.86 10.791 110.934 10.9213C110.963 10.9964 110.99 11.0799 111 11.1074C111.002 11.156 110.991 11.2043 110.967 11.2469L110.929 11.2923L110.888 11.3366C110.748 11.403 110.594 11.4343 110.44 11.4279H110.262C110.085 11.4279 109.907 11.4279 109.733 11.4279C109.558 11.4279 109.382 11.3399 109.212 11.3354L109.044 11.3321C108.893 11.3674 108.739 11.3875 108.584 11.392L108.508 11.3887C108.432 11.3853 108.351 11.3842 108.274 11.3853C108.198 11.3864 108.122 11.3175 108.06 11.3253L108.002 11.3321C107.627 11.3903 107.249 11.4237 106.871 11.4318H106.043C105.216 11.4318 104.381 11.4285 103.543 11.4251C102.706 11.4217 101.864 11.4184 101.018 11.4128C100.173 11.4072 99.3335 11.4873 98.4937 11.4811C97.7658 11.4733 97.01 11.3904 96.2424 11.3915C95.4748 11.3926 94.7022 11.3948 93.9307 11.3971C93.1592 11.3993 92.3904 11.3971 91.6413 11.3971L90.8916 11.3937C90.1078 11.3791 89.1924 11.3562 88.8593 11.3427C88.5261 11.3293 87.9803 11.3338 87.6477 11.3539C87.3151 11.3741 86.7698 11.3931 86.4367 11.3965L85.2245 11.4077C84.892 11.4111 84.3332 11.4077 83.9844 11.401H83.6725C83.3618 11.401 83.0567 11.3976 82.7437 11.401C82.4307 11.4044 82.1222 11.4044 81.8059 11.4066C81.4896 11.4088 81.1693 11.3478 80.8407 11.3506C80.035 11.364 79.2461 11.4329 78.4601 11.4329C77.674 11.4329 76.8974 11.4285 76.1214 11.4217C75.3454 11.415 74.5706 11.406 73.7923 11.3993C73.0141 11.3926 72.2275 11.2116 71.4408 11.2121C70.769 11.2222 70.0971 11.4044 69.418 11.4066C68.7389 11.4088 68.0625 11.4066 67.3845 11.4066C66.7065 11.4066 66.0324 11.4032 65.3605 11.4032C64.6887 11.4032 64.0168 11.4032 63.3517 11.41L62.9363 11.4021C62.7483 11.3046 62.5404 11.2517 62.3287 11.2476C62.117 11.2435 61.9073 11.2883 61.7157 11.3786L60.6122 11.3674C60.1553 11.3623 59.7041 11.3584 59.2567 11.3573H58.8088C58.3284 11.3573 57.908 11.3607 57.8744 11.3635C57.8408 11.3663 57.7568 11.3696 57.6896 11.3735C57.6224 11.3775 57.5373 11.3825 57.5032 11.3836C57.469 11.3847 57.1146 11.387 56.7137 11.3881C56.3129 11.3892 55.6595 11.4021 55.2581 11.4201C54.8566 11.438 54.2044 11.438 53.8024 11.4201C53.4004 11.4021 52.7476 11.3892 52.3467 11.3903C51.9458 11.3915 51.6407 11.3405 51.6647 11.2783C51.6896 11.2214 51.6976 11.1586 51.6877 11.0973C51.6754 11.0586 51.5959 11.1062 51.5113 11.2026C51.4527 11.2741 51.3864 11.3389 51.3137 11.396C51.1235 11.4045 50.933 11.4015 50.7432 11.387L50.4666 11.3926C50.1867 11.3982 49.9067 11.4016 49.6268 11.4049C49.3468 11.4083 49.0669 11.3691 48.7965 11.373H48.5266C47.9364 11.3791 47.3466 11.3375 46.763 11.2486L46.1191 11.2374C45.4758 11.2262 44.8208 11.3607 44.1685 11.3562C43.5162 11.3517 42.864 11.35 42.2089 11.35H41.5572C40.8423 11.3528 40.2505 11.3562 40.2415 11.355L40.209 11.3517C40.2006 11.3517 40.1861 11.3483 40.1777 11.3483L40.1458 11.345C40.1002 11.3066 40.0589 11.2633 40.0226 11.2161H39.9106C39.7986 11.2161 39.5747 11.3595 39.4627 11.3573C39.3507 11.355 39.236 11.3534 39.1201 11.3511C39.0042 11.3489 38.8883 11.3511 38.769 11.3511C38.0625 11.3691 37.3374 11.313 36.6079 11.3158C35.8784 11.3186 35.146 11.3758 34.4243 11.3719C33.7027 11.3679 33.6064 11.6577 32.916 11.6577C32.2257 11.6577 31.5589 11.6633 30.9307 11.6778C30.463 11.6853 29.995 11.69 29.5265 11.6918C29.0581 11.6937 28.5893 11.6937 28.1201 11.6918C27.6509 11.6885 26.5614 11.3909 26.0911 11.3842L25.6202 11.3775C25.1012 11.3663 24.6684 11.3567 24.6651 11.3556C24.6617 11.3545 24.6483 11.3517 24.6421 11.3494L24.6192 11.3455L24.5962 11.3405C24.5901 11.3405 24.4618 11.3797 24.3124 11.4296H24.1785C23.6119 11.4385 23.4736 11.3517 23.7704 11.3506H22.8723C21.9866 11.3707 21.1087 11.3018 20.2308 11.3108C19.3529 11.3197 18.8994 11.6319 18.0176 11.6352C17.1358 11.6386 16.9662 11.415 16.0704 11.4167H15.1745C14.1668 11.373 13.3297 11.3343 13.3101 11.331L13.2362 11.3186C13.2166 11.3141 13.1836 11.3085 13.1629 11.3052C13.1422 11.3018 13.1097 11.2962 13.0896 11.2917C13.0711 11.2883 13.0523 11.2873 13.0336 11.2889C13.0235 11.2889 12.9988 11.2917 12.9776 11.2956L12.9216 11.3018C12.9115 11.3018 12.8365 11.313 12.7536 11.3231L12.6668 11.3298C12.5801 11.3354 12.4871 11.3399 12.3936 11.3422C12.3001 11.3444 12.2044 11.2833 12.1137 11.2822H12.0219C11.5811 11.3519 11.1371 11.3994 10.6916 11.4245H10.1194C9.54775 11.4245 8.98283 11.4212 8.42015 11.4189C7.85747 11.4167 7.30039 11.475 6.74051 11.4789C6.18063 11.4828 5.62467 11.4229 5.06535 11.4301C4.76693 11.4301 4.44948 11.4335 4.12698 11.4369C3.80449 11.4402 3.47864 11.3635 3.16119 11.3646C2.84374 11.3657 2.53805 11.4436 2.25699 11.429L1.97705 11.4156C1.81051 11.4095 1.6473 11.3671 1.49891 11.2912C1.49499 11.2575 1.49219 11.1869 1.49219 11.1326V10.9325" fill="#BEBCBC"/>
<path d="M1.49611 10.9297C1.49611 10.8737 1.70326 10.7341 1.95577 10.6198C2.20828 10.5055 2.60355 10.3189 2.83142 10.2046C3.0593 10.0902 3.4221 9.92436 3.63765 9.83582C3.8532 9.74728 4.19753 9.60269 4.39741 9.51359C4.59729 9.42449 5.05583 9.23844 5.41079 9.09834C5.76575 8.95824 6.315 8.75202 6.63133 8.63714C6.94766 8.52225 7.42468 8.35694 7.69062 8.26839C7.95657 8.17985 8.37144 8.05545 8.61219 7.99157C8.85294 7.92768 9.39154 7.77301 9.80977 7.64636C10.228 7.51971 10.808 7.36617 11.0975 7.29948C11.387 7.23279 11.8763 7.15377 12.1797 7.1151C12.4832 7.07644 12.9709 7.02656 13.262 7.00022C13.5531 6.97388 13.9059 6.93354 14.0458 6.90888C14.1858 6.88422 14.393 6.85285 14.5066 6.8394C14.6203 6.82595 15.132 6.74413 17.0322 6.65559C18.9325 6.56704 20.6524 6.47346 20.8551 6.44824C21.0578 6.42303 21.4105 6.38043 21.6389 6.35577C21.8674 6.33112 22.4681 6.28853 22.9748 6.26331C23.4815 6.2381 24.1024 6.2168 24.3566 6.2168C24.6108 6.2168 25.0139 6.22745 25.2524 6.24034C25.4909 6.25323 25.8683 6.28405 26.0821 6.30927C26.296 6.33448 26.6291 6.38716 26.8189 6.4247C27.0087 6.46225 27.1845 6.57657 27.2109 6.67912C27.2397 6.78974 27.2783 6.89758 27.3262 7.00135C27.3637 7.07644 27.4258 7.19076 27.4639 7.25408C27.5134 7.33394 27.5672 7.41102 27.6252 7.48497C27.7224 7.5886 27.8308 7.68124 27.9482 7.76124C28.0747 7.84922 28.3127 8.00557 28.4779 8.107C28.6034 8.20022 28.76 8.24155 28.9151 8.22244C29.0102 8.1782 29.1108 8.14674 29.2141 8.12886L29.5601 8.08347C29.6856 8.06466 29.809 8.03369 29.9285 7.991C30.0304 7.95346 30.3518 7.81896 30.6424 7.69119C30.9329 7.56342 31.3064 7.39867 31.4715 7.32246C31.6793 7.23284 31.8951 7.16322 32.116 7.11455C32.2505 7.1211 32.3809 7.16291 32.4942 7.23578C32.6075 7.30866 32.6997 7.41005 32.7615 7.5298C32.8134 7.69697 32.9092 7.84715 33.0387 7.96472C33.1683 8.0823 33.327 8.16297 33.4983 8.19834L34.0503 8.35918C34.2659 8.4225 34.6181 8.51665 34.8342 8.56709C35.0503 8.61752 35.309 8.69037 35.4097 8.72792C35.5105 8.76547 35.6555 8.82879 35.7328 8.8669C35.7828 8.88397 35.8361 8.88866 35.8883 8.88055C35.9404 8.87245 35.9899 8.8518 36.0323 8.82038C36.1429 8.74412 36.2583 8.67505 36.3778 8.6136C36.5035 8.55451 36.6348 8.50814 36.7697 8.47518C36.891 8.44938 37.0163 8.44938 37.1375 8.47518C37.226 8.50096 37.2993 8.45949 37.2993 8.38272C37.3031 8.28135 37.3185 8.18075 37.3452 8.08291C37.3704 7.99493 37.4124 7.84866 37.4371 7.76068C37.47 7.65516 37.5164 7.55437 37.5754 7.46087C37.6257 7.38466 37.6991 7.28042 37.7366 7.22999C37.7893 7.16677 37.8517 7.11231 37.9214 7.0686C37.9841 7.03105 38.1498 6.94755 38.2898 6.88423C38.4702 6.80556 38.6547 6.73635 38.8424 6.67688C39.007 6.62644 39.2975 6.54351 39.4868 6.49251C39.676 6.44152 40.1329 6.32832 40.5002 6.23922C40.8199 6.16482 41.1352 6.07258 41.4447 5.96294C41.5964 5.89961 41.8249 5.79482 41.9486 5.73318C42.2248 5.48924 42.4583 5.20076 42.6395 4.8797C42.8925 4.47341 43.2245 4.17248 43.3763 4.21171C43.528 4.25093 43.7682 4.31146 43.9059 4.34901C44.1404 4.42159 44.371 4.50613 44.5968 4.6023C44.8381 4.7043 45.2127 4.8825 45.426 4.99458C45.6393 5.10666 45.9937 5.27478 46.2098 5.36332C46.4349 5.45554 46.6659 5.53267 46.9013 5.5942C47.0659 5.63175 47.3145 5.68442 47.4533 5.70964L47.9572 5.80043C48.1222 5.8334 48.2842 5.87988 48.4415 5.9394C48.5174 5.9633 48.5974 5.97155 48.6766 5.96365C48.7558 5.95576 48.8326 5.93187 48.9023 5.89345C49.0283 5.81724 49.2253 5.70348 49.339 5.63959C49.4744 5.5627 49.6052 5.47814 49.7309 5.3863C49.8323 5.30952 49.9773 5.19688 50.0534 5.133C50.1514 5.0471 50.2436 4.9548 50.3294 4.85672C50.4208 4.74662 50.5054 4.63096 50.5825 4.5104C50.6587 4.38356 50.7279 4.2526 50.7896 4.11812C50.8532 3.96773 50.9072 3.81351 50.9515 3.65636C50.9765 3.58128 51.0186 3.51304 51.0745 3.45703C51.1303 3.40101 51.1984 3.35875 51.2734 3.33357C51.4128 3.29602 51.6513 3.24391 51.8036 3.22149C51.9559 3.19908 52.3495 3.1436 52.6781 3.10605C53.0068 3.06851 53.5667 3.01639 53.9216 2.98949C54.2766 2.96259 54.8773 2.9441 55.2575 2.9441C55.6377 2.9441 56.2698 2.95474 56.6617 2.96763C57.0536 2.98052 57.6767 3.02368 58.0446 3.0601C58.4124 3.09653 58.9913 3.14976 59.3323 3.17554C59.6733 3.20132 60.213 3.26296 60.5305 3.3134C61.0208 3.40773 61.5052 3.53086 61.9811 3.68214C62.4887 3.8518 62.9418 4.1542 63.2935 4.55804C63.5342 4.88811 64.332 4.62808 65.0655 3.98139C65.8883 3.29847 66.9022 2.88736 67.9679 2.80456C69.1268 2.71366 70.2512 2.36728 71.2606 1.79025C72.2145 1.22883 73.3105 0.956308 74.416 1.0057C75.1999 1.13235 76.6208 1.30887 77.571 1.39797C78.4799 1.47718 79.3764 1.66282 80.2422 1.95108C81.0495 2.34166 81.8152 2.81311 82.5276 3.35823C82.9166 3.62697 83.3846 3.75714 83.8564 3.72788C84.3281 3.69861 84.7764 3.5116 85.1294 3.19684C85.5028 2.86878 85.9446 2.62814 86.4227 2.49243C86.9007 2.35672 87.403 2.32934 87.8929 2.41228C88.889 2.72966 89.8016 3.26576 90.5641 3.98139C91.0377 4.50772 91.6079 4.93806 92.2437 5.24899C92.4645 5.29236 92.6875 5.32324 92.9117 5.34146C93.0356 5.34579 93.1589 5.36116 93.2801 5.38742C93.3921 5.41263 93.5494 5.4541 93.625 5.47932C93.6775 5.49837 93.7314 5.51354 93.7862 5.52471C93.7985 5.52471 93.9441 5.55721 94.1093 5.59476C94.3067 5.63773 94.5066 5.66861 94.7078 5.68723C94.898 5.70565 95.0844 5.7523 95.2609 5.82564C95.4219 5.90073 95.5762 5.98921 95.7223 6.09015C95.8663 6.19766 96.0044 6.31289 96.136 6.43535C96.2678 6.55631 96.4106 6.66457 96.5627 6.75869C96.6836 6.82874 97.1281 7.02544 97.5525 7.19636C97.9769 7.36728 98.6034 7.64748 98.9455 7.81952C99.2143 7.95874 99.4912 8.08169 99.7747 8.1877C99.9185 8.22514 100.065 8.2521 100.213 8.26839C100.363 8.27973 100.514 8.26821 100.66 8.23422C100.774 8.20383 100.889 8.18062 101.005 8.16472C101.083 8.15948 101.161 8.16745 101.236 8.18826C101.292 8.20732 101.562 8.33172 101.835 8.46397C102.108 8.59622 102.558 8.79068 102.837 8.89043C103.197 9.01395 103.566 9.10766 103.942 9.17063C104.271 9.2205 104.551 9.26198 104.564 9.26198C104.577 9.26198 104.732 9.30401 104.909 9.355C105.057 9.39156 105.198 9.45397 105.324 9.53937C105.521 9.62045 105.732 9.65958 105.945 9.65425C106.301 9.67595 106.655 9.72239 107.004 9.79323C107.296 9.85655 107.19 9.99161 107.461 10.093C107.718 10.193 107.995 10.2247 108.268 10.1849C108.67 10.0619 109.095 10.0305 109.511 10.093C109.723 10.1258 109.931 10.1799 110.132 10.2544C110.32 10.3355 110.494 10.4441 110.65 10.5767C110.764 10.6744 110.86 10.791 110.934 10.9213C110.963 10.9964 110.99 11.0799 111 11.1074C111.002 11.156 110.991 11.2043 110.967 11.2469L110.929 11.2923L110.888 11.3366C110.748 11.403 110.594 11.4343 110.44 11.4279H110.262C110.085 11.4279 109.907 11.4279 109.733 11.4279C109.558 11.4279 109.382 11.3399 109.212 11.3354L109.044 11.3321C108.893 11.3674 108.739 11.3875 108.584 11.392L108.508 11.3887C108.432 11.3853 108.351 11.3842 108.274 11.3853C108.198 11.3864 108.122 11.3175 108.06 11.3253L108.002 11.3321C107.627 11.3903 107.249 11.4237 106.871 11.4318H106.043C105.216 11.4318 104.381 11.4285 103.543 11.4251C102.706 11.4217 101.864 11.4184 101.018 11.4128C100.173 11.4072 99.3335 11.4873 98.4937 11.4811C97.7658 11.4733 97.01 11.3904 96.2424 11.3915C95.4748 11.3926 94.7022 11.3948 93.9307 11.3971C93.1592 11.3993 92.3904 11.3971 91.6413 11.3971L90.8916 11.3937C90.1078 11.3791 89.1924 11.3562 88.8593 11.3427C88.5261 11.3293 87.9803 11.3338 87.6477 11.3539C87.3151 11.3741 86.7698 11.3931 86.4367 11.3965L85.2245 11.4077C84.892 11.4111 84.3332 11.4077 83.9844 11.401H83.6725C83.3618 11.401 83.0567 11.3976 82.7437 11.401C82.4307 11.4044 82.1222 11.4044 81.8059 11.4066C81.4896 11.4088 81.1693 11.3478 80.8407 11.3506C80.035 11.364 79.2461 11.4329 78.4601 11.4329C77.674 11.4329 76.8974 11.4285 76.1214 11.4217C75.3454 11.415 74.5706 11.406 73.7923 11.3993C73.0141 11.3926 72.2275 11.2116 71.4408 11.2121C70.769 11.2222 70.0971 11.4044 69.418 11.4066C68.7389 11.4088 68.0625 11.4066 67.3845 11.4066C66.7065 11.4066 66.0324 11.4032 65.3605 11.4032C64.6887 11.4032 64.0168 11.4032 63.3517 11.41L62.9363 11.4021C62.7483 11.3046 62.5404 11.2517 62.3287 11.2476C62.117 11.2435 61.9073 11.2883 61.7157 11.3786L60.6122 11.3674C60.1553 11.3623 59.7041 11.3584 59.2567 11.3573H58.8088C58.3284 11.3573 57.908 11.3607 57.8744 11.3635C57.8408 11.3663 57.7568 11.3696 57.6896 11.3735C57.6224 11.3775 57.5373 11.3825 57.5032 11.3836C57.469 11.3847 57.1146 11.387 56.7137 11.3881C56.3129 11.3892 55.6595 11.4021 55.2581 11.4201C54.8566 11.438 54.2044 11.438 53.8024 11.4201C53.4004 11.4021 52.7476 11.3892 52.3467 11.3903C51.9458 11.3915 51.6407 11.3405 51.6647 11.2783C51.6896 11.2214 51.6976 11.1586 51.6877 11.0973C51.6754 11.0586 51.5959 11.1062 51.5113 11.2026C51.4527 11.2741 51.3864 11.3389 51.3137 11.396C51.1235 11.4045 50.933 11.4015 50.7432 11.387L50.4666 11.3926C50.1867 11.3982 49.9067 11.4016 49.6268 11.4049C49.3468 11.4083 49.0669 11.3691 48.7965 11.373H48.5266C47.9364 11.3791 47.3466 11.3375 46.763 11.2486L46.1191 11.2374C45.4758 11.2262 44.8208 11.3607 44.1685 11.3562C43.5162 11.3517 42.864 11.35 42.2089 11.35H41.5572C40.8423 11.3528 40.2505 11.3562 40.2415 11.355L40.209 11.3517C40.2006 11.3517 40.1861 11.3483 40.1777 11.3483L40.1458 11.345C40.1002 11.3066 40.0589 11.2633 40.0226 11.2161H39.9106C39.7986 11.2161 39.5747 11.3595 39.4627 11.3573C39.3507 11.355 39.236 11.3534 39.1201 11.3511C39.0042 11.3489 38.8883 11.3511 38.769 11.3511C38.0625 11.3691 37.3374 11.313 36.6079 11.3158C35.8784 11.3186 35.146 11.3758 34.4243 11.3719C33.7027 11.3679 33.6064 11.6577 32.916 11.6577C32.2257 11.6577 31.5589 11.6633 30.9307 11.6778C30.463 11.6853 29.995 11.69 29.5265 11.6918C29.0581 11.6937 28.5893 11.6937 28.1201 11.6918C27.6509 11.6885 26.5614 11.3909 26.0911 11.3842L25.6202 11.3775C25.1012 11.3663 24.6684 11.3567 24.6651 11.3556C24.6617 11.3545 24.6483 11.3517 24.6421 11.3494L24.6192 11.3455L24.5962 11.3405C24.5901 11.3405 24.4618 11.3797 24.3124 11.4296H24.1785C23.6119 11.4385 23.4736 11.3517 23.7704 11.3506H22.8723C21.9866 11.3707 21.1087 11.3018 20.2308 11.3108C19.3529 11.3197 18.8994 11.6319 18.0176 11.6352C17.1358 11.6386 16.9662 11.415 16.0704 11.4167H15.1745C14.1668 11.373 13.3297 11.3343 13.3101 11.331L13.2362 11.3186C13.2166 11.3141 13.1836 11.3085 13.1629 11.3052C13.1422 11.3018 13.1097 11.2962 13.0896 11.2917C13.0711 11.2883 13.0523 11.2873 13.0336 11.2889C13.0235 11.2889 12.9988 11.2917 12.9776 11.2956L12.9216 11.3018C12.9115 11.3018 12.8365 11.313 12.7536 11.3231L12.6668 11.3298C12.5801 11.3354 12.4871 11.3399 12.3936 11.3422C12.3001 11.3444 12.2044 11.2833 12.1137 11.2822H12.0219C11.5811 11.3519 11.1371 11.3994 10.6916 11.4245H10.1194C9.54775 11.4245 8.98283 11.4212 8.42015 11.4189C7.85747 11.4167 7.30039 11.475 6.74051 11.4789C6.18063 11.4828 5.62467 11.4229 5.06535 11.4301C4.76693 11.4301 4.44948 11.4335 4.12698 11.4369C3.80449 11.4402 3.47864 11.3635 3.16119 11.3646C2.84374 11.3657 2.53805 11.4436 2.25699 11.429L1.97705 11.4156C1.81051 11.4095 1.6473 11.3671 1.49891 11.2912C1.49499 11.2575 1.49219 11.1869 1.49219 11.1326V10.9325" stroke="#BEBCBC"/>
</svg>
