<svg width="112" height="32" viewBox="0 0 112 32" fill="none" xmlns="http://www.w3.org/2000/svg">
<mask id="path-1-inside-1" fill="white">
<path d="M71.9363 22.4066C72.3226 22.4424 73.0975 22.2598 73.2727 22.8437C73.4934 23.5142 73.5883 24.2199 73.5526 24.925C72.9547 25.2898 72.4273 26.057 71.761 25.3621C71.0237 25.0696 71.41 24.3035 71.4453 23.719C72.079 23.5005 71.8327 22.8442 71.9374 22.4066H71.9363ZM55.3358 18.8812C56.0553 18.7803 56.8733 18.8128 57.1997 19.6287C57.2249 20.1191 57.1051 20.6061 56.8552 21.0287C56.6054 21.4514 56.2365 21.7909 55.7949 22.0048C55.4685 21.9017 55.076 21.8333 54.9433 21.427C54.8135 20.5791 54.356 19.4242 55.3353 18.8812H55.3358ZM55.1264 24.5148C55.6829 24.7698 56.2395 24.2906 56.7031 24.7389C57.2881 25.4114 57.1342 26.4375 56.857 27.2047C56.7031 27.5583 56.3621 28.0066 55.9612 28.0397C55.5917 27.9113 55.0027 27.9113 54.912 27.3672C54.5402 26.405 54.9417 25.4109 55.127 24.5137L55.1264 24.5148ZM6.70966 21.6176C7.21691 20.9899 7.70457 20.3012 8.50575 20.0983C9.44187 20.2205 10.0275 20.9283 10.6131 21.6176C10.8901 22.9457 10.7752 24.3258 10.2823 25.5896C9.91106 26.0755 9.38645 26.6415 8.74035 26.6213C7.80367 26.8645 7.29586 26.0962 6.86699 25.4445C6.74941 24.4722 6.47507 23.5391 6.71078 22.5865V21.6131L6.70966 21.6176ZM93.9659 28.0133C93.969 27.793 93.9877 27.5731 94.0219 27.3554C94.0468 27.2026 94.0617 27.0484 94.0667 26.8937C94.0694 26.8332 94.0599 26.7727 94.0387 26.716C93.9564 26.7059 93.8578 26.697 93.8578 26.697C93.7493 26.6727 93.6382 26.6614 93.5269 26.6633L93.5365 26.66L93.331 26.7423L92.0992 26.8264C91.2659 26.9452 90.4192 26.9356 89.5887 26.7978L89.4913 26.7782L87.8749 25.9163L87.7798 25.7577C87.3996 25.1344 87.1906 24.4217 87.174 23.6916C87.1692 23.2533 87.2751 22.821 87.4819 22.4346C87.4748 22.4453 87.4683 22.4563 87.4623 22.4677L87.4948 22.401C87.4897 22.4119 87.4853 22.4231 87.4819 22.4346C87.8031 21.8462 88.3126 21.3829 88.9287 21.1194L89.3698 20.8633C89.6592 20.5992 90.0078 20.4088 90.3862 20.3083C90.7647 20.2077 91.1618 20.1999 91.5438 20.2855C91.859 20.3432 92.1825 20.338 92.4956 20.2704C92.9003 20.1147 93.3437 20.0908 93.7627 20.202C93.8561 20.221 93.9508 20.2335 94.0459 20.2396C94.0566 20.1886 94.0644 20.1372 94.0695 20.0854C94.0638 19.8902 94.047 19.6954 94.0191 19.5021C93.9837 19.2589 93.9641 19.0137 93.9603 18.768C93.9626 18.5576 93.9908 18.3483 94.0443 18.1448C93.9916 17.923 93.9645 17.6958 93.9636 17.4678C93.9636 17.3126 93.972 17.1557 93.9788 17.0027C93.9855 16.8497 93.9894 16.7102 93.9894 16.5858C94.0044 16.3748 93.9575 16.1641 93.8545 15.9794C93.8394 15.9794 93.794 15.9727 93.794 15.9727C93.5141 15.9391 93.3735 15.9284 93.3097 15.9839L93.0902 16.1795L92.7963 16.1503C92.4303 16.1269 92.0629 16.1417 91.7 16.1946C91.128 16.2742 90.5468 16.2608 89.979 16.1548L88.7327 16.3045C87.3481 16.4356 86.0391 16.56 85.2323 17.5631L85.1075 17.7161L84.9227 17.7783C84.168 18.035 83.6417 18.8279 83.1311 19.5945L82.9978 19.7951L82.9077 19.8652C81.9122 20.6212 81.8618 21.779 81.8042 23.1211C81.8042 23.1211 81.7213 24.1573 81.6995 24.4447C81.9819 25.0933 82.1566 25.7836 82.2168 26.4885C82.4569 27.3982 82.9803 28.2077 83.7111 28.7996L83.8981 28.9419L83.9541 29.1661C84.042 29.5185 84.407 29.7377 84.9916 30.0571C85.3272 30.226 85.6447 30.4286 85.9394 30.6617L86.0139 30.7223L86.0699 30.8035C86.1774 30.9666 86.4321 30.9924 86.945 31.0098C87.2791 31.0189 87.6108 31.0682 87.9332 31.1566C88.4215 30.9904 88.951 30.9904 89.4393 31.1566C89.6479 31.2299 89.8692 31.2603 90.0898 31.2462L90.1962 31.2238L90.302 31.235C90.5226 31.2365 90.742 31.2028 90.952 31.1353C91.5003 30.9489 92.0989 30.9792 92.6255 31.2199C92.8232 31.202 93.0628 31.1823 93.0628 31.1823C93.3639 31.1861 93.6628 31.1303 93.9424 31.0182C93.9996 30.802 94.0262 30.5788 94.0213 30.3552C94.0213 30.2656 94.0213 30.1742 94.0213 30.0812C94.0213 29.9881 94.0174 29.8806 94.0174 29.778C94.0176 29.4397 94.0576 29.1027 94.1367 28.7738C94.0302 28.5336 93.9731 28.2744 93.9687 28.0116L93.9659 28.0133ZM61.7873 24.3831C61.6781 23.9959 61.6255 23.8636 61.4262 23.7667L60.8663 23.4988L61.0836 22.9188C61.2361 22.559 61.4397 22.2233 61.6882 21.9218C62.0023 21.5055 62.1591 21.2701 62.1591 21.0252C62.1587 20.9685 62.1512 20.912 62.1367 20.8571L62.0494 20.5265L62.2649 20.2597C62.429 20.0276 62.5081 19.746 62.4889 19.4623C62.4794 19.1829 62.4419 18.9053 62.3769 18.6335C62.2548 18.4424 62.0186 18.0635 62.0186 18.0635C61.5471 17.256 61.2907 16.8996 60.7919 16.8834L60.5119 16.8744L60.3199 16.6631C59.8305 16.1279 58.8547 16.1744 58.0703 16.2114H58.0143C57.1137 16.3359 56.2004 16.3374 55.2994 16.2159C54.6 16.3653 53.8796 16.389 53.1719 16.286C52.703 16.2262 52.2294 16.2114 51.7576 16.2417C51.516 16.3845 51.2423 16.4639 50.9618 16.4723C50.6813 16.4807 50.4033 16.418 50.1536 16.2899C50.0482 16.2433 49.9399 16.2036 49.8294 16.1711C49.8294 16.1711 49.7801 16.2193 49.7661 16.2355C49.7555 16.2447 49.7472 16.2562 49.7417 16.2691C49.7363 16.2821 49.7339 16.2961 49.7348 16.3101C49.7487 16.4249 49.7757 16.5377 49.8154 16.6463C49.8963 16.8811 49.9416 17.1266 49.9498 17.3748C49.9394 17.6347 49.8553 17.8862 49.7073 18.1C49.6673 18.2284 49.6473 18.3622 49.648 18.4967C49.6747 18.9143 49.7596 19.3261 49.9005 19.7201L49.9772 19.9773L49.8971 20.1902C49.7233 20.6854 49.639 21.2076 49.648 21.7324C49.6501 22.1681 49.6919 22.6028 49.7729 23.0309L49.8014 23.1844L49.7594 23.3352C49.6467 23.7765 49.5933 24.2308 49.6004 24.6863C49.6139 25.4246 49.6916 26.1604 49.8328 26.8852L49.8832 27.1705L49.7101 27.4047C49.5767 27.6341 49.5145 27.8981 49.5315 28.1629C49.5324 28.5029 49.5905 28.8403 49.7034 29.161L49.8283 29.5006L49.6144 29.7943C49.4461 30.0861 49.3652 30.4204 49.3815 30.757C49.3807 30.9775 49.4175 31.1966 49.4901 31.4048C50.2955 31.4765 51.107 31.3842 51.8758 31.1336L52.1098 31.0445L52.3449 31.1308C53.0751 31.3825 53.8683 31.3825 54.5985 31.1308L54.921 31.0137L55.2048 31.2036C55.3521 31.2551 55.5068 31.282 55.6628 31.2832L56.0172 31.332C56.7165 31.215 57.4284 31.1929 58.1335 31.2664C58.5511 31.3065 58.9709 31.3166 59.3899 31.2967L61.1983 30.7099C61.5527 30.5704 61.7022 30.2168 61.9144 29.6514C62.0276 29.3123 62.1778 28.9868 62.3623 28.6808L62.4922 28.4807L62.6467 28.4308C62.6607 28.3893 62.7027 28.2806 62.715 28.2352C62.7044 28.1153 62.691 27.9954 62.691 27.8788C62.691 27.5914 62.7173 27.3123 62.7419 27.0551C62.7666 26.7978 62.7856 26.577 62.7856 26.3826C62.7989 26.1271 62.7358 25.8734 62.6042 25.6541C62.1861 25.3431 61.8962 24.8899 61.789 24.3797L61.7873 24.3831ZM110.87 28.8724C110.863 28.652 110.836 28.4326 110.791 28.2167C110.731 27.9214 110.698 27.6214 110.691 27.3201C110.695 27.1559 110.714 26.9923 110.747 26.8314L110.088 26.331C109.466 25.785 108.746 25.3626 107.966 25.0864L107.569 24.9653L107.401 24.2508C107.301 23.8993 107.244 23.5365 107.233 23.171C107.234 22.9181 107.279 22.6673 107.367 22.4301C107.358 22.4483 107.351 22.467 107.345 22.4862L107.374 22.3864C107.371 22.401 107.368 22.4158 107.367 22.4307C107.538 21.9367 107.89 21.5261 108.352 21.2813C108.352 21.2813 108.393 21.255 108.429 21.2292C108.791 20.5798 109.33 20.0461 109.982 19.6898C110.361 19.4809 110.689 19.189 110.94 18.8358C110.838 18.6176 110.681 18.43 110.484 18.2916L110.288 18.1291L110.245 17.8786C110.127 17.1641 109.317 16.6676 108.604 16.2305L108.462 16.1425L108.317 16.1649C107.722 16.2395 107.657 16.2938 107.624 16.43L107.54 16.7713L107.213 16.8974C106.544 17.2207 105.992 17.7454 105.635 18.3981L105.485 18.648L105.2 18.7108C105.127 18.7276 105.003 18.894 104.895 19.0397C104.65 19.453 104.256 19.7561 103.794 19.8859L103.45 19.961L103.192 19.7223C103.063 19.5998 102.96 19.452 102.89 19.2881C102.821 19.1243 102.785 18.9478 102.786 18.7696C102.613 18.499 102.516 18.1864 102.506 17.8652C102.517 17.5495 102.569 17.2366 102.661 16.9343C102.728 16.7203 102.768 16.4987 102.781 16.2748C102.779 16.2464 102.776 16.2182 102.772 16.1901C102.647 16.0327 102.432 16.022 101.652 16.2165C101.299 16.3205 100.936 16.3813 100.569 16.3975H100.132L100.017 16.1431C100.008 16.1431 99.9896 16.1369 99.9734 16.1341C99.4884 16.3005 98.9651 16.32 98.469 16.1901C98.3184 16.161 98.1823 16.147 98.0468 16.1341C98.0368 16.2092 98.0245 16.2832 98.0245 16.2832C98.0245 16.2832 98.0133 16.37 98.0043 16.4395C98.0702 16.6878 98.1078 16.9427 98.1163 17.1994C98.1092 17.5479 98.0793 17.8955 98.0267 18.2401C97.9828 18.5281 97.9568 18.8185 97.9489 19.1098C97.9422 19.3557 97.9878 19.6002 98.0827 19.8271L98.1823 20.0608L98.1079 20.304C97.9762 20.721 97.9079 21.1555 97.9052 21.5929C97.9016 21.8639 97.937 22.134 98.0105 22.3948L98.0435 22.4918L98.0021 24.1836L97.9629 27.4535L98.0004 27.8654C98.0296 28.064 98.0461 28.2643 98.0497 28.465C98.0511 28.6849 98.0157 28.9035 97.945 29.1117C97.888 29.4162 97.8597 29.7254 97.8604 30.0352C97.8664 30.4421 97.9038 30.8479 97.9724 31.249C98.0284 31.2311 98.0877 31.2149 98.0877 31.2149C98.3769 31.0907 98.6914 31.0368 99.0054 31.0574L99.1801 31.0776L99.3228 31.179C99.4311 31.2346 99.5543 31.2542 99.6744 31.235L100.122 31.0966C100.122 31.0966 100.203 31.188 100.283 31.2771C100.317 31.2771 100.339 31.277 100.385 31.2737C100.63 31.0905 100.923 30.9833 101.228 30.9656C101.533 30.9478 101.837 31.0203 102.102 31.1739C102.464 31.3421 102.493 31.3236 102.565 31.272L102.691 31.2009C102.674 31.1258 102.643 31.0176 102.617 30.9324C102.516 30.6607 102.459 30.3747 102.449 30.0851C102.448 29.8339 102.508 29.5862 102.625 29.3639L102.67 29.2815L102.736 29.2114C102.788 29.1031 102.808 28.982 102.792 28.8629C102.792 28.7895 102.792 28.7127 102.787 28.6432C102.787 28.553 102.782 28.4628 102.782 28.3686C102.772 28.0744 102.823 27.7813 102.932 27.5078L103.191 26.9116L103.797 27.1475C104.268 27.3708 104.662 27.7288 104.929 28.1764L105.113 28.4269L105.029 28.3389L105.793 29.1408C106.057 29.4666 106.357 29.7611 106.689 30.0184C106.987 30.0472 107.277 30.1398 107.537 30.29C107.797 30.4403 108.021 30.6446 108.196 30.8893C108.433 31.1599 108.578 31.3157 108.766 31.3437L108.967 31.4093L109.079 31.476C109.208 31.4888 109.339 31.4835 109.466 31.4603C109.8 31.3943 110.145 31.4177 110.466 31.5281L110.51 31.5461C110.51 31.5461 110.554 31.5707 110.557 31.573C110.579 31.2925 110.63 31.0151 110.71 30.7452C110.771 30.5622 110.808 30.3722 110.822 30.1798C110.822 30.0879 110.803 29.9969 110.766 29.9131L110.64 29.6256L110.777 29.3454C110.849 29.1993 110.884 29.0383 110.88 28.8758L110.87 28.8724ZM80.4493 30.4073C80.0517 29.7029 79.755 28.9461 79.568 28.159C79.4201 27.5025 79.1869 26.8681 78.8743 26.2722L78.7965 26.1388L78.7859 25.983C78.7252 25.3643 78.4811 24.7778 78.0849 24.299L78.1588 24.3803C77.9657 24.1776 77.8213 23.9335 77.7365 23.6666C77.6517 23.3996 77.6288 23.1169 77.6694 22.8398C77.679 22.5674 77.679 22.3965 77.6135 22.3175C77.3 22.0164 77.0532 21.6527 76.8893 21.2501C76.7253 20.8474 76.6478 20.4147 76.6617 19.9801C76.6658 19.5541 76.5737 19.1326 76.3924 18.7472C76.1177 18.3187 75.9496 17.8307 75.9019 17.3238C75.876 17.0538 75.8046 16.79 75.6908 16.5438L75.669 16.5012L75.65 16.4558C75.538 16.1728 75.5195 16.1279 74.7788 16.2568C74.317 16.3525 73.8404 16.3514 73.3791 16.2535C73.2915 16.2619 73.2032 16.2558 73.1176 16.2355L72.9939 16.2714C72.5974 16.4212 72.1592 16.4172 71.7655 16.2602C71.5472 16.2703 70.8221 16.3005 70.8221 16.3005C70.0076 16.391 69.1844 16.3652 68.3771 16.2238C68.3452 16.2406 68.3027 16.2591 68.3027 16.2591C68.1175 16.3825 67.8986 16.4453 67.6762 16.4388C67.4539 16.4322 67.239 16.3567 67.0614 16.2226C66.9567 16.1946 66.8811 16.1761 66.8526 16.1666C66.7778 16.3307 66.7377 16.5085 66.735 16.6889C66.7349 16.7904 66.7458 16.8917 66.7675 16.9909C66.8893 17.266 66.9537 17.5631 66.9567 17.864C66.9479 18.1917 66.9061 18.5176 66.8319 18.8369C66.7792 19.0612 66.7468 19.2898 66.735 19.52C66.7321 19.6643 66.7781 19.8053 66.8654 19.9201C66.9396 19.9315 67.0144 19.9374 67.0894 19.938C67.3264 19.9202 67.5644 19.9574 67.7847 20.0468C68.005 20.1363 68.2016 20.2755 68.3592 20.4536L68.5182 20.7035L68.5037 21.4881C68.5037 21.5615 68.5037 21.6361 68.5037 21.7123C68.5547 22.4144 68.3398 23.11 67.9018 23.6607C67.8481 24.1704 67.6846 24.6624 67.4225 25.1026C67.2506 25.3585 67.142 25.6516 67.1056 25.9578C67.1056 25.9774 67.1056 25.9965 67.109 26.0138L67.1353 26.3321L66.9069 26.5563C66.4968 27.077 66.2408 27.7023 66.1678 28.3613L66.0508 28.8853C66.0508 28.8853 65.9153 28.8987 65.7838 28.91C65.714 29.4643 65.5108 29.9934 65.1914 30.4516C65.0172 30.713 64.8897 31.0027 64.8146 31.3079C64.9297 31.2985 65.0442 31.2834 65.1578 31.2625C65.4546 31.2049 65.7582 31.19 66.0592 31.2182C66.4157 31.1004 66.7967 31.0782 67.1644 31.1538C67.1644 31.1538 67.2971 31.1667 67.399 31.1784C67.8486 31.0015 68.3468 30.9932 68.8021 31.1549C69.1066 31.2406 69.185 31.2339 69.2466 31.1992C69.2864 31.1313 69.3164 31.0581 69.3356 30.9817L69.4017 30.6819L69.5949 30.502L69.68 30.3042C69.7684 29.998 69.9399 29.7224 70.1754 29.5079L70.2001 29.4866L70.2258 29.4687C71.2627 28.7402 72.5544 28.8746 73.5924 28.9822L73.7805 29.0002C75.0246 28.9514 75.5833 30.1002 75.9187 30.7934C75.9187 30.7934 75.9685 30.8904 76.0167 30.9868C76.1932 31.0332 76.3772 31.0437 76.5578 31.0176C76.7384 30.9915 76.912 30.9294 77.0681 30.8349L77.4304 30.6248L77.7786 30.8556C78.1067 31.0731 78.521 31.0131 79.1638 30.8893L80.0881 30.7211C80.0881 30.7211 80.1704 30.9066 80.2359 31.049L80.3429 31.068C80.4116 31.0372 80.4741 30.9939 80.5271 30.9403C80.5178 30.7813 80.4952 30.6235 80.4593 30.4684L80.447 30.4045L80.4493 30.4073ZM46.1168 15.985L46.2031 15.9531C46.1661 15.9693 46.1308 15.9727 46.0944 15.9873H46.1168V15.985ZM32.4558 28.9419L32.3684 28.8192L32.3656 27.8172C32.3656 27.6799 32.3684 27.542 32.3684 27.4047C32.4027 26.8372 32.3121 26.269 32.103 25.7404L31.9278 25.3772L32.1629 25.0511C32.357 24.7581 32.4514 24.4102 32.4322 24.0592C32.422 23.7024 32.3877 23.3467 32.3298 22.9944L32.2178 22.0272C32.2178 22.0272 32.3858 21.5598 32.4317 21.4287C32.4378 21.3273 32.4423 21.2264 32.4423 21.125C32.4328 20.6653 32.3954 20.2066 32.3303 19.7515C32.265 19.2862 32.2276 18.8174 32.2184 18.3477C32.2183 17.9554 32.268 17.5646 32.3662 17.1848C32.3511 16.9556 32.3219 16.4939 32.3219 16.4928C32.3348 16.2561 32.3052 16.019 32.2346 15.7928C32.1083 15.7778 31.9807 15.8086 31.8752 15.8797L31.5224 16.2927L31.0437 16.0366C30.7431 15.9094 30.4181 15.8503 30.0919 15.8634C30.0919 15.8634 29.8999 15.8489 29.7107 15.8309L29.4867 16.0131L29.4167 16.0478C29.2146 16.14 28.992 16.1777 28.7709 16.1574C28.5498 16.137 28.3378 16.0593 28.1559 15.9318C27.9924 15.9649 27.8252 15.9762 27.6587 15.9654C27.6148 16.1645 27.588 16.367 27.5786 16.5706C27.5786 16.7673 27.5904 16.9668 27.6016 17.1781C27.6128 17.3894 27.6273 17.6203 27.6273 17.8579C27.6232 18.1675 27.5906 18.4761 27.5299 18.7797C27.5981 19.2893 27.6317 19.8028 27.6307 20.3169C27.6307 20.7091 27.6173 21.0852 27.6033 21.4612C27.5893 21.8372 27.5775 22.1897 27.5775 22.5495C27.5688 23.1694 27.6266 23.7884 27.75 24.396L27.7567 24.5893L27.6789 25.338C27.7012 25.6757 27.6543 26.0145 27.5409 26.3334C27.4276 26.6523 27.2503 26.9446 27.0199 27.1923C27.0322 27.1795 27.0473 27.1744 27.0585 27.1604L26.9756 27.2445C26.9941 27.2277 27.0014 27.2086 27.0193 27.1923C26.633 27.6154 26.1095 27.653 25.4517 27.2882L25.3509 27.2321L25.4147 27.2602C24.5234 26.9419 24.3744 26.0273 24.2949 25.5386L24.2518 25.2808L24.286 25.1441C24.2889 25.1295 24.2904 25.1147 24.2905 25.0998C24.2761 24.9757 24.2443 24.8542 24.1958 24.7389C24.1037 24.5054 24.0515 24.258 24.0413 24.0071C24.0475 23.8196 24.0959 23.6358 24.183 23.4697C24.2396 23.1219 24.2688 22.7702 24.2703 22.4178C24.2703 22.0382 24.2392 21.6592 24.1774 21.2847L24.141 21.0605L24.2457 20.8582C24.3046 20.695 24.3288 20.5214 24.3168 20.3483C24.3168 20.23 24.3123 20.1095 24.3084 19.9975C24.3084 19.9975 24.3084 19.7352 24.3084 19.5536C24.124 19.1922 24.0263 18.7927 24.0228 18.3869C24.0321 18.039 24.0695 17.6925 24.1348 17.3507C24.1882 17.0734 24.2198 16.7924 24.2294 16.5101C24.2285 16.3403 24.1967 16.172 24.1354 16.0136C23.8949 16.0134 23.657 16.063 23.4366 16.1593L23.1567 16.2815L22.8796 16.1481C22.5743 15.977 22.233 15.8805 21.8835 15.8664C21.5339 15.8523 21.1859 15.9209 20.8679 16.0669L20.7655 16.1229L20.6535 16.1431C20.3231 16.1904 19.9862 16.1571 19.6714 16.0461C19.6341 16.1897 19.6166 16.3377 19.6194 16.486C19.6194 16.6726 19.6345 16.8705 19.6463 17.0464C19.6463 17.0464 19.6575 17.233 19.6642 17.3541C19.7913 17.6282 19.8594 17.9261 19.864 18.2283C19.8558 18.5392 19.8158 18.8485 19.7448 19.1513C19.6895 19.3778 19.6565 19.6092 19.6463 19.8422C19.6449 19.9738 19.6692 20.1044 19.7179 20.2267L19.7739 20.3477L19.7386 21.6007C19.7224 22.0608 19.7062 22.526 19.7062 22.9849C19.6918 23.6652 19.7531 24.3451 19.8887 25.0119L19.9335 25.2013L19.8691 25.3856C19.8199 25.5299 19.7961 25.6816 19.7985 25.8339C19.8183 26.195 19.8811 26.5525 19.9855 26.8987C19.9855 26.8987 20.0785 27.3616 20.1384 27.6648C20.5244 28.053 20.8014 28.5362 20.9413 29.0658C21.1406 29.6693 21.243 29.8912 21.5907 30.0022C22.0148 30.087 22.4157 30.2618 22.7665 30.5149C23.1707 30.7761 23.3577 30.8769 23.5833 30.8243L23.837 30.7626L24.0654 30.8887C24.4485 31.0276 24.8622 31.059 25.2619 30.9795L25.6694 30.9543C25.8766 30.8879 26.0752 30.7975 26.2612 30.6847C26.5276 30.4972 26.8286 30.3646 27.1467 30.2947C27.4647 30.2247 27.7935 30.2188 28.1139 30.2773L28.4045 30.3474L28.5478 30.6091C28.6782 30.8478 28.9694 30.8893 29.5556 30.9156L29.9201 30.9425L30.0427 30.919C30.2986 30.8477 30.5654 30.8238 30.8299 30.8484L31.1417 30.882C31.8593 31.0277 32.6031 30.9722 33.2911 30.7217C33.2177 30.2379 33.0253 29.78 32.7312 29.3891L32.4602 28.9408L32.4558 28.9419ZM46.1683 17.2028C46.1631 16.7994 46.1244 16.3971 46.0524 16.0002C45.6684 16.1177 45.2627 16.146 44.8661 16.0831C44.4254 16.0327 44.3359 16.0456 44.2272 16.1689L43.7172 16.7477L43.2508 16.2126L43.0963 16.2176C42.7915 16.2421 42.4857 16.1841 42.2111 16.0495C42.0622 16.0534 41.9105 16.0557 41.9105 16.0557C41.6966 16.0456 41.5969 16.0433 41.5398 16.0853L41.3875 16.1974L41.2005 16.2131C40.428 16.2429 39.6548 16.1707 38.9011 15.9985C38.6026 16.1319 38.2806 16.2046 37.9537 16.2122C37.6269 16.2198 37.3019 16.1622 36.9975 16.0428C36.7012 15.9791 36.393 16.0007 36.1084 16.105C36.0944 16.5706 36.0625 17.5715 36.0625 17.581C36.0867 17.7134 36.1011 17.8473 36.1056 17.9817C36.1006 18.2271 36.0819 18.472 36.0496 18.7153C36.0238 18.9101 36.0087 19.1061 36.0043 19.3026C35.9925 19.4241 36.0251 19.5457 36.0961 19.645C36.1905 19.6291 36.2866 19.6268 36.3816 19.6382C36.7449 19.5484 37.1226 19.5334 37.4919 19.594L38.0014 19.6433L38.129 19.7201C38.3693 19.8693 38.5632 20.0827 38.6889 20.3362C38.8147 20.5898 38.8672 20.8734 38.8406 21.1552C38.8406 21.2628 38.8362 21.3626 38.8322 21.4517C38.8272 21.5318 38.8238 21.6243 38.8238 21.7106C38.8163 21.8034 38.8291 21.8967 38.8613 21.984L39.036 22.2558L38.933 22.5641C38.8426 22.8438 38.7991 23.1365 38.8042 23.4304C38.8146 23.8107 38.8494 24.19 38.9084 24.5658C38.976 24.9961 39.0145 25.4304 39.0237 25.8659C39.0216 26.3137 38.9426 26.7579 38.7902 27.1789C38.861 27.4891 38.8974 27.8061 38.8989 28.1243C38.892 28.5153 38.8626 28.9056 38.811 29.2933C38.7644 29.6318 38.7373 29.9727 38.7298 30.3143C38.7323 30.5664 38.7663 30.8171 38.8311 31.0608C38.9974 31.0897 39.1663 31.1012 39.335 31.0949C39.3619 31.0865 39.447 31.0551 39.447 31.0551C39.6088 30.9777 39.7847 30.9337 39.9639 30.9259C40.1431 30.9181 40.3221 30.9467 40.49 31.0098C40.7089 31.0277 41.0449 31.0563 41.0449 31.0563C41.4166 31.1123 41.5594 31.1246 41.6876 31.0372C41.9255 30.8724 42.2061 30.7803 42.4952 30.7722C42.7844 30.7642 43.0697 30.8405 43.3163 30.9918L43.4053 31.0271C43.423 30.9769 43.4359 30.9251 43.444 30.8725C43.4403 30.6821 43.4012 30.4942 43.3286 30.3182L43.2726 30.1893L43.304 29.3644C43.3225 28.9161 43.3415 28.4644 43.3415 28.0161C43.3495 27.4622 43.3056 26.9087 43.2105 26.363L43.1646 26.1181L43.2894 25.9001C43.358 25.7668 43.3904 25.6178 43.3835 25.468C43.3758 25.2509 43.3524 25.0345 43.3135 24.8208C43.2642 24.5478 43.2359 24.2715 43.229 23.9942C43.2289 23.9092 43.2332 23.8243 43.2419 23.7398L43.2491 23.6703L43.2687 23.6036C43.3254 23.4208 43.3526 23.2301 43.3494 23.0387C43.3447 22.8192 43.3277 22.6001 43.2984 22.3825C43.2653 22.1222 43.2466 21.8603 43.2424 21.5979C43.2351 21.1907 43.3199 20.787 43.4904 20.4172C44.0268 19.1944 45.0704 19.413 45.5715 19.5206C45.7389 19.5712 45.9155 19.5834 46.0883 19.5564C46.0729 19.3988 46.0415 19.2432 45.9948 19.0919L45.8778 18.6637L45.9618 18.4547C46.1071 18.0551 46.1768 17.6319 46.1672 17.2067L46.1683 17.2028ZM16.4337 21.7369L16.4398 21.538C16.4398 21.4999 16.4398 21.4634 16.4398 21.4259C16.4515 20.9162 16.3393 20.4113 16.113 19.9546C15.8866 19.4978 15.5528 19.1029 15.1403 18.8038L14.9763 18.6873L14.9029 18.4984C14.6641 18.0409 14.3092 17.6543 13.8739 17.3776L13.6701 17.2145C13.2777 17.1035 12.9145 16.9074 12.6063 16.6401C12.2782 16.3835 12.1142 16.2725 11.9266 16.2888L11.6736 16.3134L11.4681 16.1649C10.7615 15.6505 9.63392 15.6606 8.64013 15.6606H8.20342L8.09704 15.6253C7.96827 15.5816 7.85462 15.6253 7.5618 15.7502C7.24738 15.9092 6.90261 15.999 6.55065 16.0136C6.14394 16.2679 5.70001 16.457 5.23494 16.574C4.90021 16.6453 4.58102 16.7762 4.29266 16.9607C4.04318 17.4566 3.64151 17.8594 3.14658 18.11C2.76138 18.3342 2.59958 18.4508 2.54135 18.6643L2.46465 18.9512L2.20095 19.0879C2.11808 19.1316 2.06433 19.26 1.96971 19.5256C1.85858 19.8388 1.6906 20.1287 1.47422 20.3808C1.42383 20.5562 1.06439 21.8036 1.02128 21.9499C1.02128 22.118 1.01232 22.7871 1.01232 22.7871C1.00616 23.0583 1 23.3301 1 23.6025C1 24.7193 1.10582 25.8003 1.75696 26.5535L1.8443 26.6532L1.88629 26.781C2.1304 27.5095 2.856 29.2467 4.31281 29.6457L4.51269 29.7018L4.64706 29.8576C5.17046 30.3215 5.82647 30.6087 6.5221 30.6786C6.5221 30.6786 6.86643 30.7559 6.91402 30.7705L7.24995 30.7884C7.54863 30.7771 7.84612 30.832 8.12112 30.9492C9.30359 31.0921 10.9664 31.1734 12.0061 30.3233L12.1931 30.1725H12.4333C12.6291 30.1437 12.8151 30.0684 12.9758 29.9528L13.58 29.6614L13.4719 29.7091C14.0168 29.3508 14.4811 28.8828 14.8352 28.335C15.2088 27.7967 15.6543 27.3121 16.1593 26.8948C16.2982 26.7961 16.3273 26.5787 16.3553 26.1388C16.3515 25.6065 16.5157 25.0866 16.8245 24.6532L16.8457 24.1298C16.8597 23.8496 16.8737 23.5918 16.8737 23.3453C16.9023 22.8405 16.7867 22.3381 16.5406 21.8966L16.4376 21.7285L16.4337 21.7369Z"/>
</mask>
<path d="M71.9363 22.4066C72.3226 22.4424 73.0975 22.2598 73.2727 22.8437C73.4934 23.5142 73.5883 24.2199 73.5526 24.925C72.9547 25.2898 72.4273 26.057 71.761 25.3621C71.0237 25.0696 71.41 24.3035 71.4453 23.719C72.079 23.5005 71.8327 22.8442 71.9374 22.4066H71.9363ZM55.3358 18.8812C56.0553 18.7803 56.8733 18.8128 57.1997 19.6287C57.2249 20.1191 57.1051 20.6061 56.8552 21.0287C56.6054 21.4514 56.2365 21.7909 55.7949 22.0048C55.4685 21.9017 55.076 21.8333 54.9433 21.427C54.8135 20.5791 54.356 19.4242 55.3353 18.8812H55.3358ZM55.1264 24.5148C55.6829 24.7698 56.2395 24.2906 56.7031 24.7389C57.2881 25.4114 57.1342 26.4375 56.857 27.2047C56.7031 27.5583 56.3621 28.0066 55.9612 28.0397C55.5917 27.9113 55.0027 27.9113 54.912 27.3672C54.5402 26.405 54.9417 25.4109 55.127 24.5137L55.1264 24.5148ZM6.70966 21.6176C7.21691 20.9899 7.70457 20.3012 8.50575 20.0983C9.44187 20.2205 10.0275 20.9283 10.6131 21.6176C10.8901 22.9457 10.7752 24.3258 10.2823 25.5896C9.91106 26.0755 9.38645 26.6415 8.74035 26.6213C7.80367 26.8645 7.29586 26.0962 6.86699 25.4445C6.74941 24.4722 6.47507 23.5391 6.71078 22.5865V21.6131L6.70966 21.6176ZM93.9659 28.0133C93.969 27.793 93.9877 27.5731 94.0219 27.3554C94.0468 27.2026 94.0617 27.0484 94.0667 26.8937C94.0694 26.8332 94.0599 26.7727 94.0387 26.716C93.9564 26.7059 93.8578 26.697 93.8578 26.697C93.7493 26.6727 93.6382 26.6614 93.5269 26.6633L93.5365 26.66L93.331 26.7423L92.0992 26.8264C91.2659 26.9452 90.4192 26.9356 89.5887 26.7978L89.4913 26.7782L87.8749 25.9163L87.7798 25.7577C87.3996 25.1344 87.1906 24.4217 87.174 23.6916C87.1692 23.2533 87.2751 22.821 87.4819 22.4346C87.4748 22.4453 87.4683 22.4563 87.4623 22.4677L87.4948 22.401C87.4897 22.4119 87.4853 22.4231 87.4819 22.4346C87.8031 21.8462 88.3126 21.3829 88.9287 21.1194L89.3698 20.8633C89.6592 20.5992 90.0078 20.4088 90.3862 20.3083C90.7647 20.2077 91.1618 20.1999 91.5438 20.2855C91.859 20.3432 92.1825 20.338 92.4956 20.2704C92.9003 20.1147 93.3437 20.0908 93.7627 20.202C93.8561 20.221 93.9508 20.2335 94.0459 20.2396C94.0566 20.1886 94.0644 20.1372 94.0695 20.0854C94.0638 19.8902 94.047 19.6954 94.0191 19.5021C93.9837 19.2589 93.9641 19.0137 93.9603 18.768C93.9626 18.5576 93.9908 18.3483 94.0443 18.1448C93.9916 17.923 93.9645 17.6958 93.9636 17.4678C93.9636 17.3126 93.972 17.1557 93.9788 17.0027C93.9855 16.8497 93.9894 16.7102 93.9894 16.5858C94.0044 16.3748 93.9575 16.1641 93.8545 15.9794C93.8394 15.9794 93.794 15.9727 93.794 15.9727C93.5141 15.9391 93.3735 15.9284 93.3097 15.9839L93.0902 16.1795L92.7963 16.1503C92.4303 16.1269 92.0629 16.1417 91.7 16.1946C91.128 16.2742 90.5468 16.2608 89.979 16.1548L88.7327 16.3045C87.3481 16.4356 86.0391 16.56 85.2323 17.5631L85.1075 17.7161L84.9227 17.7783C84.168 18.035 83.6417 18.8279 83.1311 19.5945L82.9978 19.7951L82.9077 19.8652C81.9122 20.6212 81.8618 21.779 81.8042 23.1211C81.8042 23.1211 81.7213 24.1573 81.6995 24.4447C81.9819 25.0933 82.1566 25.7836 82.2168 26.4885C82.4569 27.3982 82.9803 28.2077 83.7111 28.7996L83.8981 28.9419L83.9541 29.1661C84.042 29.5185 84.407 29.7377 84.9916 30.0571C85.3272 30.226 85.6447 30.4286 85.9394 30.6617L86.0139 30.7223L86.0699 30.8035C86.1774 30.9666 86.4321 30.9924 86.945 31.0098C87.2791 31.0189 87.6108 31.0682 87.9332 31.1566C88.4215 30.9904 88.951 30.9904 89.4393 31.1566C89.6479 31.2299 89.8692 31.2603 90.0898 31.2462L90.1962 31.2238L90.302 31.235C90.5226 31.2365 90.742 31.2028 90.952 31.1353C91.5003 30.9489 92.0989 30.9792 92.6255 31.2199C92.8232 31.202 93.0628 31.1823 93.0628 31.1823C93.3639 31.1861 93.6628 31.1303 93.9424 31.0182C93.9996 30.802 94.0262 30.5788 94.0213 30.3552C94.0213 30.2656 94.0213 30.1742 94.0213 30.0812C94.0213 29.9881 94.0174 29.8806 94.0174 29.778C94.0176 29.4397 94.0576 29.1027 94.1367 28.7738C94.0302 28.5336 93.9731 28.2744 93.9687 28.0116L93.9659 28.0133ZM61.7873 24.3831C61.6781 23.9959 61.6255 23.8636 61.4262 23.7667L60.8663 23.4988L61.0836 22.9188C61.2361 22.559 61.4397 22.2233 61.6882 21.9218C62.0023 21.5055 62.1591 21.2701 62.1591 21.0252C62.1587 20.9685 62.1512 20.912 62.1367 20.8571L62.0494 20.5265L62.2649 20.2597C62.429 20.0276 62.5081 19.746 62.4889 19.4623C62.4794 19.1829 62.4419 18.9053 62.3769 18.6335C62.2548 18.4424 62.0186 18.0635 62.0186 18.0635C61.5471 17.256 61.2907 16.8996 60.7919 16.8834L60.5119 16.8744L60.3199 16.6631C59.8305 16.1279 58.8547 16.1744 58.0703 16.2114H58.0143C57.1137 16.3359 56.2004 16.3374 55.2994 16.2159C54.6 16.3653 53.8796 16.389 53.1719 16.286C52.703 16.2262 52.2294 16.2114 51.7576 16.2417C51.516 16.3845 51.2423 16.4639 50.9618 16.4723C50.6813 16.4807 50.4033 16.418 50.1536 16.2899C50.0482 16.2433 49.9399 16.2036 49.8294 16.1711C49.8294 16.1711 49.7801 16.2193 49.7661 16.2355C49.7555 16.2447 49.7472 16.2562 49.7417 16.2691C49.7363 16.2821 49.7339 16.2961 49.7348 16.3101C49.7487 16.4249 49.7757 16.5377 49.8154 16.6463C49.8963 16.8811 49.9416 17.1266 49.9498 17.3748C49.9394 17.6347 49.8553 17.8862 49.7073 18.1C49.6673 18.2284 49.6473 18.3622 49.648 18.4967C49.6747 18.9143 49.7596 19.3261 49.9005 19.7201L49.9772 19.9773L49.8971 20.1902C49.7233 20.6854 49.639 21.2076 49.648 21.7324C49.6501 22.1681 49.6919 22.6028 49.7729 23.0309L49.8014 23.1844L49.7594 23.3352C49.6467 23.7765 49.5933 24.2308 49.6004 24.6863C49.6139 25.4246 49.6916 26.1604 49.8328 26.8852L49.8832 27.1705L49.7101 27.4047C49.5767 27.6341 49.5145 27.8981 49.5315 28.1629C49.5324 28.5029 49.5905 28.8403 49.7034 29.161L49.8283 29.5006L49.6144 29.7943C49.4461 30.0861 49.3652 30.4204 49.3815 30.757C49.3807 30.9775 49.4175 31.1966 49.4901 31.4048C50.2955 31.4765 51.107 31.3842 51.8758 31.1336L52.1098 31.0445L52.3449 31.1308C53.0751 31.3825 53.8683 31.3825 54.5985 31.1308L54.921 31.0137L55.2048 31.2036C55.3521 31.2551 55.5068 31.282 55.6628 31.2832L56.0172 31.332C56.7165 31.215 57.4284 31.1929 58.1335 31.2664C58.5511 31.3065 58.9709 31.3166 59.3899 31.2967L61.1983 30.7099C61.5527 30.5704 61.7022 30.2168 61.9144 29.6514C62.0276 29.3123 62.1778 28.9868 62.3623 28.6808L62.4922 28.4807L62.6467 28.4308C62.6607 28.3893 62.7027 28.2806 62.715 28.2352C62.7044 28.1153 62.691 27.9954 62.691 27.8788C62.691 27.5914 62.7173 27.3123 62.7419 27.0551C62.7666 26.7978 62.7856 26.577 62.7856 26.3826C62.7989 26.1271 62.7358 25.8734 62.6042 25.6541C62.1861 25.3431 61.8962 24.8899 61.789 24.3797L61.7873 24.3831ZM110.87 28.8724C110.863 28.652 110.836 28.4326 110.791 28.2167C110.731 27.9214 110.698 27.6214 110.691 27.3201C110.695 27.1559 110.714 26.9923 110.747 26.8314L110.088 26.331C109.466 25.785 108.746 25.3626 107.966 25.0864L107.569 24.9653L107.401 24.2508C107.301 23.8993 107.244 23.5365 107.233 23.171C107.234 22.9181 107.279 22.6673 107.367 22.4301C107.358 22.4483 107.351 22.467 107.345 22.4862L107.374 22.3864C107.371 22.401 107.368 22.4158 107.367 22.4307C107.538 21.9367 107.89 21.5261 108.352 21.2813C108.352 21.2813 108.393 21.255 108.429 21.2292C108.791 20.5798 109.33 20.0461 109.982 19.6898C110.361 19.4809 110.689 19.189 110.94 18.8358C110.838 18.6176 110.681 18.43 110.484 18.2916L110.288 18.1291L110.245 17.8786C110.127 17.1641 109.317 16.6676 108.604 16.2305L108.462 16.1425L108.317 16.1649C107.722 16.2395 107.657 16.2938 107.624 16.43L107.54 16.7713L107.213 16.8974C106.544 17.2207 105.992 17.7454 105.635 18.3981L105.485 18.648L105.2 18.7108C105.127 18.7276 105.003 18.894 104.895 19.0397C104.65 19.453 104.256 19.7561 103.794 19.8859L103.45 19.961L103.192 19.7223C103.063 19.5998 102.96 19.452 102.89 19.2881C102.821 19.1243 102.785 18.9478 102.786 18.7696C102.613 18.499 102.516 18.1864 102.506 17.8652C102.517 17.5495 102.569 17.2366 102.661 16.9343C102.728 16.7203 102.768 16.4987 102.781 16.2748C102.779 16.2464 102.776 16.2182 102.772 16.1901C102.647 16.0327 102.432 16.022 101.652 16.2165C101.299 16.3205 100.936 16.3813 100.569 16.3975H100.132L100.017 16.1431C100.008 16.1431 99.9896 16.1369 99.9734 16.1341C99.4884 16.3005 98.9651 16.32 98.469 16.1901C98.3184 16.161 98.1823 16.147 98.0468 16.1341C98.0368 16.2092 98.0245 16.2832 98.0245 16.2832C98.0245 16.2832 98.0133 16.37 98.0043 16.4395C98.0702 16.6878 98.1078 16.9427 98.1163 17.1994C98.1092 17.5479 98.0793 17.8955 98.0267 18.2401C97.9828 18.5281 97.9568 18.8185 97.9489 19.1098C97.9422 19.3557 97.9878 19.6002 98.0827 19.8271L98.1823 20.0608L98.1079 20.304C97.9762 20.721 97.9079 21.1555 97.9052 21.5929C97.9016 21.8639 97.937 22.134 98.0105 22.3948L98.0435 22.4918L98.0021 24.1836L97.9629 27.4535L98.0004 27.8654C98.0296 28.064 98.0461 28.2643 98.0497 28.465C98.0511 28.6849 98.0157 28.9035 97.945 29.1117C97.888 29.4162 97.8597 29.7254 97.8604 30.0352C97.8664 30.4421 97.9038 30.8479 97.9724 31.249C98.0284 31.2311 98.0877 31.2149 98.0877 31.2149C98.3769 31.0907 98.6914 31.0368 99.0054 31.0574L99.1801 31.0776L99.3228 31.179C99.4311 31.2346 99.5543 31.2542 99.6744 31.235L100.122 31.0966C100.122 31.0966 100.203 31.188 100.283 31.2771C100.317 31.2771 100.339 31.277 100.385 31.2737C100.63 31.0905 100.923 30.9833 101.228 30.9656C101.533 30.9478 101.837 31.0203 102.102 31.1739C102.464 31.3421 102.493 31.3236 102.565 31.272L102.691 31.2009C102.674 31.1258 102.643 31.0176 102.617 30.9324C102.516 30.6607 102.459 30.3747 102.449 30.0851C102.448 29.8339 102.508 29.5862 102.625 29.3639L102.67 29.2815L102.736 29.2114C102.788 29.1031 102.808 28.982 102.792 28.8629C102.792 28.7895 102.792 28.7127 102.787 28.6432C102.787 28.553 102.782 28.4628 102.782 28.3686C102.772 28.0744 102.823 27.7813 102.932 27.5078L103.191 26.9116L103.797 27.1475C104.268 27.3708 104.662 27.7288 104.929 28.1764L105.113 28.4269L105.029 28.3389L105.793 29.1408C106.057 29.4666 106.357 29.7611 106.689 30.0184C106.987 30.0472 107.277 30.1398 107.537 30.29C107.797 30.4403 108.021 30.6446 108.196 30.8893C108.433 31.1599 108.578 31.3157 108.766 31.3437L108.967 31.4093L109.079 31.476C109.208 31.4888 109.339 31.4835 109.466 31.4603C109.8 31.3943 110.145 31.4177 110.466 31.5281L110.51 31.5461C110.51 31.5461 110.554 31.5707 110.557 31.573C110.579 31.2925 110.63 31.0151 110.71 30.7452C110.771 30.5622 110.808 30.3722 110.822 30.1798C110.822 30.0879 110.803 29.9969 110.766 29.9131L110.64 29.6256L110.777 29.3454C110.849 29.1993 110.884 29.0383 110.88 28.8758L110.87 28.8724ZM80.4493 30.4073C80.0517 29.7029 79.755 28.9461 79.568 28.159C79.4201 27.5025 79.1869 26.8681 78.8743 26.2722L78.7965 26.1388L78.7859 25.983C78.7252 25.3643 78.4811 24.7778 78.0849 24.299L78.1588 24.3803C77.9657 24.1776 77.8213 23.9335 77.7365 23.6666C77.6517 23.3996 77.6288 23.1169 77.6694 22.8398C77.679 22.5674 77.679 22.3965 77.6135 22.3175C77.3 22.0164 77.0532 21.6527 76.8893 21.2501C76.7253 20.8474 76.6478 20.4147 76.6617 19.9801C76.6658 19.5541 76.5737 19.1326 76.3924 18.7472C76.1177 18.3187 75.9496 17.8307 75.9019 17.3238C75.876 17.0538 75.8046 16.79 75.6908 16.5438L75.669 16.5012L75.65 16.4558C75.538 16.1728 75.5195 16.1279 74.7788 16.2568C74.317 16.3525 73.8404 16.3514 73.3791 16.2535C73.2915 16.2619 73.2032 16.2558 73.1176 16.2355L72.9939 16.2714C72.5974 16.4212 72.1592 16.4172 71.7655 16.2602C71.5472 16.2703 70.8221 16.3005 70.8221 16.3005C70.0076 16.391 69.1844 16.3652 68.3771 16.2238C68.3452 16.2406 68.3027 16.2591 68.3027 16.2591C68.1175 16.3825 67.8986 16.4453 67.6762 16.4388C67.4539 16.4322 67.239 16.3567 67.0614 16.2226C66.9567 16.1946 66.8811 16.1761 66.8526 16.1666C66.7778 16.3307 66.7377 16.5085 66.735 16.6889C66.7349 16.7904 66.7458 16.8917 66.7675 16.9909C66.8893 17.266 66.9537 17.5631 66.9567 17.864C66.9479 18.1917 66.9061 18.5176 66.8319 18.8369C66.7792 19.0612 66.7468 19.2898 66.735 19.52C66.7321 19.6643 66.7781 19.8053 66.8654 19.9201C66.9396 19.9315 67.0144 19.9374 67.0894 19.938C67.3264 19.9202 67.5644 19.9574 67.7847 20.0468C68.005 20.1363 68.2016 20.2755 68.3592 20.4536L68.5182 20.7035L68.5037 21.4881C68.5037 21.5615 68.5037 21.6361 68.5037 21.7123C68.5547 22.4144 68.3398 23.11 67.9018 23.6607C67.8481 24.1704 67.6846 24.6624 67.4225 25.1026C67.2506 25.3585 67.142 25.6516 67.1056 25.9578C67.1056 25.9774 67.1056 25.9965 67.109 26.0138L67.1353 26.3321L66.9069 26.5563C66.4968 27.077 66.2408 27.7023 66.1678 28.3613L66.0508 28.8853C66.0508 28.8853 65.9153 28.8987 65.7838 28.91C65.714 29.4643 65.5108 29.9934 65.1914 30.4516C65.0172 30.713 64.8897 31.0027 64.8146 31.3079C64.9297 31.2985 65.0442 31.2834 65.1578 31.2625C65.4546 31.2049 65.7582 31.19 66.0592 31.2182C66.4157 31.1004 66.7967 31.0782 67.1644 31.1538C67.1644 31.1538 67.2971 31.1667 67.399 31.1784C67.8486 31.0015 68.3468 30.9932 68.8021 31.1549C69.1066 31.2406 69.185 31.2339 69.2466 31.1992C69.2864 31.1313 69.3164 31.0581 69.3356 30.9817L69.4017 30.6819L69.5949 30.502L69.68 30.3042C69.7684 29.998 69.9399 29.7224 70.1754 29.5079L70.2001 29.4866L70.2258 29.4687C71.2627 28.7402 72.5544 28.8746 73.5924 28.9822L73.7805 29.0002C75.0246 28.9514 75.5833 30.1002 75.9187 30.7934C75.9187 30.7934 75.9685 30.8904 76.0167 30.9868C76.1932 31.0332 76.3772 31.0437 76.5578 31.0176C76.7384 30.9915 76.912 30.9294 77.0681 30.8349L77.4304 30.6248L77.7786 30.8556C78.1067 31.0731 78.521 31.0131 79.1638 30.8893L80.0881 30.7211C80.0881 30.7211 80.1704 30.9066 80.2359 31.049L80.3429 31.068C80.4116 31.0372 80.4741 30.9939 80.5271 30.9403C80.5178 30.7813 80.4952 30.6235 80.4593 30.4684L80.447 30.4045L80.4493 30.4073ZM46.1168 15.985L46.2031 15.9531C46.1661 15.9693 46.1308 15.9727 46.0944 15.9873H46.1168V15.985ZM32.4558 28.9419L32.3684 28.8192L32.3656 27.8172C32.3656 27.6799 32.3684 27.542 32.3684 27.4047C32.4027 26.8372 32.3121 26.269 32.103 25.7404L31.9278 25.3772L32.1629 25.0511C32.357 24.7581 32.4514 24.4102 32.4322 24.0592C32.422 23.7024 32.3877 23.3467 32.3298 22.9944L32.2178 22.0272C32.2178 22.0272 32.3858 21.5598 32.4317 21.4287C32.4378 21.3273 32.4423 21.2264 32.4423 21.125C32.4328 20.6653 32.3954 20.2066 32.3303 19.7515C32.265 19.2862 32.2276 18.8174 32.2184 18.3477C32.2183 17.9554 32.268 17.5646 32.3662 17.1848C32.3511 16.9556 32.3219 16.4939 32.3219 16.4928C32.3348 16.2561 32.3052 16.019 32.2346 15.7928C32.1083 15.7778 31.9807 15.8086 31.8752 15.8797L31.5224 16.2927L31.0437 16.0366C30.7431 15.9094 30.4181 15.8503 30.0919 15.8634C30.0919 15.8634 29.8999 15.8489 29.7107 15.8309L29.4867 16.0131L29.4167 16.0478C29.2146 16.14 28.992 16.1777 28.7709 16.1574C28.5498 16.137 28.3378 16.0593 28.1559 15.9318C27.9924 15.9649 27.8252 15.9762 27.6587 15.9654C27.6148 16.1645 27.588 16.367 27.5786 16.5706C27.5786 16.7673 27.5904 16.9668 27.6016 17.1781C27.6128 17.3894 27.6273 17.6203 27.6273 17.8579C27.6232 18.1675 27.5906 18.4761 27.5299 18.7797C27.5981 19.2893 27.6317 19.8028 27.6307 20.3169C27.6307 20.7091 27.6173 21.0852 27.6033 21.4612C27.5893 21.8372 27.5775 22.1897 27.5775 22.5495C27.5688 23.1694 27.6266 23.7884 27.75 24.396L27.7567 24.5893L27.6789 25.338C27.7012 25.6757 27.6543 26.0145 27.5409 26.3334C27.4276 26.6523 27.2503 26.9446 27.0199 27.1923C27.0322 27.1795 27.0473 27.1744 27.0585 27.1604L26.9756 27.2445C26.9941 27.2277 27.0014 27.2086 27.0193 27.1923C26.633 27.6154 26.1095 27.653 25.4517 27.2882L25.3509 27.2321L25.4147 27.2602C24.5234 26.9419 24.3744 26.0273 24.2949 25.5386L24.2518 25.2808L24.286 25.1441C24.2889 25.1295 24.2904 25.1147 24.2905 25.0998C24.2761 24.9757 24.2443 24.8542 24.1958 24.7389C24.1037 24.5054 24.0515 24.258 24.0413 24.0071C24.0475 23.8196 24.0959 23.6358 24.183 23.4697C24.2396 23.1219 24.2688 22.7702 24.2703 22.4178C24.2703 22.0382 24.2392 21.6592 24.1774 21.2847L24.141 21.0605L24.2457 20.8582C24.3046 20.695 24.3288 20.5214 24.3168 20.3483C24.3168 20.23 24.3123 20.1095 24.3084 19.9975C24.3084 19.9975 24.3084 19.7352 24.3084 19.5536C24.124 19.1922 24.0263 18.7927 24.0228 18.3869C24.0321 18.039 24.0695 17.6925 24.1348 17.3507C24.1882 17.0734 24.2198 16.7924 24.2294 16.5101C24.2285 16.3403 24.1967 16.172 24.1354 16.0136C23.8949 16.0134 23.657 16.063 23.4366 16.1593L23.1567 16.2815L22.8796 16.1481C22.5743 15.977 22.233 15.8805 21.8835 15.8664C21.5339 15.8523 21.1859 15.9209 20.8679 16.0669L20.7655 16.1229L20.6535 16.1431C20.3231 16.1904 19.9862 16.1571 19.6714 16.0461C19.6341 16.1897 19.6166 16.3377 19.6194 16.486C19.6194 16.6726 19.6345 16.8705 19.6463 17.0464C19.6463 17.0464 19.6575 17.233 19.6642 17.3541C19.7913 17.6282 19.8594 17.9261 19.864 18.2283C19.8558 18.5392 19.8158 18.8485 19.7448 19.1513C19.6895 19.3778 19.6565 19.6092 19.6463 19.8422C19.6449 19.9738 19.6692 20.1044 19.7179 20.2267L19.7739 20.3477L19.7386 21.6007C19.7224 22.0608 19.7062 22.526 19.7062 22.9849C19.6918 23.6652 19.7531 24.3451 19.8887 25.0119L19.9335 25.2013L19.8691 25.3856C19.8199 25.5299 19.7961 25.6816 19.7985 25.8339C19.8183 26.195 19.8811 26.5525 19.9855 26.8987C19.9855 26.8987 20.0785 27.3616 20.1384 27.6648C20.5244 28.053 20.8014 28.5362 20.9413 29.0658C21.1406 29.6693 21.243 29.8912 21.5907 30.0022C22.0148 30.087 22.4157 30.2618 22.7665 30.5149C23.1707 30.7761 23.3577 30.8769 23.5833 30.8243L23.837 30.7626L24.0654 30.8887C24.4485 31.0276 24.8622 31.059 25.2619 30.9795L25.6694 30.9543C25.8766 30.8879 26.0752 30.7975 26.2612 30.6847C26.5276 30.4972 26.8286 30.3646 27.1467 30.2947C27.4647 30.2247 27.7935 30.2188 28.1139 30.2773L28.4045 30.3474L28.5478 30.6091C28.6782 30.8478 28.9694 30.8893 29.5556 30.9156L29.9201 30.9425L30.0427 30.919C30.2986 30.8477 30.5654 30.8238 30.8299 30.8484L31.1417 30.882C31.8593 31.0277 32.6031 30.9722 33.2911 30.7217C33.2177 30.2379 33.0253 29.78 32.7312 29.3891L32.4602 28.9408L32.4558 28.9419ZM46.1683 17.2028C46.1631 16.7994 46.1244 16.3971 46.0524 16.0002C45.6684 16.1177 45.2627 16.146 44.8661 16.0831C44.4254 16.0327 44.3359 16.0456 44.2272 16.1689L43.7172 16.7477L43.2508 16.2126L43.0963 16.2176C42.7915 16.2421 42.4857 16.1841 42.2111 16.0495C42.0622 16.0534 41.9105 16.0557 41.9105 16.0557C41.6966 16.0456 41.5969 16.0433 41.5398 16.0853L41.3875 16.1974L41.2005 16.2131C40.428 16.2429 39.6548 16.1707 38.9011 15.9985C38.6026 16.1319 38.2806 16.2046 37.9537 16.2122C37.6269 16.2198 37.3019 16.1622 36.9975 16.0428C36.7012 15.9791 36.393 16.0007 36.1084 16.105C36.0944 16.5706 36.0625 17.5715 36.0625 17.581C36.0867 17.7134 36.1011 17.8473 36.1056 17.9817C36.1006 18.2271 36.0819 18.472 36.0496 18.7153C36.0238 18.9101 36.0087 19.1061 36.0043 19.3026C35.9925 19.4241 36.0251 19.5457 36.0961 19.645C36.1905 19.6291 36.2866 19.6268 36.3816 19.6382C36.7449 19.5484 37.1226 19.5334 37.4919 19.594L38.0014 19.6433L38.129 19.7201C38.3693 19.8693 38.5632 20.0827 38.6889 20.3362C38.8147 20.5898 38.8672 20.8734 38.8406 21.1552C38.8406 21.2628 38.8362 21.3626 38.8322 21.4517C38.8272 21.5318 38.8238 21.6243 38.8238 21.7106C38.8163 21.8034 38.8291 21.8967 38.8613 21.984L39.036 22.2558L38.933 22.5641C38.8426 22.8438 38.7991 23.1365 38.8042 23.4304C38.8146 23.8107 38.8494 24.19 38.9084 24.5658C38.976 24.9961 39.0145 25.4304 39.0237 25.8659C39.0216 26.3137 38.9426 26.7579 38.7902 27.1789C38.861 27.4891 38.8974 27.8061 38.8989 28.1243C38.892 28.5153 38.8626 28.9056 38.811 29.2933C38.7644 29.6318 38.7373 29.9727 38.7298 30.3143C38.7323 30.5664 38.7663 30.8171 38.8311 31.0608C38.9974 31.0897 39.1663 31.1012 39.335 31.0949C39.3619 31.0865 39.447 31.0551 39.447 31.0551C39.6088 30.9777 39.7847 30.9337 39.9639 30.9259C40.1431 30.9181 40.3221 30.9467 40.49 31.0098C40.7089 31.0277 41.0449 31.0563 41.0449 31.0563C41.4166 31.1123 41.5594 31.1246 41.6876 31.0372C41.9255 30.8724 42.2061 30.7803 42.4952 30.7722C42.7844 30.7642 43.0697 30.8405 43.3163 30.9918L43.4053 31.0271C43.423 30.9769 43.4359 30.9251 43.444 30.8725C43.4403 30.6821 43.4012 30.4942 43.3286 30.3182L43.2726 30.1893L43.304 29.3644C43.3225 28.9161 43.3415 28.4644 43.3415 28.0161C43.3495 27.4622 43.3056 26.9087 43.2105 26.363L43.1646 26.1181L43.2894 25.9001C43.358 25.7668 43.3904 25.6178 43.3835 25.468C43.3758 25.2509 43.3524 25.0345 43.3135 24.8208C43.2642 24.5478 43.2359 24.2715 43.229 23.9942C43.2289 23.9092 43.2332 23.8243 43.2419 23.7398L43.2491 23.6703L43.2687 23.6036C43.3254 23.4208 43.3526 23.2301 43.3494 23.0387C43.3447 22.8192 43.3277 22.6001 43.2984 22.3825C43.2653 22.1222 43.2466 21.8603 43.2424 21.5979C43.2351 21.1907 43.3199 20.787 43.4904 20.4172C44.0268 19.1944 45.0704 19.413 45.5715 19.5206C45.7389 19.5712 45.9155 19.5834 46.0883 19.5564C46.0729 19.3988 46.0415 19.2432 45.9948 19.0919L45.8778 18.6637L45.9618 18.4547C46.1071 18.0551 46.1768 17.6319 46.1672 17.2067L46.1683 17.2028ZM16.4337 21.7369L16.4398 21.538C16.4398 21.4999 16.4398 21.4634 16.4398 21.4259C16.4515 20.9162 16.3393 20.4113 16.113 19.9546C15.8866 19.4978 15.5528 19.1029 15.1403 18.8038L14.9763 18.6873L14.9029 18.4984C14.6641 18.0409 14.3092 17.6543 13.8739 17.3776L13.6701 17.2145C13.2777 17.1035 12.9145 16.9074 12.6063 16.6401C12.2782 16.3835 12.1142 16.2725 11.9266 16.2888L11.6736 16.3134L11.4681 16.1649C10.7615 15.6505 9.63392 15.6606 8.64013 15.6606H8.20342L8.09704 15.6253C7.96827 15.5816 7.85462 15.6253 7.5618 15.7502C7.24738 15.9092 6.90261 15.999 6.55065 16.0136C6.14394 16.2679 5.70001 16.457 5.23494 16.574C4.90021 16.6453 4.58102 16.7762 4.29266 16.9607C4.04318 17.4566 3.64151 17.8594 3.14658 18.11C2.76138 18.3342 2.59958 18.4508 2.54135 18.6643L2.46465 18.9512L2.20095 19.0879C2.11808 19.1316 2.06433 19.26 1.96971 19.5256C1.85858 19.8388 1.6906 20.1287 1.47422 20.3808C1.42383 20.5562 1.06439 21.8036 1.02128 21.9499C1.02128 22.118 1.01232 22.7871 1.01232 22.7871C1.00616 23.0583 1 23.3301 1 23.6025C1 24.7193 1.10582 25.8003 1.75696 26.5535L1.8443 26.6532L1.88629 26.781C2.1304 27.5095 2.856 29.2467 4.31281 29.6457L4.51269 29.7018L4.64706 29.8576C5.17046 30.3215 5.82647 30.6087 6.5221 30.6786C6.5221 30.6786 6.86643 30.7559 6.91402 30.7705L7.24995 30.7884C7.54863 30.7771 7.84612 30.832 8.12112 30.9492C9.30359 31.0921 10.9664 31.1734 12.0061 30.3233L12.1931 30.1725H12.4333C12.6291 30.1437 12.8151 30.0684 12.9758 29.9528L13.58 29.6614L13.4719 29.7091C14.0168 29.3508 14.4811 28.8828 14.8352 28.335C15.2088 27.7967 15.6543 27.3121 16.1593 26.8948C16.2982 26.7961 16.3273 26.5787 16.3553 26.1388C16.3515 25.6065 16.5157 25.0866 16.8245 24.6532L16.8457 24.1298C16.8597 23.8496 16.8737 23.5918 16.8737 23.3453C16.9023 22.8405 16.7867 22.3381 16.5406 21.8966L16.4376 21.7285L16.4337 21.7369Z" fill="#C30606" stroke="#C30606" stroke-width="2" mask="url(#path-1-inside-1)"/>
<path d="M1.49611 10.9297C1.49611 10.8737 1.70326 10.7341 1.95577 10.6198C2.20828 10.5055 2.60355 10.3189 2.83142 10.2046C3.0593 10.0902 3.4221 9.92436 3.63765 9.83582C3.8532 9.74728 4.19753 9.60269 4.39741 9.51359C4.59729 9.42449 5.05583 9.23844 5.41079 9.09834C5.76575 8.95824 6.315 8.75202 6.63133 8.63714C6.94766 8.52225 7.42468 8.35694 7.69062 8.26839C7.95657 8.17985 8.37144 8.05545 8.61219 7.99157C8.85294 7.92768 9.39154 7.77301 9.80977 7.64636C10.228 7.51971 10.808 7.36617 11.0975 7.29948C11.387 7.23279 11.8763 7.15377 12.1797 7.1151C12.4832 7.07644 12.9709 7.02656 13.262 7.00022C13.5531 6.97388 13.9059 6.93354 14.0458 6.90888C14.1858 6.88422 14.393 6.85285 14.5066 6.8394C14.6203 6.82595 15.132 6.74413 17.0322 6.65559C18.9325 6.56704 20.6524 6.47346 20.8551 6.44824C21.0578 6.42303 21.4105 6.38043 21.6389 6.35577C21.8674 6.33112 22.4681 6.28853 22.9748 6.26331C23.4815 6.2381 24.1024 6.2168 24.3566 6.2168C24.6108 6.2168 25.0139 6.22745 25.2524 6.24034C25.4909 6.25323 25.8683 6.28405 26.0821 6.30927C26.296 6.33448 26.6291 6.38716 26.8189 6.4247C27.0087 6.46225 27.1845 6.57657 27.2109 6.67912C27.2397 6.78974 27.2783 6.89758 27.3262 7.00135C27.3637 7.07644 27.4258 7.19076 27.4639 7.25408C27.5134 7.33394 27.5672 7.41102 27.6252 7.48497C27.7224 7.5886 27.8308 7.68124 27.9482 7.76124C28.0747 7.84922 28.3127 8.00557 28.4779 8.107C28.6034 8.20022 28.76 8.24155 28.9151 8.22244C29.0102 8.1782 29.1108 8.14674 29.2141 8.12886L29.5601 8.08347C29.6856 8.06466 29.809 8.03369 29.9285 7.991C30.0304 7.95346 30.3518 7.81896 30.6424 7.69119C30.9329 7.56342 31.3064 7.39867 31.4715 7.32246C31.6793 7.23284 31.8951 7.16322 32.116 7.11455C32.2505 7.1211 32.3809 7.16291 32.4942 7.23578C32.6075 7.30866 32.6997 7.41005 32.7615 7.5298C32.8134 7.69697 32.9092 7.84715 33.0387 7.96472C33.1683 8.0823 33.327 8.16297 33.4983 8.19834L34.0503 8.35918C34.2659 8.4225 34.6181 8.51665 34.8342 8.56709C35.0503 8.61752 35.309 8.69037 35.4097 8.72792C35.5105 8.76547 35.6555 8.82879 35.7328 8.8669C35.7828 8.88397 35.8361 8.88866 35.8883 8.88055C35.9404 8.87245 35.9899 8.8518 36.0323 8.82038C36.1429 8.74412 36.2583 8.67505 36.3778 8.6136C36.5035 8.55451 36.6348 8.50814 36.7697 8.47518C36.891 8.44938 37.0163 8.44938 37.1375 8.47518C37.226 8.50096 37.2993 8.45949 37.2993 8.38272C37.3031 8.28135 37.3185 8.18075 37.3452 8.08291C37.3704 7.99493 37.4124 7.84866 37.4371 7.76068C37.47 7.65516 37.5164 7.55437 37.5754 7.46087C37.6257 7.38466 37.6991 7.28042 37.7366 7.22999C37.7893 7.16677 37.8517 7.11231 37.9214 7.0686C37.9841 7.03105 38.1498 6.94755 38.2898 6.88423C38.4702 6.80556 38.6547 6.73635 38.8424 6.67688C39.007 6.62644 39.2975 6.54351 39.4868 6.49251C39.676 6.44152 40.1329 6.32832 40.5002 6.23922C40.8199 6.16482 41.1352 6.07258 41.4447 5.96294C41.5964 5.89961 41.8249 5.79482 41.9486 5.73318C42.2248 5.48924 42.4583 5.20076 42.6395 4.8797C42.8925 4.47341 43.2245 4.17248 43.3763 4.21171C43.528 4.25093 43.7682 4.31146 43.9059 4.34901C44.1404 4.42159 44.371 4.50613 44.5968 4.6023C44.8381 4.7043 45.2127 4.8825 45.426 4.99458C45.6393 5.10666 45.9937 5.27478 46.2098 5.36332C46.4349 5.45554 46.6659 5.53267 46.9013 5.5942C47.0659 5.63175 47.3145 5.68442 47.4533 5.70964L47.9572 5.80043C48.1222 5.8334 48.2842 5.87988 48.4415 5.9394C48.5174 5.9633 48.5974 5.97155 48.6766 5.96365C48.7558 5.95576 48.8326 5.93187 48.9023 5.89345C49.0283 5.81724 49.2253 5.70348 49.339 5.63959C49.4744 5.5627 49.6052 5.47814 49.7309 5.3863C49.8323 5.30952 49.9773 5.19688 50.0534 5.133C50.1514 5.0471 50.2436 4.9548 50.3294 4.85672C50.4208 4.74662 50.5054 4.63096 50.5825 4.5104C50.6587 4.38356 50.7279 4.2526 50.7896 4.11812C50.8532 3.96773 50.9072 3.81351 50.9515 3.65636C50.9765 3.58128 51.0186 3.51304 51.0745 3.45703C51.1303 3.40101 51.1984 3.35875 51.2734 3.33357C51.4128 3.29602 51.6513 3.24391 51.8036 3.22149C51.9559 3.19908 52.3495 3.1436 52.6781 3.10605C53.0068 3.06851 53.5667 3.01639 53.9216 2.98949C54.2766 2.96259 54.8773 2.9441 55.2575 2.9441C55.6377 2.9441 56.2698 2.95474 56.6617 2.96763C57.0536 2.98052 57.6767 3.02368 58.0446 3.0601C58.4124 3.09653 58.9913 3.14976 59.3323 3.17554C59.6733 3.20132 60.213 3.26296 60.5305 3.3134C61.0208 3.40773 61.5052 3.53086 61.9811 3.68214C62.4887 3.8518 62.9418 4.1542 63.2935 4.55804C63.5342 4.88811 64.332 4.62808 65.0655 3.98139C65.8883 3.29847 66.9022 2.88736 67.9679 2.80456C69.1268 2.71366 70.2512 2.36728 71.2606 1.79025C72.2145 1.22883 73.3105 0.956308 74.416 1.0057C75.1999 1.13235 76.6208 1.30887 77.571 1.39797C78.4799 1.47718 79.3764 1.66282 80.2422 1.95108C81.0495 2.34166 81.8152 2.81311 82.5276 3.35823C82.9166 3.62697 83.3846 3.75714 83.8564 3.72788C84.3281 3.69861 84.7764 3.5116 85.1294 3.19684C85.5028 2.86878 85.9446 2.62814 86.4227 2.49243C86.9007 2.35672 87.403 2.32934 87.8929 2.41228C88.889 2.72966 89.8016 3.26576 90.5641 3.98139C91.0377 4.50772 91.6079 4.93806 92.2437 5.24899C92.4645 5.29236 92.6875 5.32324 92.9117 5.34146C93.0356 5.34579 93.1589 5.36116 93.2801 5.38742C93.3921 5.41263 93.5494 5.4541 93.625 5.47932C93.6775 5.49837 93.7314 5.51354 93.7862 5.52471C93.7985 5.52471 93.9441 5.55721 94.1093 5.59476C94.3067 5.63773 94.5066 5.66861 94.7078 5.68723C94.898 5.70565 95.0844 5.7523 95.2609 5.82564C95.4219 5.90073 95.5762 5.98921 95.7223 6.09015C95.8663 6.19766 96.0044 6.31289 96.136 6.43535C96.2678 6.55631 96.4106 6.66457 96.5627 6.75869C96.6836 6.82874 97.1281 7.02544 97.5525 7.19636C97.9769 7.36728 98.6034 7.64748 98.9455 7.81952C99.2143 7.95874 99.4912 8.08169 99.7747 8.1877C99.9185 8.22514 100.065 8.2521 100.213 8.26839C100.363 8.27973 100.514 8.26821 100.66 8.23422C100.774 8.20383 100.889 8.18062 101.005 8.16472C101.083 8.15948 101.161 8.16745 101.236 8.18826C101.292 8.20732 101.562 8.33172 101.835 8.46397C102.108 8.59622 102.558 8.79068 102.837 8.89043C103.197 9.01395 103.566 9.10766 103.942 9.17063C104.271 9.2205 104.551 9.26198 104.564 9.26198C104.577 9.26198 104.732 9.30401 104.909 9.355C105.057 9.39156 105.198 9.45397 105.324 9.53937C105.521 9.62045 105.732 9.65958 105.945 9.65425C106.301 9.67595 106.655 9.72239 107.004 9.79323C107.296 9.85655 107.19 9.99161 107.461 10.093C107.718 10.193 107.995 10.2247 108.268 10.1849C108.67 10.0619 109.095 10.0305 109.511 10.093C109.723 10.1258 109.931 10.1799 110.132 10.2544C110.32 10.3355 110.494 10.4441 110.65 10.5767C110.764 10.6744 110.86 10.791 110.934 10.9213C110.963 10.9964 110.99 11.0799 111 11.1074C111.002 11.156 110.991 11.2043 110.967 11.2469L110.929 11.2923L110.888 11.3366C110.748 11.403 110.594 11.4343 110.44 11.4279H110.262C110.085 11.4279 109.907 11.4279 109.733 11.4279C109.558 11.4279 109.382 11.3399 109.212 11.3354L109.044 11.3321C108.893 11.3674 108.739 11.3875 108.584 11.392L108.508 11.3887C108.432 11.3853 108.351 11.3842 108.274 11.3853C108.198 11.3864 108.122 11.3175 108.06 11.3253L108.002 11.3321C107.627 11.3903 107.249 11.4237 106.871 11.4318H106.043C105.216 11.4318 104.381 11.4285 103.543 11.4251C102.706 11.4217 101.864 11.4184 101.018 11.4128C100.173 11.4072 99.3335 11.4873 98.4937 11.4811C97.7658 11.4733 97.01 11.3904 96.2424 11.3915C95.4748 11.3926 94.7022 11.3948 93.9307 11.3971C93.1592 11.3993 92.3904 11.3971 91.6413 11.3971L90.8916 11.3937C90.1078 11.3791 89.1924 11.3562 88.8593 11.3427C88.5261 11.3293 87.9803 11.3338 87.6477 11.3539C87.3151 11.3741 86.7698 11.3931 86.4367 11.3965L85.2245 11.4077C84.892 11.4111 84.3332 11.4077 83.9844 11.401H83.6725C83.3618 11.401 83.0567 11.3976 82.7437 11.401C82.4307 11.4044 82.1222 11.4044 81.8059 11.4066C81.4896 11.4088 81.1693 11.3478 80.8407 11.3506C80.035 11.364 79.2461 11.4329 78.4601 11.4329C77.674 11.4329 76.8974 11.4285 76.1214 11.4217C75.3454 11.415 74.5706 11.406 73.7923 11.3993C73.0141 11.3926 72.2275 11.2116 71.4408 11.2121C70.769 11.2222 70.0971 11.4044 69.418 11.4066C68.7389 11.4088 68.0625 11.4066 67.3845 11.4066C66.7065 11.4066 66.0324 11.4032 65.3605 11.4032C64.6887 11.4032 64.0168 11.4032 63.3517 11.41L62.9363 11.4021C62.7483 11.3046 62.5404 11.2517 62.3287 11.2476C62.117 11.2435 61.9073 11.2883 61.7157 11.3786L60.6122 11.3674C60.1553 11.3623 59.7041 11.3584 59.2567 11.3573H58.8088C58.3284 11.3573 57.908 11.3607 57.8744 11.3635C57.8408 11.3663 57.7568 11.3696 57.6896 11.3735C57.6224 11.3775 57.5373 11.3825 57.5032 11.3836C57.469 11.3847 57.1146 11.387 56.7137 11.3881C56.3129 11.3892 55.6595 11.4021 55.2581 11.4201C54.8566 11.438 54.2044 11.438 53.8024 11.4201C53.4004 11.4021 52.7476 11.3892 52.3467 11.3903C51.9458 11.3915 51.6407 11.3405 51.6647 11.2783C51.6896 11.2214 51.6976 11.1586 51.6877 11.0973C51.6754 11.0586 51.5959 11.1062 51.5113 11.2026C51.4527 11.2741 51.3864 11.3389 51.3137 11.396C51.1235 11.4045 50.933 11.4015 50.7432 11.387L50.4666 11.3926C50.1867 11.3982 49.9067 11.4016 49.6268 11.4049C49.3468 11.4083 49.0669 11.3691 48.7965 11.373H48.5266C47.9364 11.3791 47.3466 11.3375 46.763 11.2486L46.1191 11.2374C45.4758 11.2262 44.8208 11.3607 44.1685 11.3562C43.5162 11.3517 42.864 11.35 42.2089 11.35H41.5572C40.8423 11.3528 40.2505 11.3562 40.2415 11.355L40.209 11.3517C40.2006 11.3517 40.1861 11.3483 40.1777 11.3483L40.1458 11.345C40.1002 11.3066 40.0589 11.2633 40.0226 11.2161H39.9106C39.7986 11.2161 39.5747 11.3595 39.4627 11.3573C39.3507 11.355 39.236 11.3534 39.1201 11.3511C39.0042 11.3489 38.8883 11.3511 38.769 11.3511C38.0625 11.3691 37.3374 11.313 36.6079 11.3158C35.8784 11.3186 35.146 11.3758 34.4243 11.3719C33.7027 11.3679 33.6064 11.6577 32.916 11.6577C32.2257 11.6577 31.5589 11.6633 30.9307 11.6778C30.463 11.6853 29.995 11.69 29.5265 11.6918C29.0581 11.6937 28.5893 11.6937 28.1201 11.6918C27.6509 11.6885 26.5614 11.3909 26.0911 11.3842L25.6202 11.3775C25.1012 11.3663 24.6684 11.3567 24.6651 11.3556C24.6617 11.3545 24.6483 11.3517 24.6421 11.3494L24.6192 11.3455L24.5962 11.3405C24.5901 11.3405 24.4618 11.3797 24.3124 11.4296H24.1785C23.6119 11.4385 23.4736 11.3517 23.7704 11.3506H22.8723C21.9866 11.3707 21.1087 11.3018 20.2308 11.3108C19.3529 11.3197 18.8994 11.6319 18.0176 11.6352C17.1358 11.6386 16.9662 11.415 16.0704 11.4167H15.1745C14.1668 11.373 13.3297 11.3343 13.3101 11.331L13.2362 11.3186C13.2166 11.3141 13.1836 11.3085 13.1629 11.3052C13.1422 11.3018 13.1097 11.2962 13.0896 11.2917C13.0711 11.2883 13.0523 11.2873 13.0336 11.2889C13.0235 11.2889 12.9988 11.2917 12.9776 11.2956L12.9216 11.3018C12.9115 11.3018 12.8365 11.313 12.7536 11.3231L12.6668 11.3298C12.5801 11.3354 12.4871 11.3399 12.3936 11.3422C12.3001 11.3444 12.2044 11.2833 12.1137 11.2822H12.0219C11.5811 11.3519 11.1371 11.3994 10.6916 11.4245H10.1194C9.54775 11.4245 8.98283 11.4212 8.42015 11.4189C7.85747 11.4167 7.30039 11.475 6.74051 11.4789C6.18063 11.4828 5.62467 11.4229 5.06535 11.4301C4.76693 11.4301 4.44948 11.4335 4.12698 11.4369C3.80449 11.4402 3.47864 11.3635 3.16119 11.3646C2.84374 11.3657 2.53805 11.4436 2.25699 11.429L1.97705 11.4156C1.81051 11.4095 1.6473 11.3671 1.49891 11.2912C1.49499 11.2575 1.49219 11.1869 1.49219 11.1326V10.9325" fill="#C30606"/>
<path d="M1.49611 10.9297C1.49611 10.8737 1.70326 10.7341 1.95577 10.6198C2.20828 10.5055 2.60355 10.3189 2.83142 10.2046C3.0593 10.0902 3.4221 9.92436 3.63765 9.83582C3.8532 9.74728 4.19753 9.60269 4.39741 9.51359C4.59729 9.42449 5.05583 9.23844 5.41079 9.09834C5.76575 8.95824 6.315 8.75202 6.63133 8.63714C6.94766 8.52225 7.42468 8.35694 7.69062 8.26839C7.95657 8.17985 8.37144 8.05545 8.61219 7.99157C8.85294 7.92768 9.39154 7.77301 9.80977 7.64636C10.228 7.51971 10.808 7.36617 11.0975 7.29948C11.387 7.23279 11.8763 7.15377 12.1797 7.1151C12.4832 7.07644 12.9709 7.02656 13.262 7.00022C13.5531 6.97388 13.9059 6.93354 14.0458 6.90888C14.1858 6.88422 14.393 6.85285 14.5066 6.8394C14.6203 6.82595 15.132 6.74413 17.0322 6.65559C18.9325 6.56704 20.6524 6.47346 20.8551 6.44824C21.0578 6.42303 21.4105 6.38043 21.6389 6.35577C21.8674 6.33112 22.4681 6.28853 22.9748 6.26331C23.4815 6.2381 24.1024 6.2168 24.3566 6.2168C24.6108 6.2168 25.0139 6.22745 25.2524 6.24034C25.4909 6.25323 25.8683 6.28405 26.0821 6.30927C26.296 6.33448 26.6291 6.38716 26.8189 6.4247C27.0087 6.46225 27.1845 6.57657 27.2109 6.67912C27.2397 6.78974 27.2783 6.89758 27.3262 7.00135C27.3637 7.07644 27.4258 7.19076 27.4639 7.25408C27.5134 7.33394 27.5672 7.41102 27.6252 7.48497C27.7224 7.5886 27.8308 7.68124 27.9482 7.76124C28.0747 7.84922 28.3127 8.00557 28.4779 8.107C28.6034 8.20022 28.76 8.24155 28.9151 8.22244C29.0102 8.1782 29.1108 8.14674 29.2141 8.12886L29.5601 8.08347C29.6856 8.06466 29.809 8.03369 29.9285 7.991C30.0304 7.95346 30.3518 7.81896 30.6424 7.69119C30.9329 7.56342 31.3064 7.39867 31.4715 7.32246C31.6793 7.23284 31.8951 7.16322 32.116 7.11455C32.2505 7.1211 32.3809 7.16291 32.4942 7.23578C32.6075 7.30866 32.6997 7.41005 32.7615 7.5298C32.8134 7.69697 32.9092 7.84715 33.0387 7.96472C33.1683 8.0823 33.327 8.16297 33.4983 8.19834L34.0503 8.35918C34.2659 8.4225 34.6181 8.51665 34.8342 8.56709C35.0503 8.61752 35.309 8.69037 35.4097 8.72792C35.5105 8.76547 35.6555 8.82879 35.7328 8.8669C35.7828 8.88397 35.8361 8.88866 35.8883 8.88055C35.9404 8.87245 35.9899 8.8518 36.0323 8.82038C36.1429 8.74412 36.2583 8.67505 36.3778 8.6136C36.5035 8.55451 36.6348 8.50814 36.7697 8.47518C36.891 8.44938 37.0163 8.44938 37.1375 8.47518C37.226 8.50096 37.2993 8.45949 37.2993 8.38272C37.3031 8.28135 37.3185 8.18075 37.3452 8.08291C37.3704 7.99493 37.4124 7.84866 37.4371 7.76068C37.47 7.65516 37.5164 7.55437 37.5754 7.46087C37.6257 7.38466 37.6991 7.28042 37.7366 7.22999C37.7893 7.16677 37.8517 7.11231 37.9214 7.0686C37.9841 7.03105 38.1498 6.94755 38.2898 6.88423C38.4702 6.80556 38.6547 6.73635 38.8424 6.67688C39.007 6.62644 39.2975 6.54351 39.4868 6.49251C39.676 6.44152 40.1329 6.32832 40.5002 6.23922C40.8199 6.16482 41.1352 6.07258 41.4447 5.96294C41.5964 5.89961 41.8249 5.79482 41.9486 5.73318C42.2248 5.48924 42.4583 5.20076 42.6395 4.8797C42.8925 4.47341 43.2245 4.17248 43.3763 4.21171C43.528 4.25093 43.7682 4.31146 43.9059 4.34901C44.1404 4.42159 44.371 4.50613 44.5968 4.6023C44.8381 4.7043 45.2127 4.8825 45.426 4.99458C45.6393 5.10666 45.9937 5.27478 46.2098 5.36332C46.4349 5.45554 46.6659 5.53267 46.9013 5.5942C47.0659 5.63175 47.3145 5.68442 47.4533 5.70964L47.9572 5.80043C48.1222 5.8334 48.2842 5.87988 48.4415 5.9394C48.5174 5.9633 48.5974 5.97155 48.6766 5.96365C48.7558 5.95576 48.8326 5.93187 48.9023 5.89345C49.0283 5.81724 49.2253 5.70348 49.339 5.63959C49.4744 5.5627 49.6052 5.47814 49.7309 5.3863C49.8323 5.30952 49.9773 5.19688 50.0534 5.133C50.1514 5.0471 50.2436 4.9548 50.3294 4.85672C50.4208 4.74662 50.5054 4.63096 50.5825 4.5104C50.6587 4.38356 50.7279 4.2526 50.7896 4.11812C50.8532 3.96773 50.9072 3.81351 50.9515 3.65636C50.9765 3.58128 51.0186 3.51304 51.0745 3.45703C51.1303 3.40101 51.1984 3.35875 51.2734 3.33357C51.4128 3.29602 51.6513 3.24391 51.8036 3.22149C51.9559 3.19908 52.3495 3.1436 52.6781 3.10605C53.0068 3.06851 53.5667 3.01639 53.9216 2.98949C54.2766 2.96259 54.8773 2.9441 55.2575 2.9441C55.6377 2.9441 56.2698 2.95474 56.6617 2.96763C57.0536 2.98052 57.6767 3.02368 58.0446 3.0601C58.4124 3.09653 58.9913 3.14976 59.3323 3.17554C59.6733 3.20132 60.213 3.26296 60.5305 3.3134C61.0208 3.40773 61.5052 3.53086 61.9811 3.68214C62.4887 3.8518 62.9418 4.1542 63.2935 4.55804C63.5342 4.88811 64.332 4.62808 65.0655 3.98139C65.8883 3.29847 66.9022 2.88736 67.9679 2.80456C69.1268 2.71366 70.2512 2.36728 71.2606 1.79025C72.2145 1.22883 73.3105 0.956308 74.416 1.0057C75.1999 1.13235 76.6208 1.30887 77.571 1.39797C78.4799 1.47718 79.3764 1.66282 80.2422 1.95108C81.0495 2.34166 81.8152 2.81311 82.5276 3.35823C82.9166 3.62697 83.3846 3.75714 83.8564 3.72788C84.3281 3.69861 84.7764 3.5116 85.1294 3.19684C85.5028 2.86878 85.9446 2.62814 86.4227 2.49243C86.9007 2.35672 87.403 2.32934 87.8929 2.41228C88.889 2.72966 89.8016 3.26576 90.5641 3.98139C91.0377 4.50772 91.6079 4.93806 92.2437 5.24899C92.4645 5.29236 92.6875 5.32324 92.9117 5.34146C93.0356 5.34579 93.1589 5.36116 93.2801 5.38742C93.3921 5.41263 93.5494 5.4541 93.625 5.47932C93.6775 5.49837 93.7314 5.51354 93.7862 5.52471C93.7985 5.52471 93.9441 5.55721 94.1093 5.59476C94.3067 5.63773 94.5066 5.66861 94.7078 5.68723C94.898 5.70565 95.0844 5.7523 95.2609 5.82564C95.4219 5.90073 95.5762 5.98921 95.7223 6.09015C95.8663 6.19766 96.0044 6.31289 96.136 6.43535C96.2678 6.55631 96.4106 6.66457 96.5627 6.75869C96.6836 6.82874 97.1281 7.02544 97.5525 7.19636C97.9769 7.36728 98.6034 7.64748 98.9455 7.81952C99.2143 7.95874 99.4912 8.08169 99.7747 8.1877C99.9185 8.22514 100.065 8.2521 100.213 8.26839C100.363 8.27973 100.514 8.26821 100.66 8.23422C100.774 8.20383 100.889 8.18062 101.005 8.16472C101.083 8.15948 101.161 8.16745 101.236 8.18826C101.292 8.20732 101.562 8.33172 101.835 8.46397C102.108 8.59622 102.558 8.79068 102.837 8.89043C103.197 9.01395 103.566 9.10766 103.942 9.17063C104.271 9.2205 104.551 9.26198 104.564 9.26198C104.577 9.26198 104.732 9.30401 104.909 9.355C105.057 9.39156 105.198 9.45397 105.324 9.53937C105.521 9.62045 105.732 9.65958 105.945 9.65425C106.301 9.67595 106.655 9.72239 107.004 9.79323C107.296 9.85655 107.19 9.99161 107.461 10.093C107.718 10.193 107.995 10.2247 108.268 10.1849C108.67 10.0619 109.095 10.0305 109.511 10.093C109.723 10.1258 109.931 10.1799 110.132 10.2544C110.32 10.3355 110.494 10.4441 110.65 10.5767C110.764 10.6744 110.86 10.791 110.934 10.9213C110.963 10.9964 110.99 11.0799 111 11.1074C111.002 11.156 110.991 11.2043 110.967 11.2469L110.929 11.2923L110.888 11.3366C110.748 11.403 110.594 11.4343 110.44 11.4279H110.262C110.085 11.4279 109.907 11.4279 109.733 11.4279C109.558 11.4279 109.382 11.3399 109.212 11.3354L109.044 11.3321C108.893 11.3674 108.739 11.3875 108.584 11.392L108.508 11.3887C108.432 11.3853 108.351 11.3842 108.274 11.3853C108.198 11.3864 108.122 11.3175 108.06 11.3253L108.002 11.3321C107.627 11.3903 107.249 11.4237 106.871 11.4318H106.043C105.216 11.4318 104.381 11.4285 103.543 11.4251C102.706 11.4217 101.864 11.4184 101.018 11.4128C100.173 11.4072 99.3335 11.4873 98.4937 11.4811C97.7658 11.4733 97.01 11.3904 96.2424 11.3915C95.4748 11.3926 94.7022 11.3948 93.9307 11.3971C93.1592 11.3993 92.3904 11.3971 91.6413 11.3971L90.8916 11.3937C90.1078 11.3791 89.1924 11.3562 88.8593 11.3427C88.5261 11.3293 87.9803 11.3338 87.6477 11.3539C87.3151 11.3741 86.7698 11.3931 86.4367 11.3965L85.2245 11.4077C84.892 11.4111 84.3332 11.4077 83.9844 11.401H83.6725C83.3618 11.401 83.0567 11.3976 82.7437 11.401C82.4307 11.4044 82.1222 11.4044 81.8059 11.4066C81.4896 11.4088 81.1693 11.3478 80.8407 11.3506C80.035 11.364 79.2461 11.4329 78.4601 11.4329C77.674 11.4329 76.8974 11.4285 76.1214 11.4217C75.3454 11.415 74.5706 11.406 73.7923 11.3993C73.0141 11.3926 72.2275 11.2116 71.4408 11.2121C70.769 11.2222 70.0971 11.4044 69.418 11.4066C68.7389 11.4088 68.0625 11.4066 67.3845 11.4066C66.7065 11.4066 66.0324 11.4032 65.3605 11.4032C64.6887 11.4032 64.0168 11.4032 63.3517 11.41L62.9363 11.4021C62.7483 11.3046 62.5404 11.2517 62.3287 11.2476C62.117 11.2435 61.9073 11.2883 61.7157 11.3786L60.6122 11.3674C60.1553 11.3623 59.7041 11.3584 59.2567 11.3573H58.8088C58.3284 11.3573 57.908 11.3607 57.8744 11.3635C57.8408 11.3663 57.7568 11.3696 57.6896 11.3735C57.6224 11.3775 57.5373 11.3825 57.5032 11.3836C57.469 11.3847 57.1146 11.387 56.7137 11.3881C56.3129 11.3892 55.6595 11.4021 55.2581 11.4201C54.8566 11.438 54.2044 11.438 53.8024 11.4201C53.4004 11.4021 52.7476 11.3892 52.3467 11.3903C51.9458 11.3915 51.6407 11.3405 51.6647 11.2783C51.6896 11.2214 51.6976 11.1586 51.6877 11.0973C51.6754 11.0586 51.5959 11.1062 51.5113 11.2026C51.4527 11.2741 51.3864 11.3389 51.3137 11.396C51.1235 11.4045 50.933 11.4015 50.7432 11.387L50.4666 11.3926C50.1867 11.3982 49.9067 11.4016 49.6268 11.4049C49.3468 11.4083 49.0669 11.3691 48.7965 11.373H48.5266C47.9364 11.3791 47.3466 11.3375 46.763 11.2486L46.1191 11.2374C45.4758 11.2262 44.8208 11.3607 44.1685 11.3562C43.5162 11.3517 42.864 11.35 42.2089 11.35H41.5572C40.8423 11.3528 40.2505 11.3562 40.2415 11.355L40.209 11.3517C40.2006 11.3517 40.1861 11.3483 40.1777 11.3483L40.1458 11.345C40.1002 11.3066 40.0589 11.2633 40.0226 11.2161H39.9106C39.7986 11.2161 39.5747 11.3595 39.4627 11.3573C39.3507 11.355 39.236 11.3534 39.1201 11.3511C39.0042 11.3489 38.8883 11.3511 38.769 11.3511C38.0625 11.3691 37.3374 11.313 36.6079 11.3158C35.8784 11.3186 35.146 11.3758 34.4243 11.3719C33.7027 11.3679 33.6064 11.6577 32.916 11.6577C32.2257 11.6577 31.5589 11.6633 30.9307 11.6778C30.463 11.6853 29.995 11.69 29.5265 11.6918C29.0581 11.6937 28.5893 11.6937 28.1201 11.6918C27.6509 11.6885 26.5614 11.3909 26.0911 11.3842L25.6202 11.3775C25.1012 11.3663 24.6684 11.3567 24.6651 11.3556C24.6617 11.3545 24.6483 11.3517 24.6421 11.3494L24.6192 11.3455L24.5962 11.3405C24.5901 11.3405 24.4618 11.3797 24.3124 11.4296H24.1785C23.6119 11.4385 23.4736 11.3517 23.7704 11.3506H22.8723C21.9866 11.3707 21.1087 11.3018 20.2308 11.3108C19.3529 11.3197 18.8994 11.6319 18.0176 11.6352C17.1358 11.6386 16.9662 11.415 16.0704 11.4167H15.1745C14.1668 11.373 13.3297 11.3343 13.3101 11.331L13.2362 11.3186C13.2166 11.3141 13.1836 11.3085 13.1629 11.3052C13.1422 11.3018 13.1097 11.2962 13.0896 11.2917C13.0711 11.2883 13.0523 11.2873 13.0336 11.2889C13.0235 11.2889 12.9988 11.2917 12.9776 11.2956L12.9216 11.3018C12.9115 11.3018 12.8365 11.313 12.7536 11.3231L12.6668 11.3298C12.5801 11.3354 12.4871 11.3399 12.3936 11.3422C12.3001 11.3444 12.2044 11.2833 12.1137 11.2822H12.0219C11.5811 11.3519 11.1371 11.3994 10.6916 11.4245H10.1194C9.54775 11.4245 8.98283 11.4212 8.42015 11.4189C7.85747 11.4167 7.30039 11.475 6.74051 11.4789C6.18063 11.4828 5.62467 11.4229 5.06535 11.4301C4.76693 11.4301 4.44948 11.4335 4.12698 11.4369C3.80449 11.4402 3.47864 11.3635 3.16119 11.3646C2.84374 11.3657 2.53805 11.4436 2.25699 11.429L1.97705 11.4156C1.81051 11.4095 1.6473 11.3671 1.49891 11.2912C1.49499 11.2575 1.49219 11.1869 1.49219 11.1326V10.9325" stroke="#C30606"/>
</svg>
