<svg width="69" height="7" viewBox="0 0 69 7" fill="none" xmlns="http://www.w3.org/2000/svg">
<mask id="path-1-inside-1" fill="white">
<path d="M1.05523 5.50617C1.73778 5.9321 2.56059 6.07143 3.34514 5.89396C3.69961 5.71231 3.97615 5.40804 4.12337 5.03769C4.17498 4.82542 4.15214 4.60184 4.05867 4.40442C3.9652 4.20701 3.80678 4.04775 3.60996 3.95333C2.81493 3.59804 1.70637 3.5179 1.36652 2.51535C1.36012 2.13892 1.44585 1.76664 1.61623 1.43099C1.9921 1.17748 2.42432 1.02004 2.87506 0.972459C3.3258 0.924882 3.78132 0.988622 4.20175 1.15808C4.43522 1.33461 4.32605 1.67532 4.27902 1.90059C3.67211 1.70614 2.90788 1.36767 2.30097 1.78853C2.16748 1.86091 2.06804 1.98324 2.0244 2.12878C1.98076 2.27432 1.99646 2.43123 2.06805 2.56522C3.01985 3.3083 5.12052 3.27581 4.7622 5.16769C4.66568 5.52053 4.47087 5.83861 4.20052 6.0848C3.93018 6.33098 3.59544 6.4951 3.2354 6.55802C2.47141 6.70859 1.67884 6.55779 1.02332 6.13716C0.985894 6.03545 0.969422 5.92722 0.974906 5.81897C0.980391 5.71071 1.00771 5.60469 1.05523 5.50729"/>
</mask>
<path d="M1.05523 5.50617C1.73778 5.9321 2.56059 6.07143 3.34514 5.89396C3.69961 5.71231 3.97615 5.40804 4.12337 5.03769C4.17498 4.82542 4.15214 4.60184 4.05867 4.40442C3.9652 4.20701 3.80678 4.04775 3.60996 3.95333C2.81493 3.59804 1.70637 3.5179 1.36652 2.51535C1.36012 2.13892 1.44585 1.76664 1.61623 1.43099C1.9921 1.17748 2.42432 1.02004 2.87506 0.972459C3.3258 0.924882 3.78132 0.988622 4.20175 1.15808C4.43522 1.33461 4.32605 1.67532 4.27902 1.90059C3.67211 1.70614 2.90788 1.36767 2.30097 1.78853C2.16748 1.86091 2.06804 1.98324 2.0244 2.12878C1.98076 2.27432 1.99646 2.43123 2.06805 2.56522C3.01985 3.3083 5.12052 3.27581 4.7622 5.16769C4.66568 5.52053 4.47087 5.83861 4.20052 6.0848C3.93018 6.33098 3.59544 6.4951 3.2354 6.55802C2.47141 6.70859 1.67884 6.55779 1.02332 6.13716C0.985894 6.03545 0.969422 5.92722 0.974906 5.81897C0.980391 5.71071 1.00771 5.60469 1.05523 5.50729" fill="#C30606"/>
<path d="M3.34514 5.89396L3.56577 6.86931L3.68887 6.84147L3.80119 6.78391L3.34514 5.89396ZM4.12337 5.03769L5.05264 5.40708L5.07851 5.342L5.09506 5.27395L4.12337 5.03769ZM3.60996 3.95333L4.04251 3.05172L4.03031 3.04587L4.01796 3.04035L3.60996 3.95333ZM1.36652 2.51535L0.366666 2.53237L0.369323 2.6885L0.419456 2.83639L1.36652 2.51535ZM1.61623 1.43099L1.05706 0.601943L0.841969 0.747012L0.724537 0.97835L1.61623 1.43099ZM4.20175 1.15808L4.80486 0.36042L4.69885 0.28027L4.57559 0.230589L4.20175 1.15808ZM4.27902 1.90059L3.97389 2.85291L5.03105 3.19162L5.25791 2.10495L4.27902 1.90059ZM2.30097 1.78853L2.77765 2.6676L2.8258 2.64149L2.8708 2.61028L2.30097 1.78853ZM2.06805 2.56522L1.18607 3.0365L1.28583 3.22319L1.45267 3.35345L2.06805 2.56522ZM4.7622 5.16769L5.72676 5.43156L5.7373 5.39303L5.74473 5.35379L4.7622 5.16769ZM3.2354 6.55802L3.06325 5.57295L3.05263 5.57481L3.04204 5.57689L3.2354 6.55802ZM1.02332 6.13716L0.0848378 6.48249L0.200755 6.79751L0.483268 6.9788L1.02332 6.13716ZM0.525828 6.35455C1.43185 6.91992 2.5242 7.10493 3.56577 6.86931L3.1245 4.9186C2.59699 5.03793 2.0437 4.94427 1.58463 4.6578L0.525828 6.35455ZM3.80119 6.78391C4.37138 6.49172 4.816 6.00241 5.05264 5.40708L3.1941 4.66829C3.1363 4.81368 3.02784 4.9329 2.88908 5.00401L3.80119 6.78391ZM5.09506 5.27395C5.20079 4.83909 5.15402 4.38103 4.96249 3.9765L3.15486 4.83235C3.15026 4.82264 3.14917 4.81175 3.15168 4.80142L5.09506 5.27395ZM4.96249 3.9765C4.77094 3.57193 4.4462 3.24539 4.04251 3.05172L3.17741 4.85494C3.16737 4.85012 3.15947 4.84208 3.15486 4.83235L4.96249 3.9765ZM4.01796 3.04035C3.76413 2.92691 3.49434 2.83932 3.28596 2.77036C3.05811 2.69497 2.88391 2.63579 2.73011 2.56613C2.44622 2.43756 2.36045 2.33257 2.31359 2.19431L0.419456 2.83639C0.712438 3.70068 1.35088 4.13704 1.90499 4.38799C2.17019 4.5081 2.44344 4.59823 2.65767 4.66911C2.89137 4.74644 3.05828 4.8021 3.20196 4.86631L4.01796 3.04035ZM2.36638 2.49834C2.36275 2.28491 2.41136 2.07386 2.50792 1.88364L0.724537 0.97835C0.480335 1.45942 0.357488 1.99294 0.366666 2.53237L2.36638 2.49834ZM2.1754 2.26005C2.41572 2.09795 2.692 1.99734 2.98003 1.96693L2.77009 -0.022016C2.15664 0.042736 1.56847 0.257008 1.05706 0.601943L2.1754 2.26005ZM2.98003 1.96693C3.26806 1.93653 3.55917 1.97726 3.82791 2.08558L4.57559 0.230589C4.00347 -1.16013e-05 3.38355 -0.0867685 2.77009 -0.022016L2.98003 1.96693ZM3.59865 1.95575C3.49236 1.87538 3.41817 1.76625 3.37884 1.6578C3.34429 1.56252 3.34565 1.49361 3.346 1.48161C3.34637 1.46909 3.34735 1.47644 3.33882 1.51931C3.33484 1.53932 3.33 1.56139 3.3232 1.59157C3.31735 1.61758 3.30806 1.6582 3.30012 1.69624L5.25791 2.10495C5.26238 2.08357 5.3377 1.79305 5.34514 1.5405C5.35387 1.2441 5.28687 0.724868 4.80486 0.36042L3.59865 1.95575ZM4.58414 0.948281C4.36289 0.87739 3.89174 0.699274 3.45211 0.627046C2.97127 0.548049 2.32934 0.551944 1.73113 0.966768L2.8708 2.61028C2.8795 2.60425 2.92314 2.56695 3.12787 2.60059C3.37381 2.64099 3.58823 2.72934 3.97389 2.85291L4.58414 0.948281ZM1.82428 0.909449C1.45835 1.10788 1.18603 1.44307 1.06654 1.84155L2.98226 2.41602C2.95006 2.52341 2.8766 2.61394 2.77765 2.6676L1.82428 0.909449ZM1.06654 1.84155C0.947047 2.24003 0.990022 2.66961 1.18607 3.0365L2.95004 2.09394C3.00289 2.19285 3.01447 2.30862 2.98226 2.41602L1.06654 1.84155ZM1.45267 3.35345C1.8139 3.63547 2.24489 3.81698 2.56725 3.94685C2.93685 4.09576 3.19744 4.19023 3.43401 4.31703C3.65777 4.43697 3.73516 4.52483 3.76416 4.57416C3.7786 4.59874 3.83397 4.69485 3.77966 4.9816L5.74473 5.35379C5.86958 4.6946 5.79674 4.08531 5.48834 3.56066C5.1945 3.06078 4.75442 2.75559 4.37883 2.55428C4.01605 2.35983 3.5954 2.20486 3.31463 2.09175C2.98662 1.9596 2.7981 1.86652 2.68344 1.77699L1.45267 3.35345ZM3.79764 4.90383C3.75113 5.07384 3.6573 5.22698 3.52723 5.34542L4.87382 6.82417C5.28444 6.45025 5.58022 5.96722 5.72676 5.43156L3.79764 4.90383ZM3.52723 5.34542C3.39718 5.46384 3.23626 5.54272 3.06325 5.57295L3.40755 7.54309C3.95463 7.44749 4.46317 7.19812 4.87382 6.82417L3.52723 5.34542ZM3.04204 5.57689C2.53143 5.67752 2.00166 5.57677 1.56337 5.29553L0.483268 6.9788C1.35602 7.53882 2.41138 7.73965 3.42876 7.53915L3.04204 5.57689ZM1.9618 5.79184C1.97094 5.81666 1.97497 5.84311 1.97363 5.86957L-0.0238125 5.76837C-0.0361225 6.01133 0.000849582 6.25424 0.0848378 6.48249L1.9618 5.79184ZM1.97363 5.86957C1.97229 5.89598 1.96562 5.92188 1.95399 5.94572L0.156467 5.06885C0.0498055 5.2875 -0.0115052 5.52545 -0.0238125 5.76837L1.97363 5.86957Z" fill="#C30606" mask="url(#path-1-inside-1)"/>
<mask id="path-3-inside-2" fill="white">
<path d="M7.03594 1.0095C8.18761 0.864923 9.16908 1.12159 10.2592 1.09021C10.3116 1.16777 10.3459 1.25618 10.3595 1.34884C10.373 1.4415 10.3655 1.53601 10.3376 1.62538C9.80847 1.80302 9.09126 1.39786 8.84267 1.98067L8.76429 6.52323C8.59241 6.58823 8.28168 6.58823 8.23465 6.36015V1.73803L8.12266 1.62594H6.78343C6.65858 1.4298 6.62778 0.865483 7.03314 1.0095"/>
</mask>
<path d="M7.03594 1.0095C8.18761 0.864923 9.16908 1.12159 10.2592 1.09021C10.3116 1.16777 10.3459 1.25618 10.3595 1.34884C10.373 1.4415 10.3655 1.53601 10.3376 1.62538C9.80847 1.80302 9.09126 1.39786 8.84267 1.98067L8.76429 6.52323C8.59241 6.58823 8.28168 6.58823 8.23465 6.36015V1.73803L8.12266 1.62594H6.78343C6.65858 1.4298 6.62778 0.865483 7.03314 1.0095" fill="#C30606"/>
<path d="M10.2592 1.09021L11.0876 0.53012L10.7798 0.0748063L10.2304 0.0906221L10.2592 1.09021ZM10.3376 1.62538L10.6558 2.57337L11.1394 2.41102L11.2918 1.92427L10.3376 1.62538ZM8.84267 1.98067L7.92285 1.58833L7.84619 1.76806L7.84282 1.96341L8.84267 1.98067ZM8.76429 6.52323L9.11803 7.45857L9.75244 7.21864L9.76414 6.54048L8.76429 6.52323ZM8.23465 6.36015H7.23465V6.46217L7.25525 6.5621L8.23465 6.36015ZM8.23465 1.73803H9.23465V1.32408L8.94208 1.03124L8.23465 1.73803ZM8.12266 1.62594L8.83009 0.919158L8.53714 0.625941H8.12266V1.62594ZM6.78343 1.62594L5.93984 2.16293L6.23457 2.62594H6.78343V1.62594ZM7.1605 2.00172C7.63043 1.94272 8.07966 1.9632 8.59067 2.0042C9.07895 2.04338 9.67274 2.1075 10.2879 2.08979L10.2304 0.0906221C9.75551 0.104293 9.31353 0.055775 8.75063 0.0106098C8.21046 -0.0327312 7.59312 -0.0682936 6.91137 0.0172926L7.1605 2.00172ZM9.43074 1.6503C9.39894 1.60326 9.37822 1.54975 9.37001 1.49376L11.3489 1.20392C11.3136 0.962607 11.2243 0.732275 11.0876 0.53012L9.43074 1.6503ZM9.37001 1.49376C9.36181 1.43773 9.36633 1.38055 9.38327 1.32648L11.2918 1.92427C11.3648 1.69148 11.3843 1.44527 11.3489 1.20392L9.37001 1.49376ZM10.0193 0.677385C10.0524 0.666274 10.0465 0.677019 9.94249 0.674235C9.89317 0.672915 9.8403 0.669489 9.7642 0.664409C9.69575 0.65984 9.60236 0.653479 9.50747 0.651339C9.33148 0.647372 9.02782 0.651785 8.71697 0.78334C8.35727 0.935571 8.0819 1.21544 7.92285 1.58833L9.7625 2.373C9.75058 2.40094 9.72273 2.45264 9.66849 2.50763C9.61324 2.56363 9.55145 2.60191 9.49647 2.62518C9.40654 2.66324 9.36186 2.64856 9.46239 2.65083C9.50575 2.65181 9.555 2.6549 9.631 2.65997C9.69936 2.66453 9.79276 2.67094 9.88896 2.67352C10.076 2.67853 10.3582 2.6733 10.6558 2.57337L10.0193 0.677385ZM7.84282 1.96341L7.76444 6.50598L9.76414 6.54048L9.84253 1.99792L7.84282 1.96341ZM8.41055 5.58789C8.47428 5.56378 8.54242 5.55036 8.64316 5.56991C8.70222 5.58137 8.81911 5.61421 8.94164 5.71324C9.07916 5.82438 9.17798 5.98332 9.21404 6.1582L7.25525 6.5621C7.39011 7.21615 7.92943 7.46871 8.26213 7.53328C8.57297 7.5936 8.88242 7.54768 9.11803 7.45857L8.41055 5.58789ZM9.23465 6.36015V1.73803H7.23465V6.36015H9.23465ZM8.94208 1.03124L8.83009 0.919158L7.41523 2.33272L7.52721 2.44481L8.94208 1.03124ZM8.12266 0.625941H6.78343V2.62594H8.12266V0.625941ZM7.62702 1.08895C7.68739 1.18379 7.69648 1.24682 7.69689 1.24913C7.6987 1.25913 7.70612 1.30008 7.6927 1.37246C7.68258 1.42706 7.62849 1.66597 7.3705 1.84261C7.07233 2.04676 6.78385 1.98218 6.69834 1.9518L7.36793 0.067213C7.07975 -0.0351771 6.6431 -0.0832293 6.2406 0.192357C5.87828 0.440431 5.7637 0.80567 5.72621 1.00787C5.68543 1.22784 5.69862 1.43765 5.72865 1.60412C5.75729 1.7629 5.81704 1.97002 5.93984 2.16293L7.62702 1.08895Z" fill="#C30606" mask="url(#path-3-inside-2)"/>
<mask id="path-5-inside-3" fill="white">
<path d="M12.7177 1.12553C13.8078 1.01345 14.7266 1.18885 15.8167 1.12553C15.9421 1.25442 15.895 1.46176 15.9421 1.62707L15.8167 1.70665L13.3879 1.74027C13.2731 1.98551 13.22 2.25518 13.2334 2.52569C13.2468 2.7962 13.3261 3.05931 13.4646 3.29201C14.2457 3.20813 15.033 3.19743 15.8161 3.26006C15.9566 3.37214 15.8782 3.5963 15.8945 3.7605L15.7859 3.84175C14.913 4.00258 14.1337 3.6798 13.3224 3.95383C13.1365 4.55289 13.3537 5.13514 13.2754 5.81322C13.5721 6.10406 14.0861 5.91016 14.3951 6.00655L14.5821 5.94211L15.8139 5.97461C16.016 6.10406 15.9258 6.37865 15.8922 6.55742C14.8236 6.6136 13.7528 6.6136 12.6841 6.55742C12.809 4.64872 12.5901 3.08297 12.7149 1.12608"/>
</mask>
<path d="M12.7177 1.12553C13.8078 1.01345 14.7266 1.18885 15.8167 1.12553C15.9421 1.25442 15.895 1.46176 15.9421 1.62707L15.8167 1.70665L13.3879 1.74027C13.2731 1.98551 13.22 2.25518 13.2334 2.52569C13.2468 2.7962 13.3261 3.05931 13.4646 3.29201C14.2457 3.20813 15.033 3.19743 15.8161 3.26006C15.9566 3.37214 15.8782 3.5963 15.8945 3.7605L15.7859 3.84175C14.913 4.00258 14.1337 3.6798 13.3224 3.95383C13.1365 4.55289 13.3537 5.13514 13.2754 5.81322C13.5721 6.10406 14.0861 5.91016 14.3951 6.00655L14.5821 5.94211L15.8139 5.97461C16.016 6.10406 15.9258 6.37865 15.8922 6.55742C14.8236 6.6136 13.7528 6.6136 12.6841 6.55742C12.809 4.64872 12.5901 3.08297 12.7149 1.12608" fill="#C30606"/>
<path d="M15.8167 1.12553L16.5334 0.428156L16.2148 0.100716L15.7587 0.127211L15.8167 1.12553ZM15.9421 1.62707L16.4778 2.47145L17.1082 2.07149L16.9039 1.35345L15.9421 1.62707ZM15.8167 1.70665L15.8305 2.70655L16.1135 2.70264L16.3524 2.55102L15.8167 1.70665ZM13.3879 1.74027L13.3741 0.740368L12.7479 0.749036L12.4823 1.31619L13.3879 1.74027ZM13.4646 3.29201L12.6052 3.80337L12.9334 4.3548L13.5714 4.28629L13.4646 3.29201ZM15.8161 3.26006L16.4396 2.47826L16.2006 2.28762L15.8958 2.26325L15.8161 3.26006ZM15.8945 3.7605L16.4935 4.56125L16.9451 4.22339L16.8896 3.66209L15.8945 3.7605ZM15.7859 3.84175L15.9671 4.82519L16.1974 4.78276L16.3849 4.6425L15.7859 3.84175ZM13.3224 3.95383L13.0024 3.00642L12.5186 3.16982L12.3673 3.65749L13.3224 3.95383ZM13.2754 5.81322L12.282 5.69838L12.2258 6.1847L12.5754 6.52738L13.2754 5.81322ZM14.3951 6.00655L14.0974 6.9612L14.4107 7.05891L14.7209 6.95199L14.3951 6.00655ZM14.5821 5.94211L14.6085 4.94246L14.4275 4.93769L14.2563 4.99667L14.5821 5.94211ZM15.8139 5.97461L16.3532 5.13252L16.1186 4.9823L15.8402 4.97495L15.8139 5.97461ZM15.8922 6.55742L15.9447 7.55604L16.7298 7.51477L16.875 6.7421L15.8922 6.55742ZM12.6841 6.55742L11.6863 6.49215L11.6201 7.50286L12.6316 7.55604L12.6841 6.55742ZM12.82 2.12028C13.2863 2.07234 13.7251 2.08453 14.2236 2.10629C14.7083 2.12746 15.2677 2.1591 15.8746 2.12385L15.7587 0.127211C15.2755 0.155278 14.8305 0.130884 14.3108 0.108197C13.8049 0.0861094 13.2392 0.0666365 12.6154 0.130772L12.82 2.12028ZM15.0999 1.8229C15.0571 1.77892 15.0223 1.73198 14.9947 1.68528C14.9676 1.63921 14.9497 1.59711 14.938 1.5635C14.9265 1.53043 14.9207 1.50456 14.9178 1.49008C14.915 1.47586 14.9144 1.46852 14.9148 1.47254C14.9153 1.47729 14.9161 1.48583 14.9178 1.5071C14.9191 1.52366 14.9216 1.55751 14.9246 1.58985C14.9278 1.62433 14.9327 1.66974 14.9407 1.7205C14.9489 1.77154 14.961 1.83311 14.9802 1.9007L16.9039 1.35345C16.9175 1.40113 16.9183 1.42946 16.916 1.40434C16.9148 1.39197 16.914 1.38075 16.9118 1.35234C16.9099 1.32864 16.9071 1.2923 16.9027 1.25274C16.8874 1.11449 16.8394 0.742666 16.5334 0.428156L15.0999 1.8229ZM15.4063 0.782703L15.2809 0.862278L16.3524 2.55102L16.4778 2.47145L15.4063 0.782703ZM15.8028 0.706745L13.3741 0.740368L13.4017 2.74018L15.8305 2.70655L15.8028 0.706745ZM12.4823 1.31619C12.2982 1.70931 12.2132 2.14153 12.2346 2.57506L14.2322 2.47632C14.2268 2.36883 14.2479 2.26171 14.2935 2.16435L12.4823 1.31619ZM12.2346 2.57506C12.256 3.00858 12.3832 3.43032 12.6052 3.80337L14.324 2.78065C14.269 2.68831 14.2375 2.58382 14.2322 2.47632L12.2346 2.57506ZM13.5714 4.28629C14.2906 4.20907 15.0154 4.19922 15.7364 4.25688L15.8958 2.26325C15.0506 2.19565 14.2009 2.20719 13.3578 2.29772L13.5714 4.28629ZM15.1926 4.04187C15.127 3.98958 15.0702 3.92711 15.0246 3.85789C14.9796 3.78973 14.9512 3.72403 14.9335 3.66893C14.9006 3.56687 14.9019 3.49292 14.9019 3.49074C14.9019 3.48615 14.9021 3.48788 14.9012 3.50214C14.8999 3.52581 14.8996 3.52591 14.8971 3.56634C14.8941 3.61405 14.8866 3.73001 14.8993 3.8589L16.8896 3.66209C16.8942 3.70889 16.8904 3.73526 16.8932 3.69125C16.8943 3.6741 16.9019 3.57716 16.9019 3.49074C16.9019 3.32728 16.8835 2.83229 16.4396 2.47826L15.1926 4.04187ZM15.2955 2.95975L15.1869 3.041L16.3849 4.6425L16.4935 4.56125L15.2955 2.95975ZM15.6046 2.8583C15.3183 2.91106 15.0493 2.8869 14.5959 2.85744C14.1843 2.83071 13.6113 2.80072 13.0024 3.00642L13.6424 4.90124C13.8447 4.83291 14.067 4.8273 14.4662 4.85324C14.8235 4.87645 15.3805 4.93326 15.9671 4.82519L15.6046 2.8583ZM12.3673 3.65749C12.2151 4.14803 12.2388 4.60486 12.261 4.92343C12.2859 5.28021 12.3077 5.47585 12.282 5.69838L14.2687 5.92805C14.3214 5.4725 14.2738 5.03798 14.2561 4.78435C14.2358 4.49252 14.2438 4.3587 14.2775 4.25018L12.3673 3.65749ZM12.5754 6.52738C13.0277 6.97077 13.5949 6.98289 13.831 6.98281C13.8995 6.98278 13.9653 6.98072 14.0138 6.97924C14.0677 6.97759 14.1019 6.9766 14.1323 6.97658C14.205 6.97652 14.1702 6.9839 14.0974 6.9612L14.6929 5.0519C14.4655 4.98101 14.2506 4.97648 14.1307 4.97658C14.0649 4.97663 13.9996 4.97874 13.9527 4.98018C13.9003 4.98178 13.8639 4.98279 13.8303 4.98281C13.6579 4.98286 13.8197 4.94651 13.9753 5.09905L12.5754 6.52738ZM14.7209 6.95199L14.9079 6.88755L14.2563 4.99667L14.0693 5.06111L14.7209 6.95199ZM14.5557 6.94176L15.7875 6.97426L15.8402 4.97495L14.6085 4.94246L14.5557 6.94176ZM15.2745 6.8167C15.1479 6.73559 15.0491 6.61464 14.9928 6.47928C14.943 6.35962 14.9411 6.2648 14.9415 6.23381C14.942 6.20256 14.9459 6.1923 14.94 6.22312C14.9374 6.23709 14.9341 6.25263 14.9286 6.2785C14.9241 6.30007 14.9163 6.33641 14.9094 6.37274L16.875 6.7421C16.8766 6.73373 16.879 6.72239 16.885 6.69423C16.89 6.67036 16.8978 6.6341 16.9051 6.59517C16.9193 6.52018 16.9394 6.39965 16.9413 6.26123C16.9453 5.97334 16.8615 5.45808 16.3532 5.13252L15.2745 6.8167ZM15.8397 5.5588C14.8061 5.61314 13.7703 5.61314 12.7366 5.5588L12.6316 7.55604C13.7352 7.61406 14.8411 7.61406 15.9447 7.55604L15.8397 5.5588ZM13.682 6.62269C13.7479 5.61571 13.7226 4.70295 13.6992 3.83295C13.6756 2.95465 13.6537 2.11681 13.7129 1.18975L11.717 1.0624C11.6512 2.09224 11.6765 3.01572 11.6999 3.8867C11.7235 4.76597 11.7452 5.59043 11.6863 6.49215L13.682 6.62269Z" fill="#C30606" mask="url(#path-5-inside-3)"/>
<path d="M18.5373 6.13822C18.5321 6.1386 18.533 6.13818 18.5387 6.1381L18.5373 6.13822Z" fill="#C30606" stroke="#C30606"/>
<mask id="path-8-inside-4" fill="white">
<path d="M25.9113 1.15805C26.067 1.20624 26.4247 0.8986 26.441 1.28527C26.5031 1.96503 26.3016 2.67728 26.4723 3.25953H26.6599C27.4224 2.51532 28.0596 1.88544 28.793 1.15805L29.5097 1.20624V1.35084C28.6957 2.06443 27.9307 2.83202 27.2198 3.64844C27.8272 4.69918 28.8552 5.58741 29.4033 6.63815C29.2922 6.69422 29.1694 6.72342 29.045 6.72342C28.9205 6.72342 28.7978 6.69422 28.6866 6.63815C28.0635 5.70061 27.2869 4.82808 26.5994 3.92248C26.3973 3.85804 26.4135 4.085 26.3659 4.19876L26.2887 6.59107C26.1325 6.63814 25.8525 6.68746 25.7741 6.52607C25.7282 4.69918 25.852 2.98495 25.9141 1.15974"/>
</mask>
<path d="M25.9113 1.15805C26.067 1.20624 26.4247 0.8986 26.441 1.28527C26.5031 1.96503 26.3016 2.67728 26.4723 3.25953H26.6599C27.4224 2.51532 28.0596 1.88544 28.793 1.15805L29.5097 1.20624V1.35084C28.6957 2.06443 27.9307 2.83202 27.2198 3.64844C27.8272 4.69918 28.8552 5.58741 29.4033 6.63815C29.2922 6.69422 29.1694 6.72342 29.045 6.72342C28.9205 6.72342 28.7978 6.69422 28.6866 6.63815C28.0635 5.70061 27.2869 4.82808 26.5994 3.92248C26.3973 3.85804 26.4135 4.085 26.3659 4.19876L26.2887 6.59107C26.1325 6.63814 25.8525 6.68746 25.7741 6.52607C25.7282 4.69918 25.852 2.98495 25.9141 1.15974" fill="#C30606"/>
<path d="M26.441 1.28527L25.4418 1.32723L25.4429 1.35181L25.4451 1.37632L26.441 1.28527ZM26.4723 3.25953L25.5127 3.54096L25.7235 4.25953H26.4723V3.25953ZM26.6599 3.25953V4.25953H27.067L27.3583 3.97519L26.6599 3.25953ZM28.793 1.15805L28.8601 0.160304L28.4095 0.130002L28.0889 0.448021L28.793 1.15805ZM29.5097 1.20624H30.5097V0.271233L29.5768 0.208497L29.5097 1.20624ZM29.5097 1.35084L30.1689 2.10278L30.5097 1.80402V1.35084H29.5097ZM27.2198 3.64844L26.4656 2.99173L25.9965 3.53048L26.354 4.14895L27.2198 3.64844ZM29.4033 6.63815L29.8537 7.53098L30.7588 7.07441L30.2899 6.17565L29.4033 6.63815ZM29.045 6.72342L29.045 5.72342L29.045 6.72342ZM28.6866 6.63815L27.8538 7.1917L28.0002 7.41189L28.2362 7.53098L28.6866 6.63815ZM26.5994 3.92248L27.3959 3.3178L27.2046 3.06584L26.9032 2.96974L26.5994 3.92248ZM26.3659 4.19876L25.4434 3.81283L25.3724 3.98258L25.3665 4.16648L26.3659 4.19876ZM26.2887 6.59107L26.5772 7.54854L27.265 7.34128L27.2882 6.62335L26.2887 6.59107ZM25.7741 6.52607L24.7745 6.55119L24.7799 6.76792L24.8746 6.96294L25.7741 6.52607ZM25.6155 2.11331C25.8228 2.17747 26.0028 2.16602 26.1004 2.15399C26.2028 2.14137 26.2885 2.11798 26.334 2.10489C26.3719 2.09399 26.4341 2.07424 26.4371 2.07331C26.4587 2.06666 26.4495 2.07023 26.4277 2.07468C26.4081 2.07866 26.3373 2.0923 26.238 2.0854C26.1315 2.078 25.9697 2.04505 25.8069 1.93322C25.4566 1.69252 25.4426 1.34535 25.4418 1.32723L27.4401 1.24332C27.4312 1.03186 27.3664 0.578141 26.9396 0.284864C26.5457 0.0142009 26.1357 0.0931337 26.0292 0.114781C25.9518 0.130507 25.885 0.150647 25.8489 0.161746C25.7943 0.178569 25.7987 0.177759 25.7809 0.182881C25.7707 0.185817 25.8028 0.175526 25.8558 0.169C25.904 0.163061 26.0388 0.150681 26.2071 0.202795L25.6155 2.11331ZM25.4451 1.37632C25.4671 1.61678 25.4426 1.8559 25.4179 2.24574C25.3968 2.5792 25.3726 3.06311 25.5127 3.54096L27.4319 2.9781C27.4013 2.87369 27.3925 2.71036 27.4139 2.37219C27.4318 2.09041 27.477 1.63352 27.4368 1.19423L25.4451 1.37632ZM26.4723 4.25953H26.6599V2.25953H26.4723V4.25953ZM27.3583 3.97519C28.1237 3.22825 28.763 2.5962 29.4972 1.86808L28.0889 0.448021C27.3561 1.17468 26.7212 1.8024 25.9614 2.54386L27.3583 3.97519ZM28.7259 2.1558L29.4426 2.20399L29.5768 0.208497L28.8601 0.160304L28.7259 2.1558ZM28.5097 1.20624V1.35084H30.5097V1.20624H28.5097ZM28.8504 0.598904C28.0028 1.34207 27.206 2.14147 26.4656 2.99173L27.9739 4.30515C28.6554 3.52257 29.3887 2.78679 30.1689 2.10278L28.8504 0.598904ZM26.354 4.14895C26.7086 4.76226 27.1789 5.31662 27.5636 5.78112C27.9735 6.27606 28.2989 6.68327 28.5167 7.10066L30.2899 6.17565C29.9595 5.5423 29.497 4.98002 29.104 4.50548C28.6858 4.00049 28.3384 3.58535 28.0855 3.14793L26.354 4.14895ZM28.9529 5.74533C28.9814 5.73094 29.013 5.72342 29.045 5.72342L29.045 7.72342C29.3259 7.72342 29.6029 7.6575 29.8537 7.53098L28.9529 5.74533ZM29.045 5.72342C29.077 5.72342 29.1085 5.73094 29.137 5.74533L28.2362 7.53098C28.487 7.6575 28.764 7.72342 29.045 7.72342L29.045 5.72342ZM29.5195 6.08461C28.8801 5.12261 28.0115 4.12871 27.3959 3.3178L25.8029 4.52716C26.5624 5.52744 27.2469 6.27862 27.8538 7.1917L29.5195 6.08461ZM26.9032 2.96974C26.7009 2.90523 26.3727 2.85818 26.0327 3.03025C25.708 3.19465 25.5641 3.46437 25.5066 3.59746C25.4509 3.72655 25.4243 3.85355 25.4194 3.87473C25.4038 3.94279 25.4148 3.88121 25.4434 3.81283L27.2885 4.58469C27.3409 4.45943 27.3677 4.32682 27.3687 4.32235C27.3805 4.27099 27.3714 4.32394 27.3428 4.39012C27.3125 4.46031 27.2055 4.67827 26.936 4.81468C26.6513 4.95876 26.3969 4.90751 26.2956 4.87522L26.9032 2.96974ZM25.3665 4.16648L25.2892 6.55879L27.2882 6.62335L27.3654 4.23104L25.3665 4.16648ZM26.0001 5.6336C25.9667 5.64368 25.9717 5.63595 26.022 5.63694C26.0493 5.63748 26.1442 5.64137 26.2658 5.69448C26.4049 5.75521 26.5719 5.87954 26.6737 6.0892L24.8746 6.96294C25.1713 7.5739 25.7843 7.63264 25.9825 7.63655C26.2314 7.64146 26.4544 7.58554 26.5772 7.54854L26.0001 5.6336ZM26.7738 6.50095C26.7289 4.71327 26.8498 3.06714 26.9135 1.19377L24.9147 1.12571C24.8542 2.90276 24.7276 4.6851 24.7745 6.55119L26.7738 6.50095Z" fill="#C30606" mask="url(#path-8-inside-4)"/>
<mask id="path-10-inside-5" fill="white">
<path d="M32.234 1.12498C32.3264 0.978156 32.514 1.07621 32.6383 1.04371C33.0134 1.66014 32.5459 2.5635 32.9042 3.22533C33.7284 3.33741 34.5239 3.16088 35.3806 3.22533L35.5676 2.98269C35.614 2.3203 35.5827 1.85236 35.5967 1.20567C35.7383 1.12497 35.9248 1.02691 36.081 1.12498C36.2534 3.04769 36.081 4.61567 36.081 6.52381C35.935 6.57118 35.782 6.59316 35.6286 6.58882L35.5211 6.44367C35.5961 5.60418 35.5855 4.75922 35.4892 3.9219C34.6309 3.82583 33.7655 3.80951 32.9042 3.87314L32.7631 4.06705L32.6853 6.52492C32.5767 6.65437 32.3902 6.57256 32.234 6.58993L32.1568 6.44478C32.1254 4.45539 32.2027 2.80672 32.234 1.12666"/>
</mask>
<path d="M32.234 1.12498C32.3264 0.978156 32.514 1.07621 32.6383 1.04371C33.0134 1.66014 32.5459 2.5635 32.9042 3.22533C33.7284 3.33741 34.5239 3.16088 35.3806 3.22533L35.5676 2.98269C35.614 2.3203 35.5827 1.85236 35.5967 1.20567C35.7383 1.12497 35.9248 1.02691 36.081 1.12498C36.2534 3.04769 36.081 4.61567 36.081 6.52381C35.935 6.57118 35.782 6.59316 35.6286 6.58882L35.5211 6.44367C35.5961 5.60418 35.5855 4.75922 35.4892 3.9219C34.6309 3.82583 33.7655 3.80951 32.9042 3.87314L32.7631 4.06705L32.6853 6.52492C32.5767 6.65437 32.3902 6.57256 32.234 6.58993L32.1568 6.44478C32.1254 4.45539 32.2027 2.80672 32.234 1.12666" fill="#C30606"/>
<path d="M32.6383 1.04371L33.4925 0.523866L33.1055 -0.112102L32.3853 0.0762433L32.6383 1.04371ZM32.9042 3.22533L32.0248 3.70144L32.2665 4.14781L32.7695 4.21621L32.9042 3.22533ZM35.3806 3.22533L35.3055 4.22251L35.8434 4.26297L36.1726 3.83574L35.3806 3.22533ZM35.5676 2.98269L36.3596 3.5931L36.544 3.35391L36.5651 3.05267L35.5676 2.98269ZM35.5967 1.20567L35.1017 0.336773L34.6092 0.617346L34.5969 1.18403L35.5967 1.20567ZM36.081 1.12498L37.077 1.03565L37.0327 0.541731L36.6127 0.278054L36.081 1.12498ZM36.081 6.52381L36.3896 7.475L37.081 7.25067V6.52381H36.081ZM35.6286 6.58882L34.825 7.18402L35.1143 7.57465L35.6003 7.58842L35.6286 6.58882ZM35.5211 6.44367L34.5251 6.35462L34.4912 6.73334L34.7175 7.03887L35.5211 6.44367ZM35.4892 3.9219L36.4826 3.80767L36.3917 3.01668L35.6004 2.92811L35.4892 3.9219ZM32.9042 3.87314L32.8305 2.87586L32.3683 2.91001L32.0956 3.28476L32.9042 3.87314ZM32.7631 4.06705L31.9545 3.47866L31.7734 3.72763L31.7636 4.0354L32.7631 4.06705ZM32.6853 6.52492L33.4513 7.16769L33.6738 6.90253L33.6848 6.55657L32.6853 6.52492ZM32.234 6.58993L31.3513 7.05982L31.6702 7.6588L32.3446 7.5838L32.234 6.58993ZM32.1568 6.44478L31.1569 6.46054L31.1607 6.70174L31.274 6.91468L32.1568 6.44478ZM33.0804 1.65753C33.0368 1.72678 32.9773 1.79735 32.8996 1.85983C32.822 1.92229 32.7404 1.96528 32.6639 1.99342C32.5217 2.04573 32.4099 2.04147 32.3958 2.04107C32.385 2.04077 32.3806 2.04016 32.396 2.04145C32.4026 2.04201 32.4401 2.04541 32.472 2.04745C32.5078 2.04973 32.5643 2.05241 32.6306 2.04965C32.6971 2.04688 32.7881 2.03816 32.8913 2.01118L32.3853 0.0762433C32.4574 0.0573908 32.5153 0.0527165 32.5474 0.0513781C32.5643 0.0506752 32.5774 0.0507739 32.5856 0.0509603C32.5937 0.0511462 32.5988 0.0514678 32.5993 0.0515017C32.5997 0.0515268 32.5979 0.0514166 32.5915 0.050883C32.574 0.0494127 32.5881 0.0505575 32.5642 0.0485415C32.5422 0.0466797 32.5004 0.0432344 32.4525 0.0418773C32.3645 0.0393788 32.1807 0.0401692 31.9734 0.116397C31.7381 0.202965 31.5309 0.364756 31.3876 0.59243L33.0804 1.65753ZM31.784 1.56356C31.7779 1.5536 31.8098 1.59109 31.7797 2.0523C31.7591 2.36653 31.6832 3.07042 32.0248 3.70144L33.7836 2.74921C33.7669 2.71841 33.7455 2.63971 33.7754 2.18269C33.7957 1.87266 33.8737 1.15026 33.4925 0.523866L31.784 1.56356ZM32.7695 4.21621C33.2856 4.28639 33.776 4.26375 34.1841 4.24174C34.6161 4.21843 34.9559 4.19621 35.3055 4.22251L35.4556 2.22814C34.9486 2.19 34.4623 2.22382 34.0763 2.24464C33.6664 2.26676 33.347 2.27634 33.039 2.23445L32.7695 4.21621ZM36.1726 3.83574L36.3596 3.5931L34.7755 2.37227L34.5885 2.61491L36.1726 3.83574ZM36.5651 3.05267C36.6128 2.37218 36.5847 1.76728 36.5964 1.2273L34.5969 1.18403C34.5806 1.93743 34.6152 2.26842 34.57 2.9127L36.5651 3.05267ZM36.0917 2.07456C36.1232 2.05662 36.1353 2.05035 36.1408 2.04775C36.1463 2.0451 36.1276 2.05476 36.0909 2.06456C36.0537 2.07445 35.9791 2.08966 35.8795 2.08167C35.7727 2.07312 35.6564 2.0392 35.5492 1.9719L36.6127 0.278054C36.2201 0.0315885 35.8215 0.066547 35.5758 0.132009C35.352 0.191671 35.1675 0.29926 35.1017 0.336773L36.0917 2.07456ZM35.085 1.21431C35.2529 3.08669 35.081 4.48091 35.081 6.52381H37.081C37.081 4.75043 37.2539 3.00869 37.077 1.03565L35.085 1.21431ZM35.7723 5.57263C35.7351 5.58472 35.696 5.59033 35.6569 5.58922L35.6003 7.58842C35.8679 7.596 36.1349 7.55764 36.3896 7.475L35.7723 5.57263ZM36.4322 5.99362L36.3247 5.84847L34.7175 7.03887L34.825 7.18402L36.4322 5.99362ZM36.5171 6.53272C36.5982 5.62557 36.5867 4.7125 36.4826 3.80767L34.4957 4.03613C34.5842 4.80594 34.5941 5.58279 34.5251 6.35462L36.5171 6.53272ZM35.6004 2.92811C34.6807 2.82516 33.7535 2.80767 32.8305 2.87586L32.9779 4.87043C33.7776 4.81134 34.581 4.8265 35.3779 4.9157L35.6004 2.92811ZM32.0956 3.28476L31.9545 3.47866L33.5717 4.65543L33.7128 4.46153L32.0956 3.28476ZM31.7636 4.0354L31.6858 6.49328L33.6848 6.55657L33.7626 4.09869L31.7636 4.0354ZM31.9192 5.88216C31.9689 5.82291 32.0294 5.76875 32.0992 5.72371C32.1685 5.67905 32.2369 5.64988 32.2974 5.63129C32.4106 5.59654 32.4952 5.59957 32.5039 5.5998C32.5111 5.6 32.512 5.60031 32.4982 5.59917C32.4913 5.59861 32.4843 5.598 32.4726 5.59698C32.4622 5.59608 32.448 5.59485 32.4328 5.59367C32.3796 5.58952 32.2608 5.58079 32.1235 5.59606L32.3446 7.5838C32.2854 7.59038 32.2484 7.58536 32.2775 7.58763C32.3055 7.58981 32.2887 7.58873 32.3354 7.59254C32.3625 7.59475 32.404 7.59787 32.4511 7.59911C32.6266 7.60374 33.0977 7.58923 33.4513 7.16769L31.9192 5.88216ZM33.1167 6.12003L33.0395 5.97489L31.274 6.91468L31.3513 7.05982L33.1167 6.12003ZM33.1566 6.42903C33.1256 4.4621 33.2019 2.85817 33.2338 1.14531L31.2342 1.108C31.2035 2.75526 31.1252 4.44868 31.1569 6.46054L33.1566 6.42903Z" fill="#C30606" mask="url(#path-10-inside-5)"/>
<mask id="path-12-inside-6" fill="white">
<path d="M42.8868 4.45429C42.766 4.82516 42.5502 5.15784 42.2609 5.4192C41.9715 5.68055 41.6189 5.86144 41.2379 5.94381C40.9151 5.9853 40.5871 5.94663 40.2827 5.83121C39.9784 5.71579 39.7071 5.52717 39.4928 5.28199C39.2602 4.96835 39.1051 4.60411 39.0401 4.21901C38.9751 3.83391 39.0021 3.43887 39.1188 3.06619C39.2567 2.55903 39.5715 2.1181 40.0062 1.82324C40.3471 1.6575 40.7244 1.58086 41.1028 1.60046C41.4813 1.62006 41.8487 1.73525 42.1707 1.93531C42.5023 2.25466 42.7433 2.65635 42.8691 3.09938C42.9949 3.54241 43.001 4.01091 42.8868 4.45708V4.45429ZM42.7014 1.51558C42.2903 1.18437 41.7922 0.97918 41.2673 0.924696C40.7423 0.870212 40.2128 0.968757 39.7425 1.20848C39.3897 1.42082 39.087 1.70698 38.8551 2.04736C38.6232 2.38774 38.4675 2.77429 38.3988 3.18051C38.2786 3.76161 38.3312 4.3652 38.5501 4.91668C38.7691 5.46815 39.1447 5.94331 39.6305 6.2834C40.4558 6.62356 41.5929 6.83316 42.3566 6.25091C42.693 6.00071 42.9763 5.68609 43.1902 5.32532C43.404 4.96456 43.5441 4.56486 43.6023 4.14944C43.6571 3.67082 43.6044 3.186 43.4482 2.73034C43.292 2.27468 43.0361 1.85967 42.6992 1.51558H42.7014Z"/>
</mask>
<path d="M42.8868 4.45429C42.766 4.82516 42.5502 5.15784 42.2609 5.4192C41.9715 5.68055 41.6189 5.86144 41.2379 5.94381C40.9151 5.9853 40.5871 5.94663 40.2827 5.83121C39.9784 5.71579 39.7071 5.52717 39.4928 5.28199C39.2602 4.96835 39.1051 4.60411 39.0401 4.21901C38.9751 3.83391 39.0021 3.43887 39.1188 3.06619C39.2567 2.55903 39.5715 2.1181 40.0062 1.82324C40.3471 1.6575 40.7244 1.58086 41.1028 1.60046C41.4813 1.62006 41.8487 1.73525 42.1707 1.93531C42.5023 2.25466 42.7433 2.65635 42.8691 3.09938C42.9949 3.54241 43.001 4.01091 42.8868 4.45708V4.45429ZM42.7014 1.51558C42.2903 1.18437 41.7922 0.97918 41.2673 0.924696C40.7423 0.870212 40.2128 0.968757 39.7425 1.20848C39.3897 1.42082 39.087 1.70698 38.8551 2.04736C38.6232 2.38774 38.4675 2.77429 38.3988 3.18051C38.2786 3.76161 38.3312 4.3652 38.5501 4.91668C38.7691 5.46815 39.1447 5.94331 39.6305 6.2834C40.4558 6.62356 41.5929 6.83316 42.3566 6.25091C42.693 6.00071 42.9763 5.68609 43.1902 5.32532C43.404 4.96456 43.5441 4.56486 43.6023 4.14944C43.6571 3.67082 43.6044 3.186 43.4482 2.73034C43.292 2.27468 43.0361 1.85967 42.6992 1.51558H42.7014Z" fill="#C30606"/>
<path d="M42.8868 4.45429H43.8868L41.9359 4.14461L42.8868 4.45429ZM41.2379 5.94381L41.3654 6.93565L41.4077 6.93022L41.4493 6.92122L41.2379 5.94381ZM39.4928 5.28199L38.6895 5.87756L38.7134 5.90983L38.7398 5.94007L39.4928 5.28199ZM39.1188 3.06619L40.0731 3.36499L40.0788 3.34687L40.0837 3.32855L39.1188 3.06619ZM40.0062 1.82324L39.5689 0.923901L39.5043 0.95532L39.4448 0.995655L40.0062 1.82324ZM42.1707 1.93531L42.8644 1.21504L42.7882 1.14171L42.6984 1.08592L42.1707 1.93531ZM42.8868 4.45708H41.8868L43.8555 4.70506L42.8868 4.45708ZM42.7014 1.51558V2.51558H45.5369L43.3288 0.736824L42.7014 1.51558ZM39.7425 1.20848L39.2884 0.317549L39.257 0.333553L39.2268 0.351727L39.7425 1.20848ZM38.3988 3.18051L39.378 3.38301L39.3817 3.36523L39.3848 3.34733L38.3988 3.18051ZM39.6305 6.2834L39.057 7.10263L39.1474 7.1659L39.2494 7.20794L39.6305 6.2834ZM42.3566 6.25091L41.7597 5.44846L41.7503 5.45568L42.3566 6.25091ZM43.6023 4.14944L44.5926 4.28813L44.5944 4.27566L44.5958 4.26315L43.6023 4.14944ZM42.6992 1.51558V0.515582H40.3207L41.9846 2.21515L42.6992 1.51558ZM41.9359 4.14461C41.8692 4.34937 41.7501 4.53296 41.5905 4.67715L42.9312 6.16124C43.3502 5.78272 43.6627 5.30095 43.8376 4.76398L41.9359 4.14461ZM41.5905 4.67715C41.4309 4.82132 41.2365 4.92101 41.0266 4.9664L41.4493 6.92122C42.0012 6.80186 42.5122 6.53978 42.9312 6.16124L41.5905 4.67715ZM41.1104 4.95197C40.9506 4.97252 40.7881 4.95337 40.6373 4.89619L39.9281 6.76623C40.386 6.93989 40.8797 6.99809 41.3654 6.93565L41.1104 4.95197ZM40.6373 4.89619C40.4865 4.83901 40.352 4.74553 40.2457 4.6239L38.7398 5.94007C39.0621 6.30881 39.4702 6.59257 39.9281 6.76623L40.6373 4.89619ZM40.2961 4.68641C40.1575 4.49947 40.065 4.28227 40.0262 4.05257L38.0541 4.38544C38.1453 4.92594 38.363 5.43724 38.6895 5.87756L40.2961 4.68641ZM40.0262 4.05257C39.9874 3.82287 40.0035 3.58725 40.0731 3.36499L38.1645 2.76739C38.0007 3.2905 37.9629 3.84494 38.0541 4.38544L40.0262 4.05257ZM40.0837 3.32855C40.159 3.05184 40.3307 2.81147 40.5675 2.65083L39.4448 0.995655C38.8123 1.42472 38.3543 2.06623 38.1538 2.80382L40.0837 3.32855ZM40.4434 2.72259C40.6324 2.63072 40.8414 2.58826 41.0511 2.59912L41.1546 0.601796C40.6073 0.573458 40.0618 0.684287 39.5689 0.923901L40.4434 2.72259ZM41.0511 2.59912C41.2608 2.60998 41.4644 2.6738 41.6429 2.78471L42.6984 1.08592C42.2329 0.796691 41.7018 0.630133 41.1546 0.601796L41.0511 2.59912ZM41.477 2.65559C41.6811 2.85219 41.8296 3.09958 41.9071 3.37255L43.831 2.82622C43.6569 2.21313 43.3234 1.65713 42.8644 1.21504L41.477 2.65559ZM41.9071 3.37255C41.9846 3.64553 41.9884 3.93421 41.918 4.2091L43.8555 4.70506C44.0136 4.08762 44.0051 3.43929 43.831 2.82622L41.9071 3.37255ZM43.8868 4.45708V4.45429H41.8868V4.45708H43.8868ZM43.3288 0.736824C42.7674 0.284649 42.0874 0.00444207 41.3705 -0.0699613L41.164 1.91935C41.4971 1.95392 41.8131 2.08409 42.0741 2.29434L43.3288 0.736824ZM41.3705 -0.0699613C40.6536 -0.144364 39.9305 -0.00978477 39.2884 0.317549L40.1966 2.09942C40.4951 1.9473 40.831 1.88479 41.164 1.91935L41.3705 -0.0699613ZM39.2268 0.351727C38.7505 0.638436 38.3418 1.02479 38.0287 1.48427L39.6815 2.61046C39.8323 2.38918 40.029 2.20321 40.2582 2.06524L39.2268 0.351727ZM38.0287 1.48427C37.7156 1.94374 37.5055 2.46547 37.4128 3.0137L39.3848 3.34733C39.4295 3.08312 39.5307 2.83175 39.6815 2.61046L38.0287 1.48427ZM37.4195 2.97801C37.2598 3.75035 37.3297 4.55261 37.6207 5.28563L39.4796 4.54772C39.3327 4.17779 39.2974 3.77286 39.378 3.38301L37.4195 2.97801ZM37.6207 5.28563C37.9117 6.01867 38.411 6.6504 39.057 7.10263L40.204 5.46418C39.8783 5.23622 39.6264 4.91763 39.4796 4.54772L37.6207 5.28563ZM39.2494 7.20794C39.7344 7.40784 40.3407 7.58312 40.9708 7.61201C41.6012 7.64091 42.3351 7.5248 42.9629 7.04614L41.7503 5.45568C41.6144 5.55927 41.3979 5.62949 41.0624 5.61411C40.7267 5.59872 40.3519 5.49913 40.0116 5.35886L39.2494 7.20794ZM42.9534 7.0533C43.3961 6.72401 43.769 6.30996 44.0504 5.83525L42.33 4.8154C42.1836 5.06221 41.9898 5.27741 41.7598 5.44851L42.9534 7.0533ZM44.0504 5.83525C44.3318 5.36055 44.5161 4.83466 44.5926 4.28813L42.612 4.01074C42.5721 4.29506 42.4763 4.56857 42.33 4.8154L44.0504 5.83525ZM44.5958 4.26315C44.6675 3.63681 44.5986 3.00234 44.3941 2.406L42.5023 3.05468C42.6103 3.36966 42.6467 3.70483 42.6088 4.03572L44.5958 4.26315ZM44.3941 2.406C44.1897 1.80966 43.8547 1.26644 43.4138 0.816011L41.9846 2.21515C42.2174 2.45289 42.3943 2.73971 42.5023 3.05468L44.3941 2.406ZM42.6992 2.51558H42.7014V0.515582H42.6992V2.51558Z" fill="#C30606" mask="url(#path-12-inside-6)"/>
<mask id="path-14-inside-7" fill="white">
<path d="M46.2204 1.04373C46.3323 0.86608 46.4701 1.07622 46.6257 1.01065L46.7343 1.15749L46.7814 4.92388C46.8288 5.10903 46.9161 5.2816 47.037 5.4295C47.158 5.5774 47.3098 5.69707 47.4818 5.78017C47.7152 6.00433 47.9957 5.74767 48.2281 5.97351C48.5184 5.92386 48.7901 5.79731 49.015 5.60701C49.2398 5.41672 49.4097 5.16962 49.5069 4.89139L49.5365 1.04373C49.6485 0.913714 49.8641 0.963017 49.9889 1.01065L50.1009 1.20568L50.0695 5.03709C50.0208 5.34435 49.8954 5.63433 49.705 5.8802C49.5145 6.12607 49.2652 6.31987 48.98 6.44367C48.5682 6.59306 48.1229 6.62501 47.694 6.53595C47.265 6.4469 46.8692 6.24035 46.5507 5.93932C46.3216 5.61508 46.1817 5.23633 46.1448 4.84095L46.2232 1.04203"/>
</mask>
<path d="M46.2204 1.04373C46.3323 0.86608 46.4701 1.07622 46.6257 1.01065L46.7343 1.15749L46.7814 4.92388C46.8288 5.10903 46.9161 5.2816 47.037 5.4295C47.158 5.5774 47.3098 5.69707 47.4818 5.78017C47.7152 6.00433 47.9957 5.74767 48.2281 5.97351C48.5184 5.92386 48.7901 5.79731 49.015 5.60701C49.2398 5.41672 49.4097 5.16962 49.5069 4.89139L49.5365 1.04373C49.6485 0.913714 49.8641 0.963017 49.9889 1.01065L50.1009 1.20568L50.0695 5.03709C50.0208 5.34435 49.8954 5.63433 49.705 5.8802C49.5145 6.12607 49.2652 6.31987 48.98 6.44367C48.5682 6.59306 48.1229 6.62501 47.694 6.53595C47.265 6.4469 46.8692 6.24035 46.5507 5.93932C46.3216 5.61508 46.1817 5.23633 46.1448 4.84095L46.2232 1.04203" fill="#C30606"/>
<path d="M46.6257 1.01065L47.4297 0.415956L46.9621 -0.216151L46.2375 0.0890794L46.6257 1.01065ZM46.7343 1.15749L47.7343 1.145L47.7302 0.822271L47.5383 0.562792L46.7343 1.15749ZM46.7814 4.92388L45.7815 4.93637L45.7829 5.05609L45.8127 5.17207L46.7814 4.92388ZM47.4818 5.78017L48.1743 5.05882L48.0598 4.94885L47.9168 4.87976L47.4818 5.78017ZM48.2281 5.97351L47.5311 6.69059L47.8956 7.04488L48.3967 6.9592L48.2281 5.97351ZM49.5069 4.89139L50.4509 5.22114L50.5056 5.06475L50.5068 4.8991L49.5069 4.89139ZM49.5365 1.04373L48.7788 0.391128L48.5394 0.669127L48.5366 1.03601L49.5365 1.04373ZM49.9889 1.01065L50.8562 0.512768L50.6786 0.203466L50.3454 0.0763374L49.9889 1.01065ZM50.1009 1.20568L51.1009 1.21386L51.1031 0.942844L50.9681 0.707797L50.1009 1.20568ZM50.0695 5.03709L51.0572 5.19376L51.0689 5.11998L51.0695 5.04528L50.0695 5.03709ZM48.98 6.44367L49.321 7.38374L49.35 7.37323L49.3783 7.36095L48.98 6.44367ZM46.5507 5.93932L45.7339 6.51628L45.7914 6.59767L45.8638 6.66611L46.5507 5.93932ZM46.1448 4.84095L45.145 4.82032L45.1438 4.87722L45.1491 4.93388L46.1448 4.84095ZM47.0663 1.57697C47.033 1.62978 46.9726 1.71013 46.8736 1.78638C46.7687 1.86712 46.6435 1.92537 46.5078 1.95288C46.3789 1.97903 46.2719 1.97112 46.2058 1.96101C46.1433 1.95147 46.1005 1.93715 46.0967 1.9359C46.0934 1.93484 46.0927 1.93454 46.1007 1.93736C46.1057 1.9391 46.1217 1.94477 46.1371 1.95C46.1686 1.96071 46.2303 1.98099 46.3062 1.997C46.3843 2.01347 46.4902 2.0283 46.6145 2.02254C46.7424 2.0166 46.8783 1.98937 47.0139 1.93222L46.2375 0.0890794C46.4446 0.0018545 46.6283 0.0209436 46.7187 0.0399998C46.7581 0.0483022 46.7838 0.0574474 46.7801 0.0561762C46.7778 0.0554183 46.7764 0.0548911 46.764 0.0505498C46.7547 0.0472798 46.7369 0.0410055 46.7166 0.034412C46.6636 0.0171234 46.4149 -0.0689903 46.1103 -0.00721399C45.7423 0.0674165 45.5055 0.302429 45.3744 0.510483L47.0663 1.57697ZM45.8218 1.60534L45.9304 1.75218L47.5383 0.562792L47.4297 0.415956L45.8218 1.60534ZM45.7344 1.16997L45.7815 4.93637L47.7813 4.91139L47.7343 1.145L45.7344 1.16997ZM45.8127 5.17207C45.8962 5.49809 46.0498 5.80204 46.263 6.06263L47.8111 4.79636C47.7823 4.76115 47.7614 4.71998 47.7501 4.67568L45.8127 5.17207ZM46.263 6.06263C46.4761 6.32319 46.7436 6.53411 47.0467 6.68058L47.9168 4.87976C47.876 4.86004 47.8399 4.8316 47.8111 4.79636L46.263 6.06263ZM46.7892 6.50152C47.0056 6.70928 47.2544 6.81664 47.4917 6.8582C47.6907 6.89304 47.8748 6.87691 47.9169 6.87431C48.002 6.86907 47.9454 6.87736 47.8702 6.86392C47.7566 6.8436 47.6301 6.78682 47.5311 6.69059L48.9251 5.25642C48.7099 5.04727 48.4612 4.93789 48.2223 4.89516C48.022 4.85933 47.8371 4.87543 47.7938 4.8781C47.7076 4.88342 47.7632 4.87531 47.8367 4.88817C47.9485 4.90776 48.0747 4.96313 48.1743 5.05882L46.7892 6.50152ZM48.3967 6.9592C48.8632 6.87942 49.2997 6.67606 49.6609 6.37037L48.369 4.84365C48.2805 4.91857 48.1736 4.96831 48.0595 4.98782L48.3967 6.9592ZM49.6609 6.37037C50.0222 6.06469 50.2949 5.66784 50.4509 5.22114L48.5628 4.56163C48.5245 4.6714 48.4575 4.76875 48.369 4.84365L49.6609 6.37037ZM50.5068 4.8991L50.5365 1.05144L48.5366 1.03601L48.5069 4.88367L50.5068 4.8991ZM50.2942 1.69632C50.0769 1.94862 49.8056 1.96203 49.7336 1.96028C49.6901 1.95922 49.662 1.95314 49.6525 1.9509C49.6416 1.94835 49.6355 1.94613 49.6325 1.94496L50.3454 0.0763374C50.2278 0.0314718 50.0234 -0.0332733 49.7822 -0.0391342C49.5432 -0.0449403 49.1081 0.00881586 48.7788 0.391128L50.2942 1.69632ZM49.1217 1.50853L49.2337 1.70356L50.9681 0.707797L50.8562 0.512768L49.1217 1.50853ZM49.1009 1.1975L49.0696 5.02891L51.0695 5.04528L51.1009 1.21386L49.1009 1.1975ZM49.0819 4.88042C49.0595 5.02168 49.0018 5.15492 48.9144 5.26783L50.4955 6.49257C50.789 6.11374 50.9821 5.66703 51.0572 5.19376L49.0819 4.88042ZM48.9144 5.26783C48.8269 5.38074 48.7125 5.46963 48.5818 5.52639L49.3783 7.36095C49.8178 7.17011 50.2021 6.8714 50.4955 6.49257L48.9144 5.26783ZM48.6391 5.5036C48.4015 5.58977 48.1447 5.60819 47.8973 5.55683L47.4907 7.51507C48.1012 7.64182 48.7349 7.59634 49.321 7.38374L48.6391 5.5036ZM47.8973 5.55683C47.6498 5.50546 47.4214 5.3863 47.2376 5.21253L45.8638 6.66611C46.317 7.09439 46.8802 7.38833 47.4907 7.51507L47.8973 5.55683ZM47.3675 5.36236C47.2394 5.18107 47.1611 4.96923 47.1404 4.74803L45.1491 4.93388C45.2023 5.50343 45.4039 6.04909 45.7339 6.51628L47.3675 5.36236ZM47.1446 4.86158L47.223 1.06266L45.2234 1.0214L45.145 4.82032L47.1446 4.86158Z" fill="#C30606" mask="url(#path-14-inside-7)"/>
<mask id="path-16-inside-8" fill="white">
<path d="M52.7615 5.47197C53.4943 5.82782 54.398 6.11922 55.193 5.66642C55.3925 5.54156 55.5488 5.35823 55.6405 5.14136C55.7323 4.92448 55.7551 4.68459 55.7059 4.45429C55.02 3.2741 52.4356 3.80704 53.1355 1.70837C53.29 1.46312 53.5036 1.26064 53.7567 1.11955C54.0098 0.978453 54.2942 0.903249 54.5839 0.900833C55.0357 0.980969 55.5821 0.949028 55.8929 1.28751L55.8615 1.82267C55.3168 1.67697 54.5374 1.41864 53.9462 1.74199C53.5878 1.90282 53.7133 2.33936 53.8342 2.59826C54.6908 3.24551 56.4046 3.2147 56.31 4.781C56.3134 5.11056 56.2231 5.4343 56.0496 5.71442C55.8761 5.99454 55.6266 6.21949 55.3302 6.36299C54.9195 6.54173 54.4723 6.62034 54.0254 6.59238C53.5784 6.56442 53.1445 6.43068 52.7592 6.20215C52.7592 5.96118 52.5913 5.70117 52.7592 5.47365"/>
</mask>
<path d="M52.7615 5.47197C53.4943 5.82782 54.398 6.11922 55.193 5.66642C55.3925 5.54156 55.5488 5.35823 55.6405 5.14136C55.7323 4.92448 55.7551 4.68459 55.7059 4.45429C55.02 3.2741 52.4356 3.80704 53.1355 1.70837C53.29 1.46312 53.5036 1.26064 53.7567 1.11955C54.0098 0.978453 54.2942 0.903249 54.5839 0.900833C55.0357 0.980969 55.5821 0.949028 55.8929 1.28751L55.8615 1.82267C55.3168 1.67697 54.5374 1.41864 53.9462 1.74199C53.5878 1.90282 53.7133 2.33936 53.8342 2.59826C54.6908 3.24551 56.4046 3.2147 56.31 4.781C56.3134 5.11056 56.2231 5.4343 56.0496 5.71442C55.8761 5.99454 55.6266 6.21949 55.3302 6.36299C54.9195 6.54173 54.4723 6.62034 54.0254 6.59238C53.5784 6.56442 53.1445 6.43068 52.7592 6.20215C52.7592 5.96118 52.5913 5.70117 52.7592 5.47365" fill="#C30606"/>
<path d="M55.193 5.66642L55.6879 6.53537L55.7059 6.5251L55.7235 6.5141L55.193 5.66642ZM55.7059 4.45429L56.6838 4.24519L56.6505 4.08949L56.5705 3.95184L55.7059 4.45429ZM53.1355 1.70837L52.2894 1.17524L52.225 1.27743L52.1868 1.39202L53.1355 1.70837ZM54.5839 0.900833L54.7585 -0.0837998L54.6677 -0.0999008L54.5755 -0.0991321L54.5839 0.900833ZM55.8929 1.28751L56.8912 1.34599L56.9159 0.923211L56.6295 0.611235L55.8929 1.28751ZM55.8615 1.82267L55.6031 2.78872L56.7881 3.10564L56.8598 1.88116L55.8615 1.82267ZM53.9462 1.74199L54.3557 2.6543L54.3915 2.63821L54.426 2.61935L53.9462 1.74199ZM53.8342 2.59826L52.9282 3.02147L53.0332 3.24643L53.2313 3.39611L53.8342 2.59826ZM56.31 4.781L55.3118 4.7207L55.3097 4.75603L55.31 4.79142L56.31 4.781ZM55.3302 6.36299L55.7293 7.27992L55.7478 7.27186L55.7659 7.26306L55.3302 6.36299ZM52.7592 6.20215L51.7592 6.20215L51.7592 6.77166L52.249 7.06222L52.7592 6.20215ZM52.3247 6.37154C53.0744 6.73555 54.4142 7.2608 55.6879 6.53537L54.6981 4.79747C54.3818 4.97763 53.9143 4.92009 53.1982 4.5724L52.3247 6.37154ZM55.7235 6.5141C56.0973 6.28021 56.3898 5.93691 56.5615 5.53101L54.7196 4.7517C54.7078 4.77954 54.6878 4.8029 54.6625 4.81873L55.7235 6.5141ZM56.5615 5.53101C56.7332 5.12511 56.7759 4.67617 56.6838 4.24519L54.728 4.66339C54.7343 4.69301 54.7314 4.72386 54.7196 4.7517L56.5615 5.53101ZM56.5705 3.95184C56.2425 3.38747 55.723 3.09036 55.3298 2.91189C55.1277 2.82017 54.9219 2.74402 54.7509 2.68131C54.5679 2.6142 54.4259 2.56283 54.2955 2.50686C54.0133 2.38571 53.9923 2.32417 54.008 2.35096C54.0518 2.42573 53.9614 2.39261 54.0841 2.02471L52.1868 1.39202C51.9596 2.07345 51.9298 2.76072 52.2828 3.3627C52.6077 3.91669 53.1444 4.18919 53.5065 4.34466C53.6983 4.427 53.9002 4.4996 54.0624 4.55907C54.2366 4.62293 54.3774 4.67599 54.5032 4.73306C54.7656 4.85218 54.8263 4.93102 54.8413 4.95674L56.5705 3.95184ZM53.9815 2.24149C54.0468 2.13789 54.137 2.05246 54.2437 1.99297L53.2697 0.246123C52.8703 0.468826 52.5332 0.788342 52.2894 1.17524L53.9815 2.24149ZM54.2437 1.99297C54.3503 1.93349 54.4702 1.90182 54.5922 1.9008L54.5755 -0.0991321C54.1182 -0.0953187 53.6692 0.023415 53.2697 0.246123L54.2437 1.99297ZM54.4092 1.88547C54.5596 1.91214 54.7131 1.92867 54.8227 1.94109C54.9456 1.95504 55.0301 1.96546 55.1035 1.9795C55.2582 2.00907 55.2171 2.03013 55.1562 1.96378L56.6295 0.611235C56.2579 0.206408 55.7883 0.0741921 55.4791 0.0150808C55.3206 -0.0152218 55.1643 -0.0329895 55.048 -0.0461734C54.9183 -0.060879 54.834 -0.0704057 54.7585 -0.0837998L54.4092 1.88547ZM54.8946 1.22902L54.8632 1.76419L56.8598 1.88116L56.8912 1.34599L54.8946 1.22902ZM56.1199 0.85663C55.8948 0.796415 55.4704 0.667641 55.0461 0.614259C54.6134 0.559827 54.0259 0.558581 53.4663 0.864627L54.426 2.61935C54.4576 2.60205 54.5554 2.56829 54.7964 2.59862C55.0458 2.62999 55.2835 2.70323 55.6031 2.78872L56.1199 0.85663ZM53.5367 0.829674C53.26 0.953852 53.0297 1.15785 52.8819 1.42962C52.742 1.68704 52.7084 1.94504 52.7105 2.14376C52.7144 2.51725 52.8457 2.84501 52.9282 3.02147L54.7402 2.17505C54.7265 2.14558 54.7163 2.11872 54.7107 2.09922C54.7041 2.07667 54.71 2.08634 54.7104 2.12294C54.7108 2.16006 54.7055 2.26258 54.6391 2.38482C54.5648 2.52142 54.4532 2.61054 54.3557 2.6543L53.5367 0.829674ZM53.2313 3.39611C53.561 3.64517 53.9388 3.80563 54.2222 3.91974C54.5479 4.05089 54.7642 4.12784 54.9719 4.23451C55.165 4.3337 55.2377 4.40611 55.2668 4.44727C55.2801 4.46605 55.3236 4.52617 55.3118 4.7207L57.3082 4.8413C57.3437 4.25269 57.2084 3.7293 56.9002 3.2931C56.6078 2.8793 56.2163 2.62527 55.8857 2.45547C55.5697 2.29315 55.2028 2.15855 54.9692 2.06449C54.6933 1.95338 54.5357 1.87498 54.4371 1.80041L53.2313 3.39611ZM55.31 4.79142C55.3115 4.93146 55.2731 5.06898 55.1995 5.18789L56.8998 6.24096C57.1731 5.79963 57.3153 5.28966 57.3099 4.77059L55.31 4.79142ZM55.1995 5.18789C55.1258 5.30679 55.02 5.40214 54.8944 5.46293L55.7659 7.26306C56.2332 7.03683 56.6264 6.6823 56.8998 6.24096L55.1995 5.18789ZM54.9311 5.44607C54.6657 5.5616 54.3766 5.6124 54.0878 5.59433L53.9629 7.59043C54.568 7.62828 55.1734 7.52186 55.7293 7.27992L54.9311 5.44607ZM54.0878 5.59433C53.799 5.57626 53.5185 5.48983 53.2694 5.34208L52.249 7.06222C52.7705 7.37152 53.3579 7.55258 53.9629 7.59043L54.0878 5.59433ZM53.7592 6.20215C53.7592 6.03409 53.7305 5.8896 53.7138 5.81101C53.7061 5.77488 53.6949 5.72572 53.6911 5.70881C53.6853 5.68272 53.6831 5.67115 53.6821 5.66534C53.6796 5.65068 53.6903 5.69984 53.6799 5.77939C53.6743 5.82197 53.663 5.87172 53.6423 5.92466C53.6214 5.97798 53.5943 6.02613 53.5637 6.06757L51.9547 4.87972C51.6312 5.31798 51.672 5.77467 51.7104 6.00037C51.7249 6.0861 51.7558 6.21881 51.7574 6.2263C51.767 6.27135 51.7592 6.24973 51.7592 6.20215L53.7592 6.20215Z" fill="#C30606" mask="url(#path-16-inside-8)"/>
<mask id="path-18-inside-9" fill="white">
<path d="M59.177 1.01127C60.331 0.899189 61.0459 1.06002 62.2144 1.01127C62.2938 1.17842 62.3052 1.3699 62.2463 1.54532L59.7392 1.70671C59.6297 2.15251 59.6297 2.61819 59.7392 3.06399C60.5612 3.15055 61.3884 3.17828 62.2144 3.14693C62.2624 3.23528 62.2902 3.3332 62.2957 3.43361C62.3012 3.53402 62.2843 3.63442 62.2463 3.7275L59.7067 3.80819C59.5208 4.40725 59.7392 5.11783 59.6759 5.66757L59.9239 5.86091L62.2463 5.94218C62.2754 6.10413 62.37 6.3972 62.1674 6.52497H59.2241L59.1166 6.44148V1.12335L59.177 1.01127Z"/>
</mask>
<path d="M59.177 1.01127C60.331 0.899189 61.0459 1.06002 62.2144 1.01127C62.2938 1.17842 62.3052 1.3699 62.2463 1.54532L59.7392 1.70671C59.6297 2.15251 59.6297 2.61819 59.7392 3.06399C60.5612 3.15055 61.3884 3.17828 62.2144 3.14693C62.2624 3.23528 62.2902 3.3332 62.2957 3.43361C62.3012 3.53402 62.2843 3.63442 62.2463 3.7275L59.7067 3.80819C59.5208 4.40725 59.7392 5.11783 59.6759 5.66757L59.9239 5.86091L62.2463 5.94218C62.2754 6.10413 62.37 6.3972 62.1674 6.52497H59.2241L59.1166 6.44148V1.12335L59.177 1.01127Z" fill="#C30606"/>
<path d="M59.177 1.01127L59.0804 0.0159516L58.55 0.0674693L58.2969 0.536472L59.177 1.01127ZM62.2144 1.01127L63.1177 0.582215L62.8338 -0.0154465L62.1727 0.012137L62.2144 1.01127ZM62.2463 1.54532L62.3105 2.54326L62.9805 2.50013L63.1943 1.86373L62.2463 1.54532ZM59.7392 1.70671L59.6749 0.70878L58.9429 0.755905L58.768 1.46835L59.7392 1.70671ZM59.7392 3.06399L58.768 3.30235L58.9355 3.98489L59.6344 4.05849L59.7392 3.06399ZM62.2144 3.14693L63.0931 2.66954L62.7968 2.12411L62.1765 2.14765L62.2144 3.14693ZM62.2463 3.7275L62.2781 4.727L62.9266 4.70639L63.172 4.10568L62.2463 3.7275ZM59.7067 3.80819L59.6749 2.80869L58.9628 2.83132L58.7516 3.51184L59.7067 3.80819ZM59.6759 5.66757L58.6825 5.55324L58.6183 6.11106L59.0611 6.45626L59.6759 5.66757ZM59.9239 5.86091L59.3091 6.6496L59.5649 6.84896L59.889 6.8603L59.9239 5.86091ZM62.2463 5.94218L63.2305 5.76525L63.0878 4.97101L62.2813 4.94279L62.2463 5.94218ZM62.1674 6.52497V7.52497H62.4563L62.7007 7.37091L62.1674 6.52497ZM59.2241 6.52497L58.6107 7.31477L58.8814 7.52497H59.2241V6.52497ZM59.1166 6.44148H58.1166V6.93101L58.5032 7.23128L59.1166 6.44148ZM59.1166 1.12335L58.2365 0.648558L58.1166 0.870815V1.12335H59.1166ZM59.2737 2.00658C59.7804 1.95737 60.1924 1.9671 60.6474 1.9866C61.1007 2.00603 61.62 2.03694 62.2561 2.0104L62.1727 0.012137C61.6403 0.0343512 61.218 0.0092205 60.7331 -0.0115617C60.25 -0.032266 59.7276 -0.0469104 59.0804 0.0159516L59.2737 2.00658ZM61.3111 1.44032C61.2794 1.37344 61.2748 1.29696 61.2984 1.22692L63.1943 1.86373C63.3356 1.44283 63.3082 0.983394 63.1177 0.582215L61.3111 1.44032ZM62.1821 0.54739L59.6749 0.70878L59.8034 2.70465L62.3105 2.54326L62.1821 0.54739ZM58.768 1.46835C58.6201 2.07073 58.6201 2.69997 58.768 3.30235L60.7103 2.82562C60.6394 2.53641 60.6394 2.23429 60.7103 1.94508L58.768 1.46835ZM59.6344 4.05849C60.5039 4.15004 61.3787 4.17936 62.2523 4.14621L62.1765 2.14765C61.3981 2.17719 60.6186 2.15106 59.8439 2.06949L59.6344 4.05849ZM61.3357 3.62432C61.3129 3.58241 61.2998 3.53601 61.2972 3.48849L63.2942 3.37872C63.2805 3.13038 63.2119 2.88814 63.0931 2.66954L61.3357 3.62432ZM61.2972 3.48849C61.2946 3.44092 61.3026 3.3934 61.3206 3.34933L63.172 4.10568C63.2661 3.87544 63.3078 3.62712 63.2942 3.37872L61.2972 3.48849ZM62.2146 2.72801L59.6749 2.80869L59.7385 4.80769L62.2781 4.727L62.2146 2.72801ZM58.7516 3.51184C58.5982 4.00639 58.6239 4.49974 58.648 4.82917C58.6775 5.23378 58.7 5.40097 58.6825 5.55324L60.6694 5.7819C60.7151 5.38443 60.66 4.92146 60.6427 4.68358C60.6198 4.37052 60.6294 4.20905 60.6618 4.10454L58.7516 3.51184ZM59.0611 6.45626L59.3091 6.6496L60.5387 5.07222L60.2907 4.87888L59.0611 6.45626ZM59.889 6.8603L62.2113 6.94157L62.2813 4.94279L59.9589 4.86152L59.889 6.8603ZM61.2621 6.11911C61.2687 6.1561 61.2765 6.19305 61.2808 6.21351C61.2861 6.23886 61.2893 6.25386 61.2919 6.26792C61.2976 6.29842 61.2944 6.29124 61.2939 6.2643C61.2935 6.23915 61.294 6.14866 61.3407 6.03163C61.3943 5.89752 61.4939 5.76741 61.6341 5.67904L62.7007 7.37091C63.2312 7.03644 63.2984 6.49427 63.2936 6.22849C63.2897 6.01263 63.2225 5.72084 63.2305 5.76525L61.2621 6.11911ZM62.1674 5.52497H59.2241V7.52497H62.1674V5.52497ZM59.8375 5.73518L59.7299 5.65169L58.5032 7.23128L58.6107 7.31477L59.8375 5.73518ZM60.1166 6.44148V1.12335H58.1166V6.44148H60.1166ZM59.9967 1.59815L60.0571 1.48606L58.2969 0.536472L58.2365 0.648558L59.9967 1.59815Z" fill="#C30606" mask="url(#path-18-inside-9)"/>
<mask id="path-20-inside-10" fill="white">
<path d="M66.3697 2.49124C66.6497 2.49124 67.0617 2.53887 67.0617 2.12137C67.0617 1.80307 66.8098 1.76384 66.5662 1.76384H66.0002V2.49237H66.3697V2.49124ZM67.3002 3.63499H67.0091L66.4442 2.69018H66.0002V3.63499H65.7572V1.58397H66.6222C67.1463 1.58397 67.3238 1.78851 67.3238 2.12698C67.3238 2.52935 67.0522 2.68009 66.7012 2.68738L67.2997 3.6322L67.3002 3.63499ZM67.9032 2.60891C67.883 2.31801 67.7783 2.03936 67.602 1.80725C67.4256 1.57513 67.1853 1.39968 66.9107 1.30247C66.636 1.20526 66.3389 1.19053 66.056 1.26011C65.7731 1.32968 65.5166 1.48052 65.3182 1.69407C65.1198 1.90761 64.9881 2.17454 64.9393 2.46203C64.8905 2.74951 64.9267 3.04501 65.0435 3.31216C65.1603 3.57931 65.3526 3.80648 65.5966 3.96569C65.8407 4.1249 66.126 4.20922 66.4173 4.20828C66.6213 4.20561 66.8226 4.16156 67.009 4.0788C67.1955 3.99604 67.3632 3.8763 67.5021 3.72679C67.641 3.57729 67.7482 3.40114 67.8171 3.209C67.8861 3.01686 67.9154 2.81271 67.9032 2.60891V2.60891ZM64.6419 2.60891C64.6554 2.26152 64.7706 1.92576 64.9732 1.64336C65.1758 1.36096 65.4569 1.14438 65.7814 1.02055C66.106 0.896708 66.4597 0.871068 66.7987 0.94682C67.1377 1.02257 67.447 1.19638 67.6881 1.44662C67.9292 1.69686 68.0915 2.01251 68.1549 2.35434C68.2183 2.69616 68.1799 3.04909 68.0445 3.36925C67.9091 3.6894 67.6826 3.96266 67.3934 4.15508C67.1041 4.34749 66.7646 4.45056 66.4173 4.45148C66.1798 4.4474 65.9454 4.39649 65.7276 4.30164C65.5098 4.20679 65.3128 4.06986 65.1479 3.89872C64.9829 3.72757 64.8534 3.52556 64.7666 3.30424C64.6798 3.08292 64.6374 2.84664 64.6419 2.60891Z"/>
</mask>
<path d="M66.3697 2.49124C66.6497 2.49124 67.0617 2.53887 67.0617 2.12137C67.0617 1.80307 66.8098 1.76384 66.5662 1.76384H66.0002V2.49237H66.3697V2.49124ZM67.3002 3.63499H67.0091L66.4442 2.69018H66.0002V3.63499H65.7572V1.58397H66.6222C67.1463 1.58397 67.3238 1.78851 67.3238 2.12698C67.3238 2.52935 67.0522 2.68009 66.7012 2.68738L67.2997 3.6322L67.3002 3.63499ZM67.9032 2.60891C67.883 2.31801 67.7783 2.03936 67.602 1.80725C67.4256 1.57513 67.1853 1.39968 66.9107 1.30247C66.636 1.20526 66.3389 1.19053 66.056 1.26011C65.7731 1.32968 65.5166 1.48052 65.3182 1.69407C65.1198 1.90761 64.9881 2.17454 64.9393 2.46203C64.8905 2.74951 64.9267 3.04501 65.0435 3.31216C65.1603 3.57931 65.3526 3.80648 65.5966 3.96569C65.8407 4.1249 66.126 4.20922 66.4173 4.20828C66.6213 4.20561 66.8226 4.16156 67.009 4.0788C67.1955 3.99604 67.3632 3.8763 67.5021 3.72679C67.641 3.57729 67.7482 3.40114 67.8171 3.209C67.8861 3.01686 67.9154 2.81271 67.9032 2.60891V2.60891ZM64.6419 2.60891C64.6554 2.26152 64.7706 1.92576 64.9732 1.64336C65.1758 1.36096 65.4569 1.14438 65.7814 1.02055C66.106 0.896708 66.4597 0.871068 66.7987 0.94682C67.1377 1.02257 67.447 1.19638 67.6881 1.44662C67.9292 1.69686 68.0915 2.01251 68.1549 2.35434C68.2183 2.69616 68.1799 3.04909 68.0445 3.36925C67.9091 3.6894 67.6826 3.96266 67.3934 4.15508C67.1041 4.34749 66.7646 4.45056 66.4173 4.45148C66.1798 4.4474 65.9454 4.39649 65.7276 4.30164C65.5098 4.20679 65.3128 4.06986 65.1479 3.89872C64.9829 3.72757 64.8534 3.52556 64.7666 3.30424C64.6798 3.08292 64.6374 2.84664 64.6419 2.60891Z" fill="#C30606"/>
<path d="M66.3697 2.49124V1.49124H65.3697V2.49124H66.3697ZM66.0002 1.76384V0.763844H65.0002V1.76384H66.0002ZM66.0002 2.49237H65.0002V3.49237H66.0002V2.49237ZM66.3697 2.49237V3.49237H67.3697V2.49237H66.3697ZM67.3002 3.63499V4.63499H68.5154L68.2815 3.44252L67.3002 3.63499ZM67.0091 3.63499L66.1508 4.14817L66.4419 4.63499H67.0091V3.63499ZM66.4442 2.69018L67.3025 2.177L67.0114 1.69018H66.4442V2.69018ZM66.0002 2.69018V1.69018H65.0002V2.69018H66.0002ZM66.0002 3.63499V4.63499H67.0002V3.63499H66.0002ZM65.7572 3.63499H64.7572V4.63499H65.7572V3.63499ZM65.7572 1.58397V0.583966H64.7572V1.58397H65.7572ZM66.7012 2.68738L66.6804 1.68759L64.9074 1.72439L65.8564 3.22251L66.7012 2.68738ZM67.2997 3.6322L68.281 3.43973L68.2449 3.25559L68.1445 3.09707L67.2997 3.6322ZM66.4173 4.20828L66.4205 5.20832L66.4304 5.20819L66.4173 4.20828ZM64.6419 2.60891L63.6427 2.57008L63.6423 2.57998L63.6421 2.58988L64.6419 2.60891ZM66.4173 4.45148L66.4001 5.45134L66.41 5.45151L66.42 5.45148L66.4173 4.45148ZM66.3697 3.49124C66.3797 3.49124 66.535 3.49411 66.6223 3.49181C66.7321 3.48891 66.9098 3.47858 67.1009 3.42282C67.2996 3.36482 67.5664 3.24164 67.7766 2.97655C67.9916 2.70528 68.0617 2.3939 68.0617 2.12137H66.0617C66.0617 2.05759 66.0803 1.89682 66.2094 1.73404C66.3335 1.57744 66.4798 1.52064 66.5405 1.50291C66.5936 1.48743 66.6158 1.49128 66.5696 1.4925C66.5506 1.493 66.5273 1.49299 66.4926 1.49255C66.4648 1.49219 66.4132 1.49124 66.3697 1.49124V3.49124ZM68.0617 2.12137C68.0617 1.91002 68.0194 1.66923 67.8888 1.43855C67.7549 1.20212 67.5651 1.04131 67.3742 0.93998C67.0428 0.764048 66.6951 0.763844 66.5662 0.763844V2.76384C66.6049 2.76384 66.6107 2.76577 66.5986 2.76396C66.5883 2.76242 66.5229 2.75243 66.4364 2.70651C66.339 2.65478 66.2274 2.56345 66.1483 2.42391C66.0726 2.2901 66.0617 2.17358 66.0617 2.12137H68.0617ZM66.5662 0.763844H66.0002V2.76384H66.5662V0.763844ZM65.0002 1.76384V2.49237H67.0002V1.76384H65.0002ZM66.0002 3.49237H66.3697V1.49237H66.0002V3.49237ZM67.3697 2.49237V2.49124H65.3697V2.49237H67.3697ZM67.3002 2.63499H67.0091V4.63499H67.3002V2.63499ZM67.8674 3.12181L67.3025 2.177L65.5859 3.20337L66.1508 4.14817L67.8674 3.12181ZM66.4442 1.69018H66.0002V3.69018H66.4442V1.69018ZM65.0002 2.69018V3.63499H67.0002V2.69018H65.0002ZM66.0002 2.63499H65.7572V4.63499H66.0002V2.63499ZM66.7572 3.63499V1.58397H64.7572V3.63499H66.7572ZM65.7572 2.58397H66.6222V0.583966H65.7572V2.58397ZM66.6222 2.58397C66.7865 2.58397 66.6763 2.62179 66.5217 2.49032C66.4376 2.41884 66.3811 2.33016 66.3505 2.24786C66.3366 2.21029 66.33 2.17958 66.3269 2.15936C66.3238 2.13939 66.3238 2.12783 66.3238 2.12698H68.3238C68.3238 1.78694 68.2296 1.31735 67.8173 0.966768C67.443 0.648415 66.982 0.583966 66.6222 0.583966V2.58397ZM66.3238 2.12698C66.3238 2.11535 66.3259 2.05985 66.3595 1.98294C66.3949 1.9018 66.452 1.82811 66.5216 1.77269C66.6479 1.6723 66.7409 1.68634 66.6804 1.68759L66.7219 3.68716C67.0125 3.68113 67.4168 3.61615 67.7666 3.33798C68.1587 3.0261 68.3238 2.57517 68.3238 2.12698H66.3238ZM65.8564 3.22251L66.4549 4.16733L68.1445 3.09707L67.5459 2.15225L65.8564 3.22251ZM66.3184 3.82468L66.3189 3.82746L68.2815 3.44252L68.281 3.43973L66.3184 3.82468ZM68.9008 2.53966C68.8672 2.05444 68.6925 1.58959 68.3982 1.20229L66.8057 2.41221C66.8642 2.48914 66.8989 2.58158 66.9056 2.67817L68.9008 2.53966ZM68.3982 1.20229C68.104 0.814959 67.7029 0.522068 67.2443 0.359766L66.577 2.24517C66.6678 2.27729 66.7473 2.3353 66.8057 2.41221L68.3982 1.20229ZM67.2443 0.359766C66.7857 0.197459 66.2896 0.172862 65.8172 0.289039L66.2948 2.23118C66.3882 2.20821 66.4863 2.21306 66.577 2.24517L67.2443 0.359766ZM65.8172 0.289039C65.3448 0.405213 64.9167 0.657049 64.5856 1.01342L66.0508 2.37472C66.1165 2.304 66.2013 2.25415 66.2948 2.23118L65.8172 0.289039ZM64.5856 1.01342C64.2545 1.36976 64.0348 1.8151 63.9534 2.29464L65.9252 2.62941C65.9414 2.53398 65.9851 2.44546 66.0508 2.37472L64.5856 1.01342ZM63.9534 2.29464C63.872 2.77419 63.9324 3.26708 64.1272 3.71271L65.9598 2.91161C65.921 2.82294 65.909 2.72483 65.9252 2.62941L63.9534 2.29464ZM64.1272 3.71271C64.3221 4.15837 64.6428 4.53748 65.0503 4.80326L66.143 3.12812C66.0623 3.07547 65.9985 3.00025 65.9598 2.91161L64.1272 3.71271ZM65.0503 4.80326C65.4578 5.06904 65.934 5.20984 66.4205 5.20827L66.4141 3.20828C66.3179 3.20859 66.2237 3.18076 66.143 3.12812L65.0503 4.80326ZM66.4304 5.20819C66.7697 5.20375 67.1046 5.13047 67.4147 4.99282L66.6033 3.16479C66.5406 3.19265 66.4728 3.20747 66.4042 3.20836L66.4304 5.20819ZM67.4147 4.99282C67.7248 4.85517 68.0038 4.65602 68.2347 4.40744L66.7695 3.04615C66.7227 3.09657 66.6661 3.13692 66.6033 3.16479L67.4147 4.99282ZM68.2347 4.40744C68.4657 4.15887 68.6438 3.86606 68.7584 3.54673L66.8759 2.87127C66.8526 2.93623 66.8164 2.99571 66.7695 3.04615L68.2347 4.40744ZM68.7584 3.54673C68.8729 3.22743 68.9216 2.88818 68.9015 2.54949L66.905 2.66834C66.9091 2.73724 66.8992 2.80629 66.8759 2.87127L68.7584 3.54673ZM65.6412 2.64774C65.6471 2.496 65.6974 2.34944 65.7858 2.22627L64.1607 1.06046C63.8439 1.50208 63.6638 2.02704 63.6427 2.57008L65.6412 2.64774ZM65.7858 2.22627C65.8741 2.1031 65.9966 2.00876 66.1379 1.95484L65.4249 0.0862475C64.9171 0.280011 64.4775 0.618828 64.1607 1.06046L65.7858 2.22627ZM66.1379 1.95484C66.2792 1.90094 66.4331 1.88979 66.5806 1.92275L67.0168 -0.0291108C66.4863 -0.147651 65.9327 -0.107521 65.4249 0.0862475L66.1379 1.95484ZM66.5806 1.92275C66.7281 1.95571 66.8629 2.03137 66.968 2.14048L68.4082 0.752767C68.0311 0.361383 67.5473 0.0894301 67.0168 -0.0291108L66.5806 1.92275ZM66.968 2.14048C67.0731 2.24958 67.144 2.3873 67.1716 2.53658L69.1382 2.1721C69.0391 1.63772 68.7853 1.14415 68.4082 0.752767L66.968 2.14048ZM67.1716 2.53658C67.1993 2.68587 67.1825 2.83999 67.1234 2.97973L68.9655 3.75876C69.1772 3.25819 69.2372 2.70645 69.1382 2.1721L67.1716 2.53658ZM67.1234 2.97973C67.0643 3.11948 66.9656 3.23861 66.8395 3.32243L67.9472 4.98772C68.3997 4.68672 68.7538 4.25933 68.9655 3.75876L67.1234 2.97973ZM66.8395 3.32243C66.7135 3.40624 66.5658 3.45109 66.4147 3.45149L66.42 5.45148C66.9635 5.45004 67.4946 5.28874 67.9472 4.98772L66.8395 3.32243ZM66.4345 3.45163C66.3285 3.44981 66.224 3.4271 66.1268 3.38479L65.3284 5.21849C65.6668 5.36588 66.031 5.44499 66.4001 5.45134L66.4345 3.45163ZM66.1268 3.38479C66.0296 3.34247 65.9417 3.28135 65.868 3.20486L64.4277 4.59257C64.6838 4.85838 64.9899 5.0711 65.3284 5.21849L66.1268 3.38479ZM65.868 3.20486C65.7943 3.1284 65.7364 3.03809 65.6975 2.93908L63.8356 3.6694C63.9704 4.01303 64.1716 4.32675 64.4277 4.59257L65.868 3.20486ZM65.6975 2.93908C65.6587 2.84007 65.6397 2.73434 65.6417 2.62795L63.6421 2.58988C63.6351 2.95894 63.7008 3.32577 63.8356 3.6694L65.6975 2.93908Z" fill="#C30606" mask="url(#path-20-inside-10)"/>
</svg>
