<svg width="62" height="61" viewBox="0 0 62 61" fill="none" xmlns="http://www.w3.org/2000/svg">
<path d="M35.0821 55.3251C35.5915 54.946 36.1919 54.4836 36.834 53.9775C35.9792 52.8353 34.2125 50.7918 30.925 48.1407C30.5221 48.634 30.1035 49.1326 29.6587 49.6335C29.6021 49.6996 29.5626 49.7562 29.5074 49.819C30.8922 50.8374 33.0475 52.6541 35.0821 55.3251Z" fill="#C30606"/>
<path d="M31.7393 14.5226C37.5651 22.6707 42.656 32.8315 31.8768 46.9272C33.2896 47.929 35.7627 49.9417 38.0261 53.0175C42.4105 49.4189 48.6002 43.5698 52.2973 36.6694C58.1588 25.7275 47.4267 16.1799 38.488 7.58273C37.5104 9.05405 35.3056 11.96 31.7393 14.5226Z" fill="#C30606"/>
<path d="M28.5243 51.0414C23.9438 57.2982 29.1627 59.6372 32.952 56.8372C32.952 56.8372 33.2898 56.6127 33.833 56.2312C32.9164 55.0795 31.269 53.2857 28.5243 51.0414Z" fill="#C30606"/>
<path d="M28.8868 10.5412C29.178 11.0017 29.4929 11.4726 29.8658 11.9721C30.1888 12.4026 30.5137 12.8388 30.8405 13.2817C31.7876 12.6209 34.1618 10.7301 37.3818 6.51306C37.2785 6.41174 37.1696 6.30946 37.0683 6.21004C36.2905 5.50364 35.5052 4.92948 34.7336 4.45855C33.7265 5.90798 31.8019 8.31022 28.8868 10.5412Z" fill="#C30606"/>
<path d="M28.1235 9.19311C29.2409 8.29358 31.0576 6.60345 33.3419 3.71218C28.8509 1.7176 25.4397 3.84918 28.1235 9.19311Z" fill="#C30606"/>
</svg>
