<svg width="62" height="61" viewBox="0 0 62 61" fill="none" xmlns="http://www.w3.org/2000/svg">
<path d="M27.2312 5.67392C26.7217 6.05304 26.1214 6.51542 25.4792 7.02155C26.334 8.16369 28.1007 10.2073 31.3882 12.8583C31.7911 12.365 32.2098 11.8665 32.6545 11.3656C32.7111 11.2994 32.7506 11.2428 32.8058 11.1801C31.421 10.1616 29.2657 8.34493 27.2312 5.67392Z" fill="#C30606"/>
<path d="M30.5739 46.4764C24.7481 38.3283 19.6572 28.1675 30.4364 14.0718C29.0236 13.07 26.5505 11.0573 24.2872 7.98151C19.9027 11.5801 13.713 17.4292 10.0159 24.3296C4.15443 35.2715 14.8865 44.8191 23.8252 53.4163C24.8028 51.945 27.0076 49.039 30.5739 46.4764Z" fill="#C30606"/>
<path d="M33.789 9.95764C38.3694 3.70086 33.1506 1.36187 29.3612 4.16179C29.3612 4.16179 29.0235 4.38632 28.4802 4.76783C29.3969 5.91948 31.0442 7.71332 33.789 9.95764Z" fill="#C30606"/>
<path d="M33.4264 50.4578C33.1353 49.9973 32.8204 49.5264 32.4474 49.0269C32.1244 48.5964 31.7995 48.1602 31.4727 47.7173C30.5256 48.3781 28.1514 50.2689 24.9315 54.486C25.0347 54.5873 25.1436 54.6896 25.245 54.789C26.0227 55.4954 26.8081 56.0695 27.5796 56.5405C28.5867 55.091 30.5113 52.6888 33.4264 50.4578Z" fill="#C30606"/>
<path d="M34.1897 51.8059C33.0723 52.7054 31.2556 54.3956 28.9714 57.2868C33.4624 59.2814 36.8736 57.1498 34.1897 51.8059Z" fill="#C30606"/>
</svg>
