<svg width="61" height="61" viewBox="0 0 61 61" fill="none" xmlns="http://www.w3.org/2000/svg">
<path d="M26.2373 5.337C25.7278 5.71613 25.1275 6.1785 24.4853 6.68463C25.3401 7.82677 27.1068 9.87034 30.3943 12.5214C30.7972 12.0281 31.2159 11.5296 31.6606 11.0287C31.7172 10.9625 31.7567 10.9059 31.8119 10.8431C30.4271 9.82468 28.2718 8.00801 26.2373 5.337Z" fill="#957757"/>
<path d="M29.58 46.1395C23.7542 37.9914 18.6633 27.8306 29.4425 13.7349C28.0297 12.7331 25.5566 10.7204 23.2933 7.6446C18.9088 11.2432 12.7191 17.0923 9.02201 23.9927C3.16053 34.9346 13.8926 44.4822 22.8313 53.0794C23.8089 51.6081 26.0137 48.7021 29.58 46.1395Z" fill="#957757"/>
<path d="M32.7951 9.62073C37.3755 3.36395 32.1567 1.02496 28.3673 3.82488C28.3673 3.82488 28.0296 4.04941 27.4863 4.43091C28.403 5.58257 30.0503 7.37641 32.7951 9.62073Z" fill="#957757"/>
<path d="M32.4325 50.1209C32.1414 49.6604 31.8265 49.1895 31.4535 48.69C31.1305 48.2595 30.8056 47.8233 30.4788 47.3804C29.5317 48.0412 27.1575 49.932 23.9376 54.149C24.0408 54.2504 24.1497 54.3526 24.2511 54.4521C25.0288 55.1585 25.8142 55.7326 26.5857 56.2036C27.5928 54.7541 29.5174 52.3519 32.4325 50.1209Z" fill="#957757"/>
<path d="M33.1958 51.469C32.0784 52.3685 30.2617 54.0587 27.9775 56.9499C32.4685 58.9445 35.8797 56.8129 33.1958 51.469Z" fill="#957757"/>
</svg>
